LuxiSerif-Oblique.sfdir
StartChar: exclam
Encoding: 33 33 232
Width: 333
Flags: MW
HStem: 0 96<118 234 137 214> 703 20<263 359 359 359>
LayerCount: 2
Fore
SplineSet
118 0 m 1
 137 96 l 1
 234 96 l 1
 214 0 l 1
 118 0 l 1
190 193 m 1
 234 578 l 1
 263 723 l 1
 359 723 l 1
 330 578 l 1
 220 193 l 1
 190 193 l 1
EndSplineSet
EndChar
StartChar: quotedbl
Encoding: 34 34 255
Width: 408
Flags: W
LayerCount: 2
Fore
SplineSet
210 530 m 1
 225 771 l 1
 321 771 l 1
 240 530 l 1
 210 530 l 1
378 530 m 1
 394 771 l 1
 490 771 l 1
 409 530 l 1
 378 530 l 1
EndSplineSet
EndChar
StartChar: numbersign
Encoding: 35 35 257
Width: 500
Flags: MW
HStem: 0 20 223 48<63 145 44 167 63 195 216 324 396 489> 452 48<154 248 135 270 154 298 319 426 499 581> 703 20<370 420 420 420 548 599 599 599>
LayerCount: 2
Fore
SplineSet
44 0 m 1
 145 223 l 1
 44 223 l 1
 63 271 l 1
 167 271 l 1
 248 452 l 1
 135 452 l 1
 154 500 l 1
 270 500 l 1
 370 723 l 1
 420 723 l 1
 319 500 l 1
 448 500 l 1
 548 723 l 1
 599 723 l 1
 499 500 l 1
 599 500 l 1
 581 452 l 1
 477 452 l 1
 396 271 l 1
 508 271 l 1
 489 223 l 1
 374 223 l 1
 273 0 l 1
 223 0 l 1
 324 223 l 1
 195 223 l 1
 94 0 l 1
 44 0 l 1
216 271 m 1
 345 271 l 1
 426 452 l 1
 298 452 l 1
 216 271 l 1
EndSplineSet
EndChar
StartChar: dollar
Encoding: 36 36 214
Width: 500
Flags: MW
HStem: 0 20
VStem: 169 88<523.5 573> 409 89<177.5 225>
LayerCount: 2
Fore
SplineSet
230 -60 m 1
 241 0 l 1
 173 0 108 14 47 42 c 1
 71 163 l 1
 126 163 l 1
 124 154 l 1
 123 145 l 1
 122 135 l 2
 121 133 121 130 120 127 c 0
 118 111 117 102 117 97 c 0
 117 77 132 60 162 46 c 0
 183 36 183 36 229 32 c 1
 248 32 l 1
 307 329 l 1
 200 399 169 442 169 517 c 0
 169 629 246 702 387 726 c 1
 398 783 l 1
 428 783 l 1
 417 725 l 1
 472 723 527 710 583 687 c 1
 560 575 l 1
 506 575 l 1
 507 584 l 2
 508 586 508 590 509 596 c 0
 510 604 511 607 512 614 c 0
 512 615 513 619 514 624 c 2
 515 636 l 2
 515 665 470 692 420 692 c 2
 410 692 l 1
 353 409 l 1
 371 395 393 379 415 363 c 0
 474 320 498 283 498 234 c 0
 498 121 407 26 271 -1 c 1
 259 -60 l 1
 230 -60 l 1
334 311 m 1
 279 38 l 1
 359 64 409 129 409 206 c 0
 409 244 392 268 334 311 c 1
327 429 m 1
 379 688 l 1
 309 676 257 616 257 545 c 0
 257 502 278 467 327 429 c 1
EndSplineSet
EndChar
StartChar: percent
Encoding: 37 37 278
Width: 833
Flags: W
HStem: -18 20 0 30<605 658 605 672> 331 30<654 706.5> 362 30<269 322 269 336> 693 30<317.5 370.5> 721 20<825 885 885 885>
VStem: 162 67<456 532.5 446.5 559> 412 67<551 632 525 637.5> 498 67<93.5 170.5 84.5 197> 748 67<189.5 270 163 275.5>
LayerCount: 2
Fore
SplineSet
92 -18 m 1x87c0
 825 741 l 1
 885 741 l 1
 153 -18 l 1
 92 -18 l 1x87c0
357 723 m 0x7bc0
 437 723 479 677 479 587 c 0
 479 463 390 362 282 362 c 0
 207 362 162 414 162 498 c 0
 162 620 251 723 357 723 c 0x7bc0
350 693 m 0
 285 693 229 591 229 474 c 0
 229 419 249 392 289 392 c 0
 355 392 412 492 412 610 c 0
 412 665 391 693 350 693 c 0
693 361 m 0
 773 361 815 315 815 225 c 0
 815 101 726 0 618 0 c 0
 543 0 498 51 498 136 c 0
 498 258 587 361 693 361 c 0
686 331 m 0
 622 331 565 229 565 112 c 0
 565 57 585 30 625 30 c 0
 691 30 748 131 748 248 c 0
 748 303 727 331 686 331 c 0
EndSplineSet
EndChar
StartChar: ampersand
Encoding: 38 38 249
Width: 778
Flags: W
HStem: -18 55<310.5 341.5> 0 20 709 33<475 532>
VStem: 92 101<145.5 232.5> 293 103<560.5 604> 580 87<600 663.5 576.5 664>
LayerCount: 2
Fore
SplineSet
568 0 m 1x7c
 532 50 l 1
 444 2 378 -18 305 -18 c 0x9c
 173 -18 92 54 92 171 c 0
 92 294 172 383 327 434 c 1
 303 480 293 513 293 548 c 0
 293 660 386 742 514 742 c 0
 615 742 667 702 667 625 c 0
 667 528 594 459 447 416 c 1
 467 380 l 1
 517 285 l 1
 569 190 l 1
 596 140 l 1
 643 193 667 247 674 312 c 0
 675 321 675 322 676 324 c 0
 677 326 677 327 677 327 c 2
 677 329 677 329 679 331 c 0
 679 332 678 334 677 336 c 0
 674 344 663 351 651 351 c 2
 608 354 l 1
 599 354 l 1
 605 384 l 1
 834 384 l 1
 828 354 l 1
 818 354 l 1
 779 352 l 2
 755 351 752 347 743 313 c 0
 730 256 686 189 613 115 c 1
 616 111 l 1
 620 106 l 2
 620 105 621 105 625 100 c 2
 634 88 l 1
 640 79 l 2
 642 76 644 74 646 72 c 2
 647 70 l 1
 648 69 l 1
 672 38 682 34 738 32 c 2
 749 31 l 1
 751 31 l 1
 758 30 l 1
 751 0 l 1
 568 0 l 1x7c
515 76 m 1xbc
 456 165 396 278 337 408 c 1
 245 368 193 291 193 195 c 0
 193 96 257 37 364 37 c 0
 418 37 464 49 515 76 c 1xbc
435 438 m 1
 535 497 580 559 580 641 c 0
 580 687 556 709 508 709 c 0
 442 709 396 656 396 580 c 0
 396 541 408 496 431 446 c 0
 432 445 433 442 435 438 c 1
EndSplineSet
EndChar
StartChar: quotesingle
Encoding: 39 39 254
Width: 180
Flags: W
LayerCount: 2
Fore
SplineSet
176 506 m 1
 184 771 l 1
 304 771 l 1
 206 506 l 1
 176 506 l 1
EndSplineSet
EndChar
StartChar: parenleft
Encoding: 40 40 245
Width: 333
Flags: MW
VStem: 111 83<147.5 162 72 258>
LayerCount: 2
Fore
SplineSet
263 -114 m 1
 257 -145 l 1
 208 -107 185 -80 160 -33 c 0
 128 27 111 104 111 191 c 0
 111 325 153 456 235 578 c 0
 293 664 352 720 440 771 c 1
 434 741 l 1
 346 657 295 578 259 469 c 0
 222 360 194 208 194 116 c 0
 194 28 214 -39 263 -114 c 1
EndSplineSet
EndChar
StartChar: parenright
Encoding: 41 41 246
Width: 333
Flags: MW
VStem: 267 83<464 479 368.5 554>
LayerCount: 2
Fore
SplineSet
198 741 m 1
 204 771 l 1
 253 734 277 706 301 660 c 0
 333 600 350 523 350 435 c 0
 350 302 308 170 226 48 c 0
 168 -38 108 -94 21 -145 c 1
 27 -114 l 1
 115 -30 165 49 202 158 c 0
 239 268 267 418 267 510 c 0
 267 598 247 666 198 741 c 1
EndSplineSet
EndChar
StartChar: asterisk
Encoding: 42 42 253
Width: 500
Flags: MW
HStem: 703 20<359 431 431 431>
LayerCount: 2
Fore
SplineSet
395 562 m 1
 545 626 l 1
 553 557 l 1
 399 528 l 1
 401 533 402 539 402 543 c 0
 402 549 399 556 395 562 c 1
390 512 m 1
 471 401 l 1
 404 358 l 1
 357 490 l 1
 371 494 382 501 390 512 c 1
340 490 m 1
 240 358 l 1
 190 401 l 1
 315 512 l 1
 320 500 328 493 340 490 c 1
313 528 m 1
 170 557 l 1
 206 626 l 1
 331 562 l 1
 320 552 314 541 313 528 c 1
347 573 m 1
 359 723 l 1
 431 723 l 1
 383 573 l 1
 376 575 370 577 365 577 c 0
 360 577 353 575 347 573 c 1
EndSplineSet
EndChar
StartChar: plus
Encoding: 43 43 259
Width: 564
Flags: MW
HStem: 265 48<103 311 94 320 103 359 368 576> 510 20<364 412 412 412>
LayerCount: 2
Fore
SplineSet
267 48 m 1
 311 265 l 1
 94 265 l 1
 103 313 l 1
 320 313 l 1
 364 530 l 1
 412 530 l 1
 368 313 l 1
 585 313 l 1
 576 265 l 1
 359 265 l 1
 316 48 l 1
 267 48 l 1
EndSplineSet
EndChar
StartChar: comma
Encoding: 44 44 226
Width: 250
Flags: MW
HStem: 0 20
LayerCount: 2
Fore
SplineSet
113 0 m 1
 64 0 l 1
 88 121 l 1
 209 121 l 1
 188 16 l 2
 173 -56 166 -75 142 -100 c 0
 109 -135 73 -153 33 -156 c 1
 39 -126 l 1
 72 -123 94 -92 106 -31 c 2
 113 0 l 1
EndSplineSet
EndChar
StartChar: hyphen
Encoding: 45 45 241
Width: 333
Flags: MW
HStem: 265 60<93 358 105 346>
LayerCount: 2
Fore
SplineSet
93 265 m 1
 105 325 l 1
 358 325 l 1
 346 265 l 1
 93 265 l 1
EndSplineSet
EndChar
StartChar: period
Encoding: 46 46 222
Width: 250
Flags: MW
HStem: 0 121<65 210 89 186>
LayerCount: 2
Fore
SplineSet
65 0 m 1
 89 121 l 1
 210 121 l 1
 186 0 l 1
 65 0 l 1
EndSplineSet
EndChar
StartChar: slash
Encoding: 47 47 240
Width: 278
Flags: MW
HStem: 703 20<387 437 437 437>
LayerCount: 2
Fore
SplineSet
-44 -144 m 1
 387 723 l 1
 437 723 l 1
 7 -144 l 1
 -44 -144 l 1
EndSplineSet
EndChar
StartChar: zero
Encoding: 48 48 212
Width: 500
Flags: MW
HStem: -18 30<230.5 281 230.5 285.5> 711 30<358.5 418>
VStem: 86 89<150.5 187 109.5 293> 470 89<524 573 430 614.5>
LayerCount: 2
Fore
SplineSet
399 741 m 0
 500 741 559 651 559 495 c 0
 559 365 526 244 463 140 c 0
 400 35 326 -18 245 -18 c 0
 145 -18 86 73 86 228 c 0
 86 358 119 480 182 583 c 0
 245 688 318 741 399 741 c 0
393 711 m 0
 322 711 265 626 224 462 c 0
 196 348 175 218 175 156 c 0
 175 63 204 12 257 12 c 0
 305 12 360 77 396 176 c 0
 431 275 470 480 470 568 c 0
 470 661 443 711 393 711 c 0
EndSplineSet
EndChar
StartChar: one
Encoding: 49 49 203
Width: 500
Flags: MW
HStem: 0 20 709 20<444 444>
LayerCount: 2
Fore
SplineSet
444 729 m 1
 323 127 l 2
 318 101 315 75 315 59 c 0
 315 43 326 35 353 33 c 2
 385 31 l 1
 442 30 l 1
 437 0 l 1
 63 0 l 1
 69 30 l 1
 126 31 l 2
 189 31 203 39 214 78 c 2
 227 127 l 1
 316 575 l 1
 323 624 l 1
 327 642 l 1
 324 653 315 658 299 658 c 0
 292 658 278 656 241 649 c 2
 191 640 l 1
 197 671 l 1
 444 729 l 1
EndSplineSet
EndChar
StartChar: two
Encoding: 50 50 204
Width: 500
Flags: MW
HStem: 0 84<129 439> 709 33<349.5 391>
VStem: 456 102<555 642.5>
LayerCount: 2
Fore
SplineSet
33 0 m 1
 42 48 l 1
 83 140 115 177 254 292 c 2
 291 323 l 2
 411 423 456 501 456 609 c 0
 456 676 424 709 358 709 c 0
 316 709 267 691 248 668 c 0
 237 655 223 619 213 577 c 2
 210 565 l 1
 162 565 l 1
 188 697 l 1
 261 729 317 742 382 742 c 0
 500 742 558 695 558 599 c 0
 558 506 525 457 394 356 c 2
 336 311 l 1
 299 283 l 2
 206 212 151 147 129 84 c 1
 456 84 l 1
 439 0 l 1
 33 0 l 1
EndSplineSet
EndChar
StartChar: three
Encoding: 51 51 205
Width: 500
Flags: W
HStem: -18 33<183 258 183 281.5> 708 33<330 379>
VStem: 386 102<181.5 280 167 283.5> 444 97<558.5 642>
LayerCount: 2
Fore
SplineSet
46 5 m 1xe0
 71 132 l 1
 119 132 l 1
 118 122 l 1
 112 89 l 2
 112 88 112 82 111 72 c 0
 109 42 156 15 210 15 c 0
 306 15 386 119 386 244 c 0xe0
 386 323 331 371 239 371 c 2
 185 371 l 1
 191 401 l 1
 223 401 l 2
 361 401 444 479 444 608 c 0
 444 676 412 708 346 708 c 0
 309 708 266 696 252 682 c 0
 242 671 230 643 221 610 c 2
 219 603 l 1
 171 603 l 1
 193 713 l 1
 254 733 303 741 357 741 c 0
 479 741 541 696 541 606 c 0xd0
 541 511 473 435 349 391 c 1
 448 362 488 319 488 241 c 0
 488 93 364 -18 199 -18 c 0
 145 -18 96 -11 46 5 c 1xe0
EndSplineSet
EndChar
StartChar: four
Encoding: 52 52 206
Width: 500
Flags: MW
HStem: 0 20 205 73<122 348 53 363 122 432 447 517> 715 20<485 539 539 539>
LayerCount: 2
Fore
SplineSet
348 205 m 1
 53 205 l 1
 63 254 l 1
 485 735 l 1
 539 735 l 1
 447 278 l 1
 532 278 l 1
 517 205 l 1
 432 205 l 1
 417 127 l 2
 412 105 409 75 409 60 c 0
 409 44 419 37 447 33 c 2
 467 31 l 1
 476 30 l 1
 470 0 l 1
 217 0 l 1
 223 30 l 1
 232 31 l 1
 271 33 l 2
 307 37 317 52 333 127 c 2
 348 205 l 1
122 278 m 1
 363 278 l 1
 434 635 l 1
 122 278 l 1
EndSplineSet
EndChar
StartChar: five
Encoding: 53 53 207
Width: 500
Flags: MW
HStem: -18 30<176.5 226 176.5 271.5> 639 84<233 556 233 233>
VStem: 388 101<226 305.5>
LayerCount: 2
Fore
SplineSet
63 -1 m 1
 87 121 l 1
 136 121 l 1
 134 109 l 1
 127 72 l 1
 127 59 l 2
 127 29 153 12 200 12 c 0
 252 12 295 36 332 87 c 0
 368 135 388 195 388 257 c 0
 388 354 318 401 174 401 c 2
 156 401 l 1
 220 723 l 1
 573 723 l 1
 556 639 l 1
 233 639 l 1
 193 437 l 1
 238 437 l 2
 406 437 489 375 489 251 c 0
 489 96 359 -18 184 -18 c 0
 145 -18 108 -13 63 -1 c 1
EndSplineSet
EndChar
StartChar: six
Encoding: 54 54 208
Width: 500
Flags: MW
HStem: -18 33<243 316 243 326.5> 430 34<340.5 375> 709 33<411.5 468>
VStem: 78 97<134.5 251.5> 438 98<229.5 345 210.5 347.5>
LayerCount: 2
Fore
SplineSet
514 599 m 1
 515 610 l 2
 518 627 519 644 519 654 c 0
 519 690 493 709 443 709 c 0
 380 709 331 676 287 604 c 0
 252 546 231 488 202 370 c 1
 255 436 306 464 375 464 c 0
 474 464 536 398 536 292 c 0
 536 129 401 -18 252 -18 c 0
 144 -18 78 66 78 203 c 0
 78 300 103 416 144 507 c 0
 212 658 320 742 447 742 c 0
 501 742 544 732 584 709 c 1
 562 599 l 1
 514 599 l 1
343 430 m 0
 245 430 175 325 175 180 c 0
 175 79 213 15 273 15 c 0
 359 15 438 153 438 306 c 0
 438 389 407 430 343 430 c 0
EndSplineSet
EndChar
StartChar: seven
Encoding: 55 55 209
Width: 500
Flags: MW
HStem: 0 20 633 90<197 556 179 631>
LayerCount: 2
Fore
SplineSet
203 0 m 1
 89 0 l 1
 148 154 272 331 464 535 c 2
 556 633 l 1
 179 633 l 1
 197 723 l 1
 631 723 l 1
 618 660 l 1
 413 442 251 184 203 0 c 1
EndSplineSet
EndChar
StartChar: eight
Encoding: 56 56 210
Width: 500
Flags: W
HStem: -18 33<228.5 304 228.5 320.5> 709 33<355.5 422>
VStem: 55 98<99.5 185 99.5 188.5> 168 91<545.5 588.5> 421 102<159.5 211> 488 84<572 641>
LayerCount: 2
Fore
SplineSet
390 399 m 1xf4
 412 384 l 2
 495 329 523 290 523 225 c 0xd8
 523 94 396 -18 245 -18 c 0
 132 -18 55 45 55 138 c 0
 55 239 131 337 249 389 c 1
 191 437 168 476 168 528 c 0
 168 649 272 742 407 742 c 0
 515 742 572 698 572 615 c 0
 572 529 517 464 390 399 c 1xf4
342 438 m 2
 366 415 l 1
 450 473 488 533 488 611 c 0xc4
 488 671 451 709 393 709 c 0
 318 709 259 645 259 563 c 0
 259 528 282 493 342 438 c 2
315 331 m 2xe8
 267 368 l 1
 188 303 153 232 153 138 c 0
 153 61 194 15 263 15 c 0
 345 15 421 99 421 190 c 0
 421 232 389 274 315 331 c 2xe8
EndSplineSet
EndChar
StartChar: nine
Encoding: 57 57 211
Width: 500
Flags: MW
HStem: -18 33<177 234 177 260.5> 259 34<270 304> 709 33<328.5 402>
VStem: 109 98<378 494.5 376 512.5> 470 96<472 589 472 595>
LayerCount: 2
Fore
SplineSet
131 124 m 1
 129 113 l 2
 128 102 126 80 126 70 c 0
 126 34 152 15 202 15 c 0
 266 15 314 48 358 120 c 0
 393 177 414 234 443 353 c 1
 390 287 338 259 270 259 c 0
 171 259 109 325 109 431 c 0
 109 594 244 742 393 742 c 0
 500 742 566 658 566 520 c 0
 566 424 540 306 500 216 c 0
 433 66 324 -18 197 -18 c 0
 144 -18 100 -8 61 14 c 1
 82 124 l 1
 131 124 l 1
372 709 m 0
 285 709 207 571 207 418 c 0
 207 334 238 293 302 293 c 0
 399 293 470 398 470 544 c 0
 470 646 432 709 372 709 c 0
EndSplineSet
EndChar
StartChar: colon
Encoding: 58 58 223
Width: 278
Flags: MW
HStem: 0 121<79 224 103 200> 409 121<161 306 185 282>
LayerCount: 2
Fore
SplineSet
79 0 m 1
 103 121 l 1
 224 121 l 1
 200 0 l 1
 79 0 l 1
161 409 m 1
 185 530 l 1
 306 530 l 1
 282 409 l 1
 161 409 l 1
EndSplineSet
EndChar
StartChar: semicolon
Encoding: 59 59 227
Width: 278
Flags: MW
HStem: 0 20 409 121<160 305 184 281>
LayerCount: 2
Fore
SplineSet
127 0 m 1
 78 0 l 1
 102 121 l 1
 223 121 l 1
 202 16 l 2
 187 -56 180 -75 156 -100 c 0
 123 -135 87 -153 47 -156 c 1
 53 -126 l 1
 86 -123 108 -92 120 -31 c 2
 127 0 l 1
160 409 m 1
 184 530 l 1
 305 530 l 1
 281 409 l 1
 160 409 l 1
EndSplineSet
EndChar
StartChar: less
Encoding: 60 60 300
Width: 564
Flags: MW
HStem: 510 20<629 629>
LayerCount: 2
Fore
SplineSet
533 48 m 1
 99 289 l 1
 629 530 l 1
 619 476 l 1
 208 289 l 1
 208 288 l 1
 544 102 l 1
 533 48 l 1
EndSplineSet
EndChar
StartChar: equal
Encoding: 61 61 263
Width: 564
Flags: MW
HStem: 175 48<76 568 86 558> 356 48<112 604 122 594>
LayerCount: 2
Fore
SplineSet
76 175 m 1
 86 223 l 1
 568 223 l 1
 558 175 l 1
 76 175 l 1
112 356 m 1
 122 404 l 1
 604 404 l 1
 594 356 l 1
 112 356 l 1
EndSplineSet
EndChar
StartChar: greater
Encoding: 62 62 301
Width: 564
Flags: MW
HStem: 510 20<147 147>
LayerCount: 2
Fore
SplineSet
147 530 m 1
 581 289 l 1
 51 48 l 1
 62 102 l 1
 472 288 l 1
 472 289 l 1
 136 476 l 1
 147 530 l 1
EndSplineSet
EndChar
StartChar: question
Encoding: 63 63 234
Width: 444
Flags: MW
HStem: 0 96<132 248 151 228> 711 30<321 359.5>
VStem: 431 103<578.5 645.5>
LayerCount: 2
Fore
SplineSet
132 0 m 1
 151 96 l 1
 248 96 l 1
 228 0 l 1
 132 0 l 1
171 193 m 1
 172 202 l 1
 184 266 221 325 276 370 c 2
 299 390 l 2
 386 463 431 538 431 613 c 0
 431 678 395 711 324 711 c 0
 257 711 214 685 203 638 c 2
 191 585 l 1
 188 575 l 1
 139 575 l 1
 166 709 l 1
 238 731 293 741 349 741 c 0
 464 741 534 691 534 611 c 0
 534 546 492 488 397 424 c 0
 376 409 372 407 361 398 c 2
 340 382 l 2
 312 359 292 319 280 260 c 2
 267 193 l 1
 171 193 l 1
EndSplineSet
EndChar
StartChar: at
Encoding: 64 64 256
Width: 921
Flags: W
HStem: -18 30<324.5 422> 144 36<666.5 680> 144 60<408.5 410.5> 524 49<599 610> 711 30<603.5 745.5>
VStem: 125 32<166 276> 310 76<234.5 261> 570 69<201.5 202.5> 922 30<455 555.5>
LayerCount: 2
Fore
SplineSet
567 49 m 1xdf80
 572 21 l 1
 504 -6 451 -18 393 -18 c 0
 228 -18 125 76 125 228 c 0
 125 324 170 425 261 530 c 0
 382 671 523 741 684 741 c 0
 845 741 952 642 952 494 c 0
 952 408 919 327 854 254 c 0
 790 181 718 144 642 144 c 0xcf80
 594 144 570 161 570 195 c 0
 570 210 575 228 584 247 c 2
 604 289 l 1
 612 310 l 1
 602 310 l 1
 508 193 442 144 379 144 c 0x2780
 333 144 310 171 310 224 c 0
 310 298 347 376 420 455 c 0
 492 533 564 573 634 573 c 0
 648 573 657 572 672 567 c 2
 710 556 l 1
 712 556 l 1
 714 555 l 1
 717 554 l 1
 720 554 l 1
 722 553 l 1
 769 553 l 1
 656 273 l 2
 645 245 639 224 639 212 c 0
 639 191 653 180 680 180 c 0
 734 180 788 214 842 283 c 0
 895 351 922 420 922 490 c 0
 922 621 820 711 671 711 c 0
 531 711 401 644 284 512 c 0
 198 415 157 325 157 234 c 0
 157 98 250 12 399 12 c 0
 453 12 503 23 567 49 c 1xdf80
635 400 m 1x3780
 676 503 l 1
 651 517 625 524 595 524 c 0
 538 524 491 493 448 427 c 0
 408 365 386 301 386 249 c 0
 386 220 398 204 419 204 c 0
 467 204 531 262 635 400 c 1x3780
EndSplineSet
EndChar
StartChar: B
Encoding: 66 66 134
Width: 667
Flags: W
HStem: 0 20 703 20<168 489 489 564.5>
VStem: 541 107<183 265.5 183 271> 587 107<537.5 627.5>
LayerCount: 2
Fore
SplineSet
23 0 m 1xe0
 29 30 l 1
 38 31 l 1
 72 33 l 2
 114 37 122 49 139 127 c 2
 232 596 l 2
 238 624 241 648 241 664 c 0
 241 681 230 689 203 690 c 2
 170 692 l 1
 162 693 l 1
 168 723 l 1
 489 723 l 2
 640 723 694 690 694 598 c 0xd0
 694 477 611 399 460 375 c 1
 595 357 648 313 648 218 c 0
 648 148 608 78 546 39 c 0
 500 11 441 0 330 0 c 2
 23 0 l 1xe0
286 359 m 1xe0
 240 127 l 1
 233 84 l 1
 229 65 l 1
 233 42 254 33 303 33 c 0
 458 33 541 98 541 219 c 0
 541 323 479 357 286 359 c 1xe0
293 392 m 1xd0
 347 392 l 2
 505 392 587 459 587 588 c 0
 587 667 545 690 401 690 c 2
 353 690 l 1
 293 392 l 1xd0
EndSplineSet
EndChar
StartChar: C
Encoding: 67 67 135
Width: 667
Flags: MW
HStem: -18 48<369 436> 708 33<489.5 570.5 469.5 573>
VStem: 105 111<189 318 189 329.5>
LayerCount: 2
Fore
SplineSet
640 86 m 1
 631 39 l 1
 551 -1 479 -18 393 -18 c 0
 207 -18 105 83 105 267 c 0
 105 392 147 509 225 602 c 0
 303 696 404 741 535 741 c 0
 606 741 671 730 751 705 c 1
 724 567 l 1
 664 567 l 1
 665 576 l 2
 667 591 669 602 670 609 c 0
 672 616 673 626 673 630 c 0
 673 673 611 708 535 708 c 0
 444 708 370 664 309 574 c 0
 249 484 216 374 216 262 c 0
 216 116 299 30 439 30 c 0
 500 30 560 47 640 86 c 1
EndSplineSet
EndChar
StartChar: D
Encoding: 68 68 136
Width: 722
Flags: W
HStem: 0 20 703 20<165 372 372 407 407 407> 706 20<482.5 484>
VStem: 658 110<440 526 413.5 552>
LayerCount: 2
Fore
SplineSet
20 0 m 1xb0
 26 30 l 1
 35 31 l 1
 69 33 l 2
 111 37 119 49 136 127 c 2
 229 596 l 2
 235 624 238 648 238 664 c 0
 238 681 227 689 200 690 c 2
 167 692 l 1
 159 693 l 1
 165 723 l 1
 372 723 l 1
 407 723 l 1xd0
 442 725 l 1
 478 725 l 1
 478 725 481 726 484 726 c 0
 523 731 591 718 638 698 c 0
 725 660 768 584 768 468 c 0
 768 359 734 256 668 166 c 0
 586 55 476 0 335 0 c 2
 20 0 l 1xb0
351 690 m 1
 238 127 l 1
 232 88 l 1
 229 72 l 1
 235 45 259 33 311 33 c 0
 441 33 542 97 598 217 c 0
 635 293 658 398 658 482 c 0
 658 622 572 690 397 690 c 2
 351 690 l 1
EndSplineSet
EndChar
StartChar: F
Encoding: 70 70 138
Width: 556
Flags: MW
HStem: 0 20 350 40<292 424 284 432> 684 39<351 510 351 351>
LayerCount: 2
Fore
SplineSet
21 0 m 1
 27 30 l 1
 36 31 l 1
 70 33 l 2
 112 37 120 49 137 126 c 2
 230 596 l 2
 236 624 239 648 239 664 c 0
 239 681 228 689 201 690 c 2
 168 692 l 1
 160 693 l 1
 166 723 l 1
 661 723 l 1
 636 596 l 1
 582 596 l 1
 583 606 l 1
 589 647 l 1
 592 665 l 1
 589 678 562 684 510 684 c 2
 351 684 l 1
 292 390 l 1
 432 390 l 1
 463 391 l 2
 492 391 495 394 502 418 c 0
 503 423 503 424 508 441 c 2
 510 450 l 1
 549 450 l 1
 518 290 l 1
 479 290 l 1
 479 299 l 2
 482 315 483 327 483 331 c 0
 483 341 476 346 459 348 c 2
 424 350 l 1
 284 350 l 1
 239 126 l 2
 234 101 232 82 232 64 c 0
 232 40 240 33 269 33 c 2
 283 33 l 1
 298 32 l 1
 313 31 l 1
 322 30 l 1
 316 0 l 1
 21 0 l 1
EndSplineSet
EndChar
StartChar: G
Encoding: 71 71 139
Width: 722
Flags: MW
HStem: -18 41<364.5 422.5> 709 33<485 586>
VStem: 107 107<177 280 177 323>
LayerCount: 2
Fore
SplineSet
667 181 m 1
 634 18 l 1
 530 -7 454 -18 391 -18 c 0
 210 -18 107 85 107 267 c 0
 107 379 142 486 208 577 c 0
 289 689 399 742 550 742 c 0
 627 742 695 730 770 704 c 1
 743 573 l 1
 689 573 l 1
 690 582 l 2
 698 628 698 628 698 638 c 0
 698 676 627 709 545 709 c 0
 425 709 330 638 272 506 c 0
 238 426 214 319 214 241 c 0
 214 113 302 23 427 23 c 0
 457 23 491 28 536 39 c 1
 565 181 l 2
 568 200 572 234 572 249 c 0
 572 266 563 272 535 275 c 2
 503 278 l 1
 493 278 l 1
 500 308 l 1
 776 308 l 1
 771 278 l 1
 761 278 l 1
 734 275 l 2
 694 271 690 267 679 230 c 2
 667 181 l 1
EndSplineSet
EndChar
StartChar: H
Encoding: 72 72 140
Width: 722
Flags: MW
HStem: 0 20 354 42<292 581 284 589> 703 20<165 448 448 448 563 847 847 847>
LayerCount: 2
Fore
SplineSet
20 0 m 1
 26 30 l 1
 35 31 l 1
 69 33 l 2
 111 37 119 49 136 126 c 2
 229 596 l 2
 235 623 238 648 238 664 c 0
 238 681 227 689 200 690 c 2
 167 692 l 1
 159 693 l 1
 165 723 l 1
 448 723 l 1
 442 693 l 1
 433 692 l 1
 399 690 l 2
 361 687 355 682 345 645 c 2
 332 596 l 1
 292 396 l 1
 589 396 l 1
 629 596 l 2
 633 619 637 649 637 664 c 0
 637 681 626 689 599 690 c 2
 567 692 l 1
 558 693 l 1
 563 723 l 1
 847 723 l 1
 841 693 l 1
 832 692 l 1
 798 690 l 2
 760 687 754 682 744 645 c 2
 731 596 l 1
 637 126 l 2
 632 102 629 75 629 59 c 0
 629 42 639 35 666 33 c 2
 699 31 l 1
 708 30 l 1
 702 0 l 1
 419 0 l 1
 425 30 l 1
 435 31 l 1
 468 33 l 2
 510 37 519 49 535 126 c 2
 581 354 l 1
 284 354 l 1
 238 126 l 2
 233 101 230 75 230 59 c 0
 230 42 240 35 268 33 c 2
 300 31 l 1
 309 30 l 1
 303 0 l 1
 20 0 l 1
EndSplineSet
EndChar
StartChar: J
Encoding: 74 74 142
Width: 389
Flags: MW
HStem: -145 40<77.5 81.5> 703 20<235 518 518 518>
LayerCount: 2
Fore
SplineSet
-27 -134 m 1
 -5 -22 l 1
 53 -22 l 1
 51 -34 l 2
 48 -54 47 -65 47 -73 c 0
 47 -94 62 -105 93 -105 c 0
 149 -105 166 -75 196 73 c 2
 300 597 l 2
 307 629 309 648 309 664 c 0
 309 681 298 689 271 690 c 2
 238 692 l 1
 229 693 l 1
 235 723 l 1
 518 723 l 1
 513 693 l 1
 503 692 l 1
 470 690 l 2
 431 687 426 682 415 645 c 2
 403 597 l 1
 310 132 l 2
 290 30 261 -35 220 -76 c 0
 175 -120 114 -145 49 -145 c 0
 27 -145 5 -142 -27 -134 c 1
EndSplineSet
EndChar
StartChar: K
Encoding: 75 75 143
Width: 722
Flags: MW
HStem: 0 20 703 20<172 455 455 455 575 798 798 798>
LayerCount: 2
Fore
SplineSet
27 0 m 1
 33 30 l 1
 42 31 l 1
 76 33 l 2
 118 37 126 49 143 127 c 2
 236 596 l 2
 242 624 245 648 245 664 c 0
 245 681 234 689 207 690 c 2
 174 692 l 1
 166 693 l 1
 172 723 l 1
 455 723 l 1
 449 693 l 1
 440 692 l 1
 406 690 l 2
 368 687 362 682 352 645 c 2
 339 596 l 1
 294 368 l 1
 558 596 l 2
 582 618 592 628 609 646 c 0
 623 662 635 673 641 678 c 0
 646 681 648 684 648 685 c 0
 648 690 641 692 622 692 c 2
 578 693 l 1
 569 693 l 1
 575 723 l 1
 798 723 l 1
 792 693 l 1
 784 692 l 1
 754 692 l 2
 720 690 711 685 605 596 c 2
 383 408 l 1
 580 126 l 1
 620 73 l 2
 649 35 651 35 710 31 c 2
 720 30 l 1
 714 0 l 1
 419 0 l 1
 425 30 l 1
 434 30 l 2
 475 30 496 35 496 45 c 0
 496 57 479 89 453 128 c 2
 293 365 l 1
 245 127 l 1
 238 78 l 1
 235 62 l 1
 236 44 257 33 295 31 c 2
 304 30 l 1
 298 0 l 1
 27 0 l 1
EndSplineSet
EndChar
StartChar: L
Encoding: 76 76 144
Width: 611
Flags: MW
HStem: 0 42<312 428 428 472.5> 703 20<172 455 455 455>
LayerCount: 2
Fore
SplineSet
27 0 m 1
 33 30 l 1
 42 31 l 1
 76 33 l 2
 118 37 126 49 143 127 c 2
 236 596 l 2
 242 624 245 648 245 664 c 0
 245 681 234 689 207 690 c 2
 174 692 l 1
 166 693 l 1
 172 723 l 1
 455 723 l 1
 449 693 l 1
 440 692 l 1
 406 690 l 2
 368 687 362 682 352 645 c 2
 339 596 l 1
 245 127 l 2
 238 92 236 77 236 66 c 0
 236 45 245 42 312 42 c 2
 428 42 l 2
 517 42 543 51 551 85 c 2
 562 135 l 1
 565 145 l 1
 616 145 l 1
 587 0 l 1
 27 0 l 1
EndSplineSet
EndChar
StartChar: M
Encoding: 77 77 145
Width: 889
Flags: MW
HStem: 0 20 703 20<168 369 369 369 828 1010 1010 1010>
LayerCount: 2
Fore
SplineSet
23 0 m 1
 29 30 l 1
 39 31 l 1
 72 33 l 2
 114 37 123 49 139 127 c 2
 233 596 l 2
 238 620 241 648 241 663 c 0
 241 681 230 689 203 690 c 2
 170 692 l 1
 162 693 l 1
 168 723 l 1
 369 723 l 1
 494 190 l 1
 828 723 l 1
 1010 723 l 1
 1003 693 l 1
 995 692 l 1
 961 690 l 2
 923 687 917 683 907 645 c 2
 894 596 l 1
 800 127 l 2
 796 105 792 74 792 59 c 0
 792 42 802 35 830 33 c 2
 862 31 l 1
 871 30 l 1
 865 0 l 1
 590 0 l 1
 596 30 l 1
 605 31 l 1
 638 33 l 2
 677 36 682 41 692 78 c 2
 705 127 l 1
 804 623 l 1
 451 58 l 1
 415 58 l 1
 287 601 l 1
 192 127 l 2
 187 100 184 75 184 60 c 0
 184 42 194 35 222 33 c 2
 254 31 l 1
 264 30 l 1
 257 0 l 1
 23 0 l 1
EndSplineSet
EndChar
StartChar: N
Encoding: 78 78 146
Width: 722
Flags: W
HStem: -10 20 0 20 703 20<166 328 328 328 620 845 845 845>
LayerCount: 2
Fore
SplineSet
21 0 m 1x40
 27 30 l 1
 37 31 l 1
 70 33 l 2
 112 37 121 49 137 127 c 2
 231 596 l 2
 236 620 239 648 239 664 c 0
 239 681 228 689 201 690 c 2
 168 692 l 1
 160 693 l 1
 166 723 l 1
 328 723 l 1
 599 162 l 1
 686 596 l 2
 689 615 693 649 693 664 c 0
 693 681 682 689 656 690 c 2
 623 692 l 1
 614 693 l 1
 620 723 l 1
 845 723 l 1
 839 693 l 1
 830 692 l 1
 796 690 l 2
 758 687 753 682 742 645 c 2
 729 596 l 1
 608 -10 l 1
 574 -10 l 1xa0
 276 596 l 1
 183 127 l 2
 179 107 175 74 175 59 c 0
 175 42 185 35 212 33 c 2
 245 31 l 1
 254 30 l 1
 248 0 l 1
 21 0 l 1x40
EndSplineSet
EndChar
StartChar: P
Encoding: 80 80 148
Width: 556
Flags: MW
HStem: 0 20 703 20<160 370 370 370>
VStem: 545 108<550.5 603.5 550.5 622.5>
LayerCount: 2
Fore
SplineSet
15 0 m 1
 21 30 l 1
 30 31 l 1
 64 33 l 2
 106 37 114 49 131 127 c 2
 224 596 l 2
 230 624 233 648 233 664 c 0
 233 681 222 689 195 690 c 2
 162 692 l 1
 154 693 l 1
 160 723 l 1
 370 723 l 1
 442 725 l 1
 475 726 l 1
 483 727 l 2
 532 731 594 709 621 679 c 0
 643 655 653 624 653 583 c 0
 653 518 629 454 585 404 c 0
 525 334 431 301 293 301 c 2
 267 301 l 1
 232 127 l 2
 227 102 224 75 224 59 c 0
 224 42 234 35 262 33 c 2
 294 31 l 1
 315 30 l 1
 309 0 l 1
 15 0 l 1
274 335 m 1
 306 335 l 2
 447 335 545 436 545 583 c 0
 545 662 509 690 411 690 c 2
 345 690 l 1
 274 335 l 1
EndSplineSet
EndChar
StartChar: Q
Encoding: 81 81 149
Width: 722
Flags: W
HStem: -18 33<317.5 369.5> 0 20 709 33<461.5 552.5>
VStem: 101 108<167 289 158 320.5> 661 108<433.5 557.5 409.5 564>
LayerCount: 2
Fore
SplineSet
820 -85 m 1x78
 686 -146 l 1
 610 -122 530 -80 449 -24 c 2
 431 -12 l 1
 407 -16 381 -18 358 -18 c 0xb8
 194 -18 101 80 101 254 c 0
 101 387 142 505 219 599 c 0
 298 694 394 742 509 742 c 0
 675 742 769 644 769 471 c 0
 769 348 730 230 659 134 c 0
 608 66 554 27 477 0 c 1
 545 -44 658 -73 820 -85 c 1x78
501 709 m 0
 422 709 354 660 296 563 c 0
 239 466 209 352 209 226 c 0
 209 90 266 15 369 15 c 0
 447 15 515 64 574 161 c 0
 631 256 661 372 661 495 c 0
 661 633 604 709 501 709 c 0
EndSplineSet
EndChar
StartChar: R
Encoding: 82 82 150
Width: 667
Flags: MW
HStem: 0 20 703 20<160 333 333 333>
VStem: 547 106<529 611 529 623.5>
LayerCount: 2
Fore
SplineSet
15 0 m 1
 21 30 l 1
 30 31 l 1
 64 33 l 2
 106 37 114 49 131 127 c 2
 224 596 l 2
 230 624 233 648 233 664 c 0
 233 681 222 688 195 690 c 2
 162 692 l 1
 154 693 l 1
 160 723 l 1
 333 723 l 1
 381 724 l 1
 422 725 l 1
 462 726 l 1
 470 727 l 2
 507 730 558 719 592 700 c 0
 632 678 653 638 653 584 c 0
 653 474 579 381 458 340 c 1
 558 128 l 1
 591 64 l 2
 605 37 608 35 637 32 c 2
 657 31 l 1
 667 30 l 1
 661 0 l 1
 489 0 l 1
 355 318 l 1
 271 318 l 1
 233 127 l 1
 226 78 l 1
 223 62 l 1
 224 44 245 33 283 31 c 2
 292 30 l 1
 286 0 l 1
 15 0 l 1
278 351 m 1
 314 351 l 2
 459 351 547 439 547 584 c 0
 547 663 513 690 415 690 c 2
 346 690 l 1
 278 351 l 1
EndSplineSet
EndChar
StartChar: T
Encoding: 84 84 152
Width: 611
Flags: MW
HStem: 0 20 684 39<295 391 295 295 493 493 493 590>
LayerCount: 2
Fore
SplineSet
152 0 m 1
 158 30 l 1
 179 31 l 2
 259 33 259 33 279 127 c 2
 391 684 l 1
 295 684 l 1
 244 682 l 2
 208 681 203 676 195 637 c 0
 192 621 190 612 188 607 c 2
 187 601 l 1
 184 591 l 1
 133 591 l 1
 160 723 l 1
 740 723 l 1
 714 591 l 1
 663 591 l 1
 664 601 l 2
 668 628 671 641 673 646 c 0
 675 651 676 654 676 656 c 0
 676 674 645 684 590 684 c 2
 493 684 l 1
 382 127 l 2
 378 104 374 74 374 59 c 0
 374 42 384 35 411 33 c 2
 444 31 l 1
 465 30 l 1
 459 0 l 1
 152 0 l 1
EndSplineSet
EndChar
StartChar: V
Encoding: 86 86 154
Width: 722
Flags: MW
HStem: -9 20 703 20<145 410 410 410 680 867 867 867>
LayerCount: 2
Fore
SplineSet
352 -9 m 1
 214 594 l 1
 198 656 l 2
 191 687 188 690 149 692 c 2
 139 693 l 1
 145 723 l 1
 410 723 l 1
 404 693 l 1
 394 693 l 2
 341 693 314 685 314 670 c 0
 314 663 316 648 321 627 c 2
 328 594 l 1
 432 139 l 1
 710 595 l 2
 736 638 751 668 751 677 c 0
 751 687 742 692 721 692 c 2
 684 693 l 1
 674 693 l 1
 680 723 l 1
 867 723 l 1
 861 693 l 1
 850 692 l 2
 821 690 802 678 785 652 c 2
 751 595 l 1
 385 -9 l 1
 352 -9 l 1
EndSplineSet
EndChar
StartChar: W
Encoding: 87 87 155
Width: 944
Flags: MW
HStem: -9 20 703 20<145 407 407 407 890 1089 1089 1089>
LayerCount: 2
Fore
SplineSet
254 -9 m 1
 211 594 l 2
 209 620 207 641 206 658 c 0
 206 681 197 692 178 692 c 2
 149 692 l 1
 139 693 l 1
 145 723 l 1
 407 723 l 1
 400 693 l 1
 391 693 l 1
 364 692 l 2
 317 691 311 684 311 634 c 0
 311 624 312 610 313 594 c 2
 343 173 l 1
 626 714 l 1
 660 714 l 1
 706 158 l 1
 929 593 l 2
 933 603 937 610 946 630 c 0
 949 638 952 643 957 654 c 2
 960 660 l 2
 961 663 962 665 962 665 c 2
 965 670 966 675 966 678 c 0
 966 687 956 692 930 692 c 2
 893 693 l 1
 884 693 l 1
 890 723 l 1
 1089 723 l 1
 1083 693 l 1
 1074 692 l 1
 1045 691 l 2
 1025 690 1010 680 1000 661 c 2
 965 594 l 1
 659 -9 l 1
 626 -9 l 1
 580 547 l 1
 288 -9 l 1
 254 -9 l 1
EndSplineSet
EndChar
StartChar: X
Encoding: 88 88 156
Width: 722
Flags: MW
HStem: 0 20 703 20<162 447 447 447 667 848 848 848>
LayerCount: 2
Fore
SplineSet
6 0 m 1
 12 30 l 1
 19 31 l 1
 40 32 l 2
 61 34 83 46 106 70 c 2
 161 128 l 1
 381 356 l 1
 267 597 l 1
 239 651 l 2
 221 686 217 690 191 691 c 2
 166 692 l 1
 156 693 l 1
 162 723 l 1
 447 723 l 1
 441 693 l 1
 432 693 l 1
 400 693 l 2
 371 692 358 686 358 675 c 0
 358 669 363 657 374 637 c 0
 375 636 379 627 393 597 c 2
 475 420 l 1
 652 597 l 2
 698 643 722 672 722 682 c 0
 722 689 715 691 694 692 c 2
 670 693 l 1
 661 693 l 1
 667 723 l 1
 848 723 l 1
 842 693 l 1
 831 692 l 2
 789 687 776 680 728 629 c 0
 721 621 703 603 698 597 c 2
 497 398 l 1
 622 128 l 1
 652 67 l 2
 662 44 673 34 687 32 c 2
 713 31 l 1
 722 30 l 1
 716 0 l 1
 439 0 l 1
 445 30 l 1
 454 30 l 1
 484 31 l 2
 516 31 530 38 530 51 c 0
 530 59 526 71 517 88 c 2
 498 127 l 1
 403 330 l 1
 209 128 l 1
 172 88 l 2
 151 67 139 51 139 44 c 0
 139 35 150 31 174 31 c 2
 204 30 l 1
 214 30 l 1
 208 0 l 1
 6 0 l 1
EndSplineSet
EndChar
StartChar: Y
Encoding: 89 89 157
Width: 722
Flags: MW
HStem: 0 20 703 20<145 425 425 425 667 867 867 867>
LayerCount: 2
Fore
SplineSet
217 0 m 1
 222 30 l 1
 232 31 l 1
 265 33 l 2
 308 37 316 49 332 127 c 2
 371 320 l 1
 243 594 l 1
 222 636 l 2
 206 673 193 689 177 691 c 2
 149 692 l 1
 139 693 l 1
 145 723 l 1
 425 723 l 1
 419 693 l 1
 410 693 l 1
 375 692 l 2
 347 691 335 685 335 669 c 0
 335 661 341 642 349 626 c 2
 365 594 l 1
 472 365 l 1
 672 593 l 2
 713 640 735 670 735 679 c 0
 735 688 726 691 699 692 c 2
 670 693 l 1
 661 693 l 1
 667 723 l 1
 867 723 l 1
 861 693 l 1
 851 692 l 1
 829 691 l 2
 807 690 783 675 764 651 c 1
 764 650 l 1
 763 650 761 648 759 645 c 0
 746 630 730 612 714 594 c 2
 473 320 l 1
 434 127 l 2
 429 101 426 75 426 59 c 0
 426 42 436 35 464 33 c 2
 497 31 l 1
 506 30 l 1
 500 0 l 1
 217 0 l 1
EndSplineSet
EndChar
StartChar: bracketleft
Encoding: 91 91 247
Width: 333
Flags: MW
HStem: -145 30<151 258> 741 30<322 436 322 322>
LayerCount: 2
Fore
SplineSet
61 -145 m 1
 244 771 l 1
 441 771 l 1
 436 741 l 1
 322 741 l 1
 151 -115 l 1
 265 -115 l 1
 258 -145 l 1
 61 -145 l 1
EndSplineSet
EndChar
StartChar: backslash
Encoding: 92 92 280
Width: 278
Flags: MW
HStem: 703 20<130 181 181 181>
LayerCount: 2
Fore
SplineSet
264 -144 m 1
 213 -144 l 1
 130 723 l 1
 181 723 l 1
 264 -144 l 1
EndSplineSet
EndChar
StartChar: bracketright
Encoding: 93 93 248
Width: 333
Flags: MW
HStem: -145 30<16 135 22 135 22 213> 741 30<199 306 193 396>
LayerCount: 2
Fore
SplineSet
16 -145 m 1
 22 -115 l 1
 135 -115 l 1
 306 741 l 1
 193 741 l 1
 199 771 l 1
 396 771 l 1
 213 -145 l 1
 16 -145 l 1
EndSplineSet
EndChar
StartChar: asciicircum
Encoding: 94 94 303
Width: 469
Flags: MW
HStem: 703 20<379 379>
LayerCount: 2
Fore
SplineSet
75 289 m 1
 379 723 l 1
 509 289 l 1
 447 289 l 1
 354 598 l 1
 137 289 l 1
 75 289 l 1
EndSplineSet
EndChar
StartChar: underscore
Encoding: 95 95 306
Width: 500
Flags: MW
HStem: -60 60<-12 500 0 488>
LayerCount: 2
Fore
SplineSet
-12 -60 m 1
 0 0 l 1
 500 0 l 1
 488 -60 l 1
 -12 -60 l 1
EndSplineSet
EndChar
StartChar: grave
Encoding: 96 96 285
Width: 333
Flags: W
LayerCount: 2
Fore
SplineSet
413 626 m 1
 368 626 l 1
 201 783 l 1
 327 783 l 1
 413 626 l 1
EndSplineSet
EndChar
StartChar: b
Encoding: 98 98 167
Width: 500
Flags: W
HStem: -12 39<230 280.5 216.5 324.5> 0 20 480 62<379.5 383>
VStem: 427 107<271 402.5>
LayerCount: 2
Fore
SplineSet
58 -6 m 1x50
 188 644 l 1
 197 693 l 1
 199 700 l 2
 200 706 201 711 201 713 c 0
 201 729 185 739 158 740 c 2
 148 741 l 1
 155 771 l 1
 310 771 l 1
 245 443 l 1
 304 513 351 542 408 542 c 0
 492 542 534 487 534 377 c 0
 534 157 407 -12 242 -12 c 0xb0
 218 -12 193 -9 156 0 c 1
 58 -6 l 1x50
238 408 m 1
 163 38 l 1
 189 30 208 27 225 27 c 0
 336 27 427 178 427 364 c 0
 427 441 405 480 361 480 c 0
 329 480 294 459 238 408 c 1
EndSplineSet
EndChar
StartChar: c
Encoding: 99 99 168
Width: 444
Flags: MW
HStem: -12 48<278 297.5> 509 33<351.5 398>
VStem: 82 105<143.5 231 143.5 295>
LayerCount: 2
Fore
SplineSet
429 60 m 1
 420 18 l 1
 365 -2 319 -12 276 -12 c 0
 157 -12 82 70 82 200 c 0
 82 390 216 542 385 542 c 0
 428 542 470 534 520 518 c 1
 495 391 l 1
 435 391 l 1
 436 400 l 2
 439 418 441 440 441 455 c 0
 441 491 419 509 377 509 c 0
 326 509 282 477 244 412 c 0
 207 348 187 271 187 191 c 0
 187 96 238 36 318 36 c 0xe0
 345 36 379 43 429 60 c 1
EndSplineSet
EndChar
StartChar: d
Encoding: 100 100 169
Width: 500
Flags: W
HStem: -12 63<224 228> 0 20 504 38<327 378 283 391>
VStem: 73 107<128.5 260 128.5 263>
LayerCount: 2
Fore
SplineSet
345 0 m 1x70
 363 87 l 1
 304 17 257 -12 199 -12 c 0x90
 115 -12 73 43 73 153 c 0
 73 373 200 542 366 542 c 0
 390 542 418 538 451 530 c 1
 474 644 l 1
 483 693 l 1
 485 700 l 2
 486 706 487 711 487 713 c 0
 487 729 471 739 444 740 c 2
 434 741 l 1
 441 771 l 1
 596 771 l 1
 467 126 l 1
 458 78 l 1
 456 71 l 2
 455 66 454 59 454 58 c 0
 454 42 470 33 498 31 c 2
 507 30 l 1
 501 0 l 1
 345 0 l 1x70
370 121 m 1xb0
 444 492 l 1
 419 500 399 504 383 504 c 0
 271 504 180 353 180 167 c 0
 180 90 202 51 246 51 c 0
 278 51 315 72 370 121 c 1xb0
EndSplineSet
EndChar
StartChar: f
Encoding: 102 102 171
Width: 333
Flags: W
HStem: 0 20 488 42<124 184 116 192> 490 40<289 389> 752 31<367.5 407>
LayerCount: 2
Fore
SplineSet
27 0 m 1xa0
 33 30 l 1
 42 31 l 2
 86 34 92 39 101 78 c 2
 111 127 l 1
 184 488 l 1
 116 488 l 1
 124 530 l 1
 192 530 l 1
 197 555 l 2
 234 728 282 783 396 783 c 0
 439 783 470 772 501 747 c 1
 478 632 l 1
 423 632 l 1
 425 641 l 1
 426 651 l 2
 427 658 429 667 430 676 c 0
 433 692 435 708 435 717 c 0
 435 740 421 752 393 752 c 0
 342 752 329 731 305 614 c 2
 289 530 l 1
 397 530 l 1xd0
 389 490 l 1
 281 490 l 1
 208 127 l 1
 199 78 l 2
 196 65 195 60 195 57 c 0
 195 40 212 32 251 31 c 2
 272 30 l 1
 266 0 l 1
 27 0 l 1xa0
EndSplineSet
EndChar
StartChar: g
Encoding: 103 103 172
Width: 500
Flags: W
HStem: -205 33<174.5 242.5 174.5 255.5> 0 20 167 33<262.5 304 254.5 325> 509 33<304 350.5 277 353.5>
VStem: 8 99<-116.5 -81.5> 124 94<281 344.5 256.5 375> 354 99<-65 -24> 390 94<364.5 415 337 452.5>
LayerCount: 2
Fore
SplineSet
263 84 m 2
 293 84 l 2
 401 84 453 53 453 -11 c 0xf2
 453 -119 332 -205 179 -205 c 0
 76 -205 8 -167 8 -108 c 0
 8 -55 46 -16 132 20 c 1
 103 36 90 53 90 76 c 0
 90 109 123 144 184 179 c 2
 199 187 l 1
 145 217 124 252 124 310 c 0
 124 440 217 542 337 542 c 0
 364 542 387 536 419 522 c 1
 593 536 l 1
 557 477 l 1
 445 498 l 1
 473 462 484 434 484 396 c 0
 484 278 380 167 270 167 c 0
 255 167 243 169 230 176 c 1
 196 152 181 132 181 112 c 0xfd
 181 94 208 84 263 84 c 2
335 509 m 0xf5
 273 509 218 404 218 285 c 0
 218 228 236 200 273 200 c 0
 335 200 390 305 390 424 c 0
 390 481 372 509 335 509 c 0xf5
269 12 m 2xfa
 156 12 l 1
 123 -17 107 -50 107 -92 c 0
 107 -141 145 -172 204 -172 c 0
 281 -172 354 -109 354 -42 c 0
 354 -6 326 12 269 12 c 2xfa
EndSplineSet
EndChar
StartChar: h
Encoding: 104 104 173
Width: 500
Flags: MW
HStem: 0 20 479 63<365.5 463.5>
VStem: 425 99<449.5 453.5>
LayerCount: 2
Fore
SplineSet
18 0 m 1
 24 30 l 1
 34 31 l 2
 77 34 83 39 92 78 c 2
 102 126 l 1
 206 644 l 1
 215 693 l 1
 217 700 l 2
 218 705 219 711 219 714 c 0
 219 729 203 739 175 740 c 2
 166 741 l 1
 172 771 l 1
 328 771 l 1
 262 443 l 1
 326 513 376 542 434 542 c 0
 493 542 524 513 524 459 c 0
 524 440 520 412 513 373 c 2
 463 126 l 1
 455 78 l 2
 452 64 451 60 451 58 c 0
 451 42 467 32 494 31 c 2
 503 30 l 1
 497 0 l 1
 283 0 l 1
 289 30 l 1
 298 31 l 2
 342 34 348 39 356 78 c 2
 367 126 l 1
 414 358 l 1
 420 396 l 2
 423 415 425 432 425 441 c 0
 425 466 412 479 385 479 c 0
 346 479 307 458 256 410 c 1
 199 126 l 1
 190 78 l 2
 190 77 190 75 188 71 c 0
 187 65 186 60 186 57 c 0
 186 42 203 32 229 31 c 2
 239 30 l 1
 233 0 l 1
 18 0 l 1
EndSplineSet
EndChar
StartChar: i
Encoding: 105 105 174
Width: 278
Flags: MW
HStem: 0 20 510 20<129 297 297 297> 627 96<220 336 239 316>
LayerCount: 2
Fore
SplineSet
220 627 m 1
 239 723 l 1
 336 723 l 1
 316 627 l 1
 220 627 l 1
23 0 m 1
 29 30 l 1
 39 31 l 2
 76 33 93 37 97 43 c 0
 102 50 105 59 109 78 c 2
 120 126 l 1
 175 404 l 1
 184 451 l 2
 187 466 188 469 188 472 c 0
 188 487 167 498 132 499 c 2
 123 500 l 1
 129 530 l 1
 297 530 l 1
 216 126 l 1
 207 78 l 2
 204 65 203 61 203 58 c 0
 203 43 224 33 259 31 c 2
 268 30 l 1
 262 0 l 1
 23 0 l 1
EndSplineSet
EndChar
StartChar: j
Encoding: 106 106 175
Width: 278
Flags: MW
HStem: -205 33<16.5 51 16.5 74.5> 510 20<175 330 330 330> 627 96<253 369 273 350>
LayerCount: 2
Fore
SplineSet
-75 -186 m 1
 -51 -67 l 1
 -3 -67 l 1
 -4 -75 l 2
 -8 -98 -10 -119 -10 -133 c 0
 -10 -160 3 -172 30 -172 c 0
 72 -172 100 -143 110 -91 c 2
 120 -40 l 1
 209 404 l 1
 217 451 l 2
 220 465 221 469 221 472 c 0
 221 488 205 498 178 499 c 2
 169 500 l 1
 175 530 l 1
 330 530 l 1
 225 6 l 2
 198 -133 128 -205 21 -205 c 0
 -5 -205 -31 -200 -75 -186 c 1
253 627 m 1
 273 723 l 1
 369 723 l 1
 350 627 l 1
 253 627 l 1
EndSplineSet
EndChar
StartChar: k
Encoding: 107 107 176
Width: 500
Flags: MW
HStem: 0 20 510 20<403 568 568 568>
LayerCount: 2
Fore
SplineSet
15 0 m 1
 21 30 l 1
 30 31 l 2
 74 34 80 39 89 78 c 2
 99 126 l 1
 203 644 l 1
 212 693 l 1
 214 700 l 2
 215 705 216 711 216 714 c 0
 216 729 200 739 172 740 c 2
 163 741 l 1
 169 771 l 1
 325 771 l 1
 227 285 l 1
 250 285 l 1
 367 403 l 1
 414 451 l 1
 439 478 l 2
 445 484 449 490 449 492 c 0
 449 498 444 499 422 499 c 2
 420 499 l 1
 418 500 l 1
 415 500 l 1
 412 500 l 1
 408 500 l 1
 397 500 l 1
 403 530 l 1
 568 530 l 1
 562 500 l 1
 553 499 l 2
 502 495 500 494 460 453 c 2
 416 408 l 1
 326 312 l 1
 420 123 l 2
 461 44 469 34 497 31 c 2
 506 30 l 1
 500 0 l 1
 375 0 l 1
 245 261 l 1
 223 261 l 1
 196 126 l 1
 187 78 l 2
 184 65 183 61 183 57 c 0
 183 42 200 32 226 31 c 2
 236 30 l 1
 229 0 l 1
 15 0 l 1
EndSplineSet
EndChar
StartChar: l
Encoding: 108 108 177
Width: 278
Flags: MW
HStem: 0 20
LayerCount: 2
Fore
SplineSet
23 0 m 1
 29 30 l 1
 39 31 l 2
 76 33 93 37 97 43 c 0
 102 50 105 59 109 78 c 2
 120 126 l 1
 223 645 l 1
 232 693 l 2
 235 706 236 710 236 713 c 0
 236 729 216 738 180 740 c 2
 171 741 l 1
 177 771 l 1
 345 771 l 1
 216 126 l 1
 207 78 l 2
 204 65 203 61 203 58 c 0
 203 43 224 33 259 31 c 2
 268 30 l 1
 262 0 l 1
 23 0 l 1
EndSplineSet
EndChar
StartChar: m
Encoding: 109 109 178
Width: 778
Flags: W
HStem: 0 20 479 63<368 467> 510 20<124 280 280 280>
VStem: 701 99<449.5 453.5>
LayerCount: 2
Fore
SplineSet
18 0 m 1xd0
 24 30 l 1
 33 31 l 2
 77 34 83 39 92 78 c 2
 102 126 l 1
 158 404 l 1
 166 451 l 2
 167 453 167 455 168 459 c 0
 169 465 170 470 170 472 c 0
 170 488 154 498 127 499 c 2
 118 500 l 1
 124 530 l 1
 280 530 l 1xb0
 262 443 l 1
 325 513 376 542 435 542 c 0
 499 542 529 511 532 441 c 1
 595 513 645 542 707 542 c 0
 768 542 800 513 800 459 c 0
 800 440 796 408 789 373 c 2
 740 126 l 1
 731 78 l 2
 728 65 727 61 727 57 c 0
 727 42 744 32 770 31 c 2
 780 30 l 1
 773 0 l 1
 559 0 l 1
 565 30 l 1
 574 31 l 2
 618 34 624 39 633 78 c 2
 643 126 l 1
 690 358 l 1
 696 396 l 2
 699 411 701 432 701 441 c 0
 701 466 687 479 658 479 c 0
 617 479 577 458 526 410 c 1
 469 126 l 1
 460 78 l 2
 457 65 456 60 456 57 c 0
 456 42 473 32 500 31 c 2
 509 30 l 1
 503 0 l 1
 289 0 l 1
 294 30 l 1
 304 31 l 2
 347 34 353 39 362 78 c 2
 373 126 l 1
 419 358 l 1
 426 396 l 2
 429 415 431 432 431 441 c 0
 431 466 417 479 389 479 c 0
 347 479 307 458 255 410 c 1
 199 126 l 1
 190 78 l 2
 187 65 186 61 186 57 c 0
 186 42 203 32 229 31 c 2
 239 30 l 1
 232 0 l 1
 18 0 l 1xd0
EndSplineSet
EndChar
StartChar: p
Encoding: 112 112 181
Width: 500
Flags: W
HStem: -12 39<229 279.5 215.5 323.5> 0 20 480 62<378.5 382> 510 20<106 261 261 261>
VStem: 426 107<271 402.5>
LayerCount: 2
Fore
SplineSet
-39 -193 m 1x48
 -33 -163 l 1
 -24 -162 l 2
 20 -159 26 -154 35 -114 c 2
 45 -66 l 1
 139 404 l 1
 148 451 l 2
 151 465 152 469 152 472 c 0
 152 488 136 498 108 499 c 2
 100 500 l 1
 106 530 l 1
 261 530 l 1x18
 244 443 l 1
 303 513 350 542 407 542 c 0
 491 542 533 487 533 377 c 0
 533 157 406 -12 241 -12 c 0xa8
 217 -12 192 -9 155 0 c 1
 142 -66 l 1
 133 -114 l 2
 130 -127 129 -132 129 -136 c 0
 129 -151 146 -161 172 -162 c 2
 182 -163 l 1
 175 -193 l 1
 -39 -193 l 1x48
237 408 m 1xa8
 163 38 l 1
 188 30 207 27 224 27 c 0
 335 27 426 178 426 364 c 0
 426 441 404 480 360 480 c 0
 328 480 292 459 237 408 c 1xa8
EndSplineSet
EndChar
StartChar: q
Encoding: 113 113 182
Width: 500
Flags: W
HStem: -12 62<224 228> 504 38<327 378 283 391> 510 20<451 548 548 548>
VStem: 73 107<127.5 259 127.5 263>
LayerCount: 2
Fore
SplineSet
248 -193 m 1x30
 254 -163 l 1
 263 -162 l 2
 307 -159 313 -154 322 -114 c 2
 332 -66 l 1
 363 87 l 1
 304 17 257 -12 199 -12 c 0
 115 -12 73 43 73 153 c 0
 73 373 200 542 366 542 c 0xd0
 390 542 418 538 451 530 c 1
 548 530 l 1
 428 -66 l 1
 420 -114 l 1
 418 -122 l 2
 417 -128 416 -133 416 -136 c 0
 416 -151 432 -161 459 -162 c 2
 469 -163 l 1
 462 -193 l 1
 248 -193 l 1x30
370 121 m 1
 444 492 l 1
 419 500 399 504 383 504 c 0
 271 504 180 352 180 166 c 0
 180 89 202 50 246 50 c 0
 278 50 315 71 370 121 c 1
EndSplineSet
EndChar
StartChar: r
Encoding: 114 114 183
Width: 333
Flags: W
HStem: 0 20 510 20<121 277 277 277> 522 20<380.5 411.5>
LayerCount: 2
Fore
SplineSet
15 0 m 1xa0
 21 30 l 1
 30 31 l 2
 74 34 80 39 89 78 c 2
 99 126 l 1
 155 404 l 1
 163 451 l 2
 164 453 164 455 165 459 c 0
 166 465 167 470 167 472 c 0
 167 488 151 498 124 499 c 2
 115 500 l 1
 121 530 l 1
 277 530 l 1xc0
 259 443 l 1
 310 512 355 542 406 542 c 0
 417 542 425 540 434 536 c 1
 406 391 l 1
 360 391 l 1
 361 400 l 1
 361 403 l 2
 362 404 362 405 362 408 c 2
 363 413 l 2
 363 415 364 417 364 417 c 1
 364 421 l 2
 365 424 366 433 366 438 c 0
 366 451 359 458 345 458 c 0
 317 458 288 440 250 397 c 1
 196 126 l 1
 187 78 l 2
 184 65 183 61 183 57 c 0
 183 42 200 32 226 31 c 2
 236 30 l 1
 229 0 l 1
 15 0 l 1xa0
EndSplineSet
EndChar
StartChar: t
Encoding: 116 116 185
Width: 278
Flags: MW
HStem: -12 20 488 42<118 164 109 172 269 370>
VStem: 87 93<53.5 71 53.5 84.5>
LayerCount: 2
Fore
SplineSet
268 42 m 1
 260 3 l 1
 230 -8 210 -12 187 -12 c 0
 121 -12 87 18 87 76 c 0
 87 93 92 128 99 166 c 2
 164 488 l 1
 109 488 l 1
 118 530 l 1
 172 530 l 1
 191 626 l 1
 293 650 l 1
 269 530 l 1
 378 530 l 1
 370 488 l 1
 260 488 l 1
 193 153 l 1
 185 110 l 2
 182 93 180 76 180 66 c 0
 180 41 193 27 218 27 c 0
 232 27 247 31 268 42 c 1
EndSplineSet
EndChar
StartChar: v
Encoding: 118 118 187
Width: 500
Flags: MW
HStem: -6 20 510 20<106 320 320 320 465 606 606 606>
LayerCount: 2
Fore
SplineSet
239 -6 m 1
 156 400 l 2
 140 482 133 496 108 499 c 2
 100 500 l 1
 106 530 l 1
 320 530 l 1
 313 500 l 1
 304 500 l 1
 290 499 l 2
 259 498 247 491 247 473 c 0
 247 466 251 444 261 399 c 2
 315 133 l 1
 468 399 l 1
 487 431 l 1
 506 465 l 2
 510 471 512 478 512 483 c 0
 512 493 501 499 482 499 c 2
 470 500 l 1
 459 500 l 1
 465 530 l 1
 606 530 l 1
 600 500 l 1
 592 499 l 2
 572 498 553 482 536 454 c 2
 503 399 l 1
 269 -6 l 1
 239 -6 l 1
EndSplineSet
EndChar
StartChar: w
Encoding: 119 119 188
Width: 722
Flags: MW
HStem: -6 20 510 20<106 324 324 324 679 828 828 828>
LayerCount: 2
Fore
SplineSet
185 -6 m 1
 155 404 l 2
 148 485 143 495 109 499 c 2
 100 500 l 1
 106 530 l 1
 324 530 l 1
 317 500 l 1
 307 500 l 2
 257 500 251 495 251 449 c 0
 251 441 252 421 253 404 c 2
 272 158 l 1
 475 527 l 1
 507 527 l 1
 564 139 l 1
 695 404 l 1
 709 432 l 1
 725 466 l 2
 730 475 731 478 731 482 c 0
 731 494 721 498 697 499 c 2
 683 500 l 1
 673 500 l 1
 679 530 l 1
 828 530 l 1
 822 500 l 1
 811 499 l 2
 787 498 768 480 749 443 c 2
 728 404 l 1
 520 -6 l 1
 494 -6 l 1
 433 391 l 1
 215 -6 l 1
 185 -6 l 1
EndSplineSet
EndChar
StartChar: x
Encoding: 120 120 189
Width: 500
Flags: MW
HStem: 0 20 510 20<106 346 346 346 433 588 588 588>
LayerCount: 2
Fore
SplineSet
3 0 m 1
 9 30 l 1
 17 31 l 2
 38 32 59 45 80 67 c 2
 132 125 l 1
 250 255 l 1
 188 402 l 2
 166 452 154 477 148 485 c 0
 142 493 128 498 109 499 c 2
 100 500 l 1
 106 530 l 1
 346 530 l 1
 340 500 l 1
 331 500 l 1
 310 499 l 2
 283 497 274 492 274 480 c 0
 274 476 275 471 277 466 c 0
 280 459 284 450 288 439 c 0
 291 430 296 418 302 402 c 2
 342 306 l 1
 419 400 l 1
 452 444 l 2
 472 469 480 482 480 488 c 0
 480 495 473 499 456 499 c 2
 438 500 l 1
 426 500 l 1
 433 530 l 1
 588 530 l 1
 582 500 l 1
 572 499 l 2
 533 495 529 492 456 402 c 2
 355 278 l 1
 419 126 l 2
 452 46 461 35 498 31 c 2
 506 30 l 1
 500 0 l 1
 259 0 l 1
 265 30 l 1
 274 30 l 1
 296 31 l 2
 323 31 335 36 335 47 c 0
 335 51 335 51 327 70 c 2
 325 74 l 2
 318 94 312 111 306 125 c 2
 261 229 l 1
 168 125 l 2
 154 109 138 89 120 64 c 1
 119 63 l 1
 116 61 l 2
 111 55 108 48 108 44 c 0
 108 35 118 31 142 31 c 2
 160 30 l 1
 172 30 l 1
 166 0 l 1
 3 0 l 1
EndSplineSet
EndChar
StartChar: y
Encoding: 121 121 190
Width: 500
Flags: MW
HStem: 0 20 510 20<105 319 319 319 465 605 605 605>
LayerCount: 2
Fore
SplineSet
237 0 m 1
 156 400 l 2
 138 482 132 496 108 499 c 2
 100 500 l 1
 105 530 l 1
 319 530 l 1
 313 500 l 1
 304 500 l 1
 289 499 l 2
 258 498 246 491 246 473 c 0
 246 471 251 446 260 399 c 2
 314 133 l 1
 467 399 l 1
 486 431 l 1
 505 465 l 2
 509 471 511 478 511 483 c 0
 511 493 500 499 482 499 c 2
 469 500 l 1
 459 500 l 1
 465 530 l 1
 605 530 l 1
 600 500 l 1
 591 499 l 2
 571 498 552 482 535 454 c 2
 502 399 l 1
 162 -193 l 1
 40 -193 l 1
 237 0 l 1
EndSplineSet
EndChar
StartChar: braceleft
Encoding: 123 123 269
Width: 480
Flags: MW
VStem: 168 70<-59.5 -46 -74 -9> 243 63<175 256.5>
LayerCount: 2
Fore
SplineSet
132 298 m 1
 138 328 l 1
 176 328 l 2
 249 328 285 374 285 465 c 2
 285 490 l 1
 286 537 l 2
 287 689 361 771 497 771 c 2
 526 771 l 1
 520 741 l 1
 491 741 l 2
 417 741 376 704 376 639 c 2
 376 633 l 1
 378 605 l 1
 377 571 l 2
 376 436 328 355 227 313 c 1
 282 285 306 249 306 193 c 0
 306 157 295 109 274 56 c 2
 261 22 l 1
 251 -1 l 2
 242 -20 238 -38 238 -54 c 0
 238 -94 266 -114 320 -114 c 2
 349 -114 l 1
 343 -145 l 1
 314 -145 l 2
 224 -145 168 -97 168 -22 c 0
 168 4 176 36 196 89 c 2
 215 137 l 1
 224 161 l 2
 235 189 243 219 243 236 c 0
 243 277 218 298 170 298 c 2
 132 298 l 1
EndSplineSet
EndChar
StartChar: bar
Encoding: 124 124 304
Width: 200
Flags: W
LayerCount: 2
Fore
SplineSet
47 -145 m 1
 230 771 l 1
 278 771 l 1
 95 -145 l 1
 47 -145 l 1
EndSplineSet
EndChar
StartChar: braceright
Encoding: 125 125 270
Width: 480
Flags: MW
VStem: 300 62<369.5 452> 368 70<672.5 686 635 701>
LayerCount: 2
Fore
SplineSet
474 328 m 1
 468 298 l 1
 430 298 l 2
 357 298 321 252 321 161 c 2
 321 137 l 1
 320 89 l 2
 319 -63 245 -145 109 -145 c 2
 80 -145 l 1
 86 -114 l 1
 115 -114 l 2
 189 -114 230 -78 230 -12 c 2
 230 -7 l 1
 228 22 l 1
 229 56 l 2
 230 191 278 272 379 313 c 1
 324 341 300 378 300 434 c 0
 300 470 311 516 332 571 c 2
 345 605 l 1
 355 628 l 2
 364 647 368 664 368 681 c 0
 368 721 341 741 287 741 c 2
 257 741 l 1
 263 771 l 1
 292 771 l 2
 382 771 438 724 438 648 c 0
 438 622 430 590 410 537 c 2
 392 490 l 1
 382 465 l 2
 369 434 362 407 362 390 c 0
 362 349 387 328 436 328 c 2
 474 328 l 1
EndSplineSet
EndChar
StartChar: asciitilde
Encoding: 126 126 307
Width: 541
Flags: MW
HStem: 205 50<435 449.5> 323 50<208 222>
LayerCount: 2
Fore
SplineSet
103 217 m 1
 73 217 l 1
 86 263 95 286 113 310 c 0
 141 351 183 373 233 373 c 0
 275 373 310 356 348 316 c 2
 364 300 l 2
 394 268 420 255 450 255 c 0
 502 255 534 288 553 361 c 1
 584 361 l 1
 571 316 562 293 544 268 c 0
 516 227 474 205 425 205 c 0
 383 205 347 222 309 262 c 2
 293 278 l 2
 262 310 237 323 207 323 c 0
 155 323 123 290 103 217 c 1
EndSplineSet
EndChar
StartChar: cent
Encoding: 162 162 215
Width: 500
Flags: MW
HStem: 0 20 703 20<438 468 468 468>
VStem: 128 99<242.5 315 242.5 349.5>
LayerCount: 2
Fore
SplineSet
294 0 m 1
 311 86 l 1
 192 99 128 174 128 299 c 0
 128 400 169 496 240 561 c 0
 287 604 340 626 421 639 c 1
 438 723 l 1
 468 723 l 1
 452 641 l 1
 504 637 550 627 593 612 c 1
 569 488 l 1
 515 488 l 1
 516 497 l 2
 516 498 517 504 518 510 c 2
 519 520 l 2
 520 526 521 531 522 535 c 0
 523 542 525 552 525 557 c 0
 525 586 501 601 445 607 c 1
 350 133 l 1
 375 132 l 2
 404 132 444 141 503 162 c 1
 494 114 l 1
 446 97 395 87 340 84 c 1
 324 0 l 1
 294 0 l 1
321 137 m 1
 415 607 l 1
 353 592 314 559 281 492 c 0
 248 429 227 346 227 284 c 0
 227 201 255 157 321 137 c 1
EndSplineSet
EndChar
StartChar: sterling
Encoding: 163 163 213
Width: 500
Flags: MW
HStem: 0 72<36 51 51 51 112 452> 362 30<132 211 126 217 313 422> 705 30<431 486.5>
LayerCount: 2
Fore
SplineSet
36 0 m 1
 51 72 l 1
 137 95 165 134 192 267 c 2
 211 362 l 1
 126 362 l 1
 132 392 l 1
 217 392 l 1
 239 500 l 2
 271 657 346 735 468 735 c 0
 512 735 549 725 592 701 c 1
 571 597 l 1
 523 597 l 1
 524 606 l 1
 529 642 l 2
 530 650 531 655 531 660 c 0
 531 690 508 705 465 705 c 0
 397 705 369 670 346 556 c 2
 313 392 l 1
 428 392 l 1
 422 362 l 1
 307 362 l 1
 292 287 l 2
 273 195 214 124 112 72 c 1
 466 72 l 1
 452 0 l 1
 36 0 l 1
EndSplineSet
EndChar
StartChar: currency
Encoding: 164 164 266
Width: 500
Flags: MW
HStem: 235 48<280.5 313.5> 494 48<342 374.5 342 378>
VStem: 171 49<346.5 380.5> 435 49<396.5 430.5 396.5 437.5>
LayerCount: 2
Fore
SplineSet
211 266 m 1
 134 202 l 1
 110 232 l 1
 187 296 l 1
 176 317 171 335 171 358 c 0
 171 403 187 441 224 481 c 1
 173 545 l 1
 209 575 l 1
 260 511 l 1
 296 533 326 542 358 542 c 0
 391 542 417 533 444 511 c 1
 521 575 l 1
 545 545 l 1
 468 481 l 1
 479 461 484 442 484 419 c 0
 484 374 468 335 432 296 c 1
 483 232 l 1
 447 202 l 1
 396 266 l 1
 361 245 330 235 297 235 c 0
 264 235 238 245 211 266 c 1
350 494 m 0
 280 494 220 435 220 367 c 0
 220 312 250 283 306 283 c 0
 375 283 435 342 435 410 c 0
 435 465 406 494 350 494 c 0
EndSplineSet
EndChar
StartChar: yen
Encoding: 165 165 218
Width: 500
Flags: MW
HStem: 0 20 193 30<96 241 90 247 343 488> 325 30<123 267 117 273 370 514> 703 20<145 390 390 390 469 645 645 645>
LayerCount: 2
Fore
SplineSet
112 0 m 1
 118 30 l 1
 127 31 l 1
 161 33 l 2
 203 37 211 49 228 127 c 2
 241 193 l 1
 90 193 l 1
 96 223 l 1
 247 223 l 1
 267 325 l 1
 117 325 l 1
 123 355 l 1
 273 355 l 1
 223 577 l 2
 202 666 186 688 139 692 c 1
 145 723 l 1
 390 723 l 1
 384 693 l 1
 358 693 l 2
 329 692 317 683 317 662 c 0
 317 655 319 643 321 631 c 2
 363 417 l 1
 504 641 l 2
 513 655 520 673 520 681 c 0
 520 688 512 693 498 693 c 2
 489 693 l 2
 487 692 486 692 485 692 c 2
 480 692 l 1
 464 693 l 1
 469 723 l 1
 645 723 l 1
 639 692 l 1
 584 686 571 675 508 576 c 2
 370 355 l 1
 520 355 l 1
 514 325 l 1
 364 325 l 1
 343 223 l 1
 494 223 l 1
 488 193 l 1
 337 193 l 1
 324 127 l 2
 320 105 316 75 316 59 c 0
 316 42 326 35 354 33 c 2
 386 31 l 1
 395 30 l 1
 389 0 l 1
 112 0 l 1
EndSplineSet
EndChar
StartChar: brokenbar
Encoding: 166 166 305
Width: 200
Flags: W
LayerCount: 2
Fore
SplineSet
47 -145 m 1
 119 217 l 1
 167 217 l 1
 95 -145 l 1
 47 -145 l 1
158 410 m 1
 230 771 l 1
 278 771 l 1
 206 410 l 1
 158 410 l 1
EndSplineSet
EndChar
StartChar: section
Encoding: 167 167 250
Width: 500
Flags: W
HStem: -156 30<184.5 264.5> 711 30<380 439.5>
VStem: 97 90<285 294.5> 153 91<550.5 556> 385 91<-18 27.5> 440 81<285 287.5>
LayerCount: 2
Fore
SplineSet
12 -126 m 1xc8
 33 -18 l 1
 82 -18 l 1
 80 -27 l 1
 77 -50 l 2
 76 -58 76 -64 76 -67 c 0
 77 -96 150 -126 219 -126 c 0
 310 -126 385 -65 385 9 c 0
 385 46 369 61 291 97 c 2
 243 119 l 2
 145 164 97 212 97 265 c 0xe8
 97 324 133 377 213 434 c 1
 171 460 153 490 153 533 c 0
 153 579 175 626 216 667 c 0
 266 717 334 741 426 741 c 0
 483 741 532 733 589 714 c 1
 567 603 l 1
 519 603 l 1
 520 612 l 1
 525 641 l 2
 526 649 526 651 526 657 c 0
 526 685 470 711 409 711 c 0
 319 711 244 646 244 568 c 0
 244 533 270 506 325 481 c 2
 373 459 l 2
 492 406 521 378 521 316 c 0xd4
 521 254 488 202 411 142 c 1
 458 112 476 83 476 39 c 0
 476 -75 364 -156 207 -156 c 0
 145 -156 85 -147 12 -126 c 1xc8
326 190 m 2
 388 161 l 1
 423 201 440 237 440 274 c 0xc4
 440 301 422 324 387 341 c 2
 294 387 l 1
 232 416 l 1
 201 375 187 341 187 306 c 0
 187 264 213 242 326 190 c 2
EndSplineSet
EndChar
StartChar: dieresis
Encoding: 168 168 281
Width: 333
Flags: MW
HStem: 627 84<153 254 170 237 362 430>
LayerCount: 2
Fore
SplineSet
153 627 m 1
 170 711 l 1
 254 711 l 1
 237 627 l 1x80
 153 627 l 1
345 627 m 1
 362 711 l 1
 447 711 l 1
 430 627 l 1
 345 627 l 1
EndSplineSet
EndChar
StartChar: copyright
Encoding: 169 169 295
Width: 760
Flags: MW
HStem: 24 30<319.5 436 319.5 439> 152 33<410 447.5> 543 27<480 526.5 431 528.5> 669 30<471 591>
VStem: 112 30<229.5 348> 249 86<260.5 331.5 260.5 387.5> 769 31<375.5 494>
LayerCount: 2
Fore
SplineSet
524 699 m 0
 685 699 800 585 800 427 c 0
 800 324 757 229 673 147 c 0
 589 65 493 24 385 24 c 0
 226 24 112 138 112 296 c 0
 112 400 155 495 238 576 c 0
 322 658 418 699 524 699 c 0
518 669 m 0
 421 669 333 631 257 557 c 0
 181 483 142 397 142 302 c 0
 142 157 246 54 393 54 c 0
 479 54 560 85 629 144 c 0
 721 222 769 317 769 422 c 0
 769 566 664 669 518 669 c 0
570 216 m 1
 562 177 l 1
 514 160 472 152 423 152 c 0
 307 152 249 204 249 311 c 0
 249 464 355 570 507 570 c 0
 546 570 586 564 630 552 c 1
 614 470 l 1
 574 470 l 1
 575 475 l 1
 577 491 l 2
 578 498 579 502 579 505 c 0
 579 529 552 543 505 543 c 0
 455 543 416 520 383 471 c 0
 352 425 335 364 335 299 c 0
 335 222 372 185 448 185 c 0
 483 185 519 194 570 216 c 1
EndSplineSet
EndChar
StartChar: ordfeminine
Encoding: 170 170 271
Width: 276
Flags: MW
HStem: 716 25<262.5 283.5>
VStem: 109 74<469 507.5 469 513> 310 66<674 692>
LayerCount: 2
Fore
SplineSet
364 451 m 1
 359 423 l 1
 340 411 324 406 309 406 c 0
 284 406 271 420 268 452 c 1
 233 419 207 406 176 406 c 0
 132 406 109 429 109 472 c 0
 109 554 166 597 275 597 c 2
 297 597 l 1
 303 627 l 2
 308 648 310 668 310 680 c 0
 310 704 297 716 270 716 c 0
 238 716 220 699 212 662 c 2
 210 654 l 1
 160 654 l 1
 172 714 l 1
 209 733 243 741 282 741 c 0
 345 741 376 720 376 678 c 0
 376 667 373 644 370 627 c 2
 344 500 l 2
 341 484 339 470 339 465 c 0
 339 454 344 449 354 449 c 0
 357 449 360 449 364 451 c 1
275 483 m 1
 292 572 l 1
 274 572 l 2
 220 572 183 535 183 480 c 0
 183 458 193 447 211 447 c 0
 229 447 248 458 275 483 c 1
EndSplineSet
EndChar
StartChar: guillemotleft
Encoding: 171 171 237
Width: 500
Flags: W
LayerCount: 2
Fore
SplineSet
358 457 m 1
 186 265 l 1
 281 74 l 1
 253 54 l 1
 89 265 l 1
 338 476 l 1
 358 457 l 1
549 457 m 1
 377 265 l 1
 472 74 l 1
 444 54 l 1
 280 265 l 1
 528 476 l 1
 549 457 l 1
EndSplineSet
EndChar
StartChar: logicalnot
Encoding: 172 172 302
Width: 564
Flags: MW
HStem: 338 48<118 518 108 576 566 566>
LayerCount: 2
Fore
SplineSet
479 145 m 1
 518 338 l 1
 108 338 l 1
 118 386 l 1
 576 386 l 1
 566 338 l 1
 527 145 l 1
 479 145 l 1
EndSplineSet
EndChar
StartChar: sfthyphen
Encoding: 173 173 242
Width: 333
Flags: MW
HStem: 265 60<93 358 105 346>
LayerCount: 2
Fore
SplineSet
93 265 m 1
 105 325 l 1
 358 325 l 1
 346 265 l 1
 93 265 l 1
EndSplineSet
EndChar
StartChar: registered
Encoding: 174 174 296
Width: 760
Flags: MW
HStem: 24 30<319.5 436 319.5 439> 669 30<471 591>
VStem: 112 30<229.5 348> 541 84<451 494.5> 769 31<375.5 494>
LayerCount: 2
Fore
SplineSet
524 699 m 0
 685 699 800 585 800 427 c 0
 800 324 757 229 673 147 c 0
 589 65 493 24 385 24 c 0
 226 24 112 138 112 296 c 0
 112 400 155 495 238 576 c 0
 322 658 418 699 524 699 c 0
518 669 m 0
 421 669 333 631 257 557 c 0
 181 483 142 397 142 302 c 0
 142 157 246 54 393 54 c 0
 479 54 560 85 629 144 c 0
 721 222 769 317 769 422 c 0
 769 566 664 669 518 669 c 0
408 334 m 1
 389 238 l 1
 384 211 l 1
 383 200 l 2
 383 190 393 185 411 185 c 1
 406 160 l 1
 258 160 l 1
 262 185 l 1
 277 186 l 2
 290 188 298 196 302 211 c 2
 309 238 l 1
 358 479 l 1
 362 506 l 1
 363 516 l 2
 362 527 352 532 332 532 c 1
 337 557 l 1
 446 557 l 1
 471 557 l 1
 495 558 l 1
 519 559 l 1
 523 559 l 2
 590 559 625 531 625 480 c 0
 625 422 586 370 524 345 c 1
 579 237 l 1
 595 210 l 2
 602 196 609 190 616 188 c 1
 611 160 l 1
 517 160 l 1
 442 334 l 1
 408 334 l 1
413 360 m 1
 428 360 l 2
 492 360 541 410 541 476 c 0
 541 513 520 531 477 531 c 2
 447 531 l 1
 413 360 l 1
EndSplineSet
EndChar
StartChar: macron
Encoding: 349 175 293
Width: 333
Flags: MW
HStem: 627 60<135 460 147 448>
LayerCount: 2
Fore
SplineSet
135 627 m 1
 147 687 l 1
 460 687 l 1
 448 627 l 1x80
 135 627 l 1
EndSplineSet
EndChar
StartChar: degree
Encoding: 176 176 258
Width: 400
Flags: MW
HStem: 452 42<277 334 277 338.5> 700 42<310.5 367.5>
VStem: 175 43<553 609 553 614.5> 427 43<585 641>
LayerCount: 2
Fore
SplineSet
352 742 m 0
 421 742 470 693 470 625 c 0
 470 535 385 452 292 452 c 0
 224 452 175 501 175 569 c 0
 175 660 259 742 352 742 c 0
343 700 m 0
 278 700 218 641 218 577 c 0
 218 529 253 494 301 494 c 0
 367 494 427 553 427 617 c 0
 427 665 392 700 343 700 c 0
EndSplineSet
EndChar
StartChar: plusminus
Encoding: 177 177 273
Width: 564
Flags: MW
HStem: 0 48<41 533 51 523> 338 48<118 325 108 335 118 374 383 590>
LayerCount: 2
Fore
SplineSet
41 0 m 1
 51 48 l 1
 533 48 l 1
 523 0 l 1
 41 0 l 1
287 145 m 1
 325 338 l 1
 108 338 l 1
 118 386 l 1
 335 386 l 1
 374 578 l 1
 422 578 l 1
 383 386 l 1
 600 386 l 1
 590 338 l 1
 374 338 l 1
 335 145 l 1
 287 145 l 1
EndSplineSet
EndChar
StartChar: twosuperior
Encoding: 178 178 220
Width: 300
Flags: MW
HStem: 371 51<181 344> 722 20<284.5 302>
VStem: 338 64<642.5 684>
LayerCount: 2
Fore
SplineSet
116 371 m 1
 121 395 l 1
 142 433 174 469 216 501 c 2
 240 520 l 2
 305 570 338 619 338 666 c 0
 338 702 319 722 285 722 c 0
 264 722 245 715 219 698 c 1
 210 654 l 1
 181 654 l 1
 195 720 l 1
 236 736 267 742 302 742 c 0
 368 742 402 715 402 664 c 0
 402 613 373 578 289 528 c 1
 286 526 l 1
 258 508 l 2
 215 481 190 453 181 422 c 1
 354 422 l 1
 344 371 l 1
 116 371 l 1
EndSplineSet
EndChar
StartChar: threesuperior
Encoding: 179 179 221
Width: 300
Flags: W
HStem: 362 18<190.5 232 190.5 250.5> 723 19<271 292>
VStem: 298 63<458 508 450.5 509> 326 61<647 689>
LayerCount: 2
Fore
SplineSet
117 374 m 1xe0
 130 440 l 1
 159 440 l 1
 158 435 l 1
 158 435 158 433 157 430 c 2
 156 418 l 2
 155 416 155 413 155 409 c 0
 154 391 174 380 207 380 c 0
 257 380 298 429 298 487 c 0xe0
 298 531 270 554 213 554 c 2
 186 554 l 1
 190 573 l 1
 208 573 l 2
 286 573 326 606 326 671 c 0
 326 707 310 723 274 723 c 0
 240 723 220 712 214 691 c 2
 208 669 l 1
 207 665 l 1
 178 665 l 1
 190 726 l 1
 226 737 255 742 287 742 c 0
 354 742 387 719 387 672 c 0xd0
 387 622 356 588 288 566 c 1
 339 552 361 529 361 487 c 0
 361 414 296 362 205 362 c 0
 172 362 145 366 117 374 c 1xe0
EndSplineSet
EndChar
StartChar: acute
Encoding: 180 180 284
Width: 333
Flags: W
LayerCount: 2
Fore
SplineSet
170 626 m 1
 318 783 l 1
 445 783 l 1
 215 626 l 1
 170 626 l 1
EndSplineSet
EndChar
StartChar: mu
Encoding: 181 181 308
Width: 500
Flags: W
HStem: -12 63<177 243> 0 20 510 20<112 267 267 267 376 532 532 532>
LayerCount: 2
Fore
SplineSet
159 -11 m 1x80
 132 -145 l 1
 36 -145 l 1
 96 157 l 1
 146 404 l 1
 154 451 l 1
 157 461 l 2
 158 465 159 470 159 472 c 0
 159 488 143 498 115 499 c 2
 106 500 l 1
 112 530 l 1
 267 530 l 1
 196 172 l 1
 189 134 l 2
 185 109 184 99 184 89 c 0
 184 64 197 51 223 51 c 0xa0
 263 51 302 72 353 120 c 1
 410 404 l 1
 419 451 l 1
 421 459 l 2
 422 464 423 470 423 472 c 0
 423 488 407 498 379 499 c 2
 370 500 l 1
 376 530 l 1
 532 530 l 1
 451 126 l 1
 442 78 l 1
 440 71 l 2
 439 65 438 59 438 57 c 0
 438 42 454 32 482 31 c 2
 491 30 l 1
 485 0 l 1
 329 0 l 1x60
 347 87 l 1
 284 17 233 -12 177 -12 c 2
 159 -11 l 1x80
EndSplineSet
EndChar
StartChar: paragraph
Encoding: 182 182 265
Width: 453
Flags: W
HStem: 675 48<465 493> 706 20<323 357 357 357>
LayerCount: 2
Fore
SplineSet
209 -144 m 1x80
 310 362 l 1
 187 363 117 422 117 523 c 0
 117 593 142 650 190 686 c 0
 211 702 243 717 267 721 c 0
 271 722 271 722 301 724 c 0
 313 725 320 726 323 726 c 2
 357 726 l 1x40
 408 724 l 1
 465 723 l 1
 539 723 l 1
 365 -144 l 1
 329 -144 l 1
 493 675 l 1
 409 675 l 1
 245 -144 l 1
 209 -144 l 1x80
EndSplineSet
EndChar
StartChar: periodcentered
Encoding: 340 183 224
Width: 250
Flags: MW
HStem: 239 121<113 258 137 234>
LayerCount: 2
Fore
SplineSet
113 239 m 1
 137 360 l 1
 258 360 l 1
 234 239 l 1
 113 239 l 1
EndSplineSet
EndChar
StartChar: cedilla
Encoding: 184 184 291
Width: 333
Flags: MW
HStem: -211 36<99 116 89.5 141> 0 20
VStem: 158 69<-141.5 -112>
LayerCount: 2
Fore
SplineSet
42 -201 m 1
 48 -167 l 1
 68 -173 83 -175 96 -175 c 0
 136 -175 158 -157 158 -126 c 0
 158 -98 134 -87 75 -85 c 1
 139 0 l 1
 177 0 l 1
 134 -58 l 1
 199 -64 227 -82 227 -119 c 0
 227 -168 172 -211 110 -211 c 0xe0
 88 -211 66 -208 42 -201 c 1
EndSplineSet
EndChar
StartChar: onesuperior
Encoding: 185 185 219
Width: 300
Flags: MW
HStem: 721 20<341 341>
LayerCount: 2
Fore
SplineSet
142 377 m 1
 146 396 l 1
 163 396 l 1
 185 398 l 2
 210 400 214 406 222 444 c 2
 264 656 l 1
 268 681 l 1
 269 691 l 2
 268 696 263 698 255 698 c 0
 252 698 236 696 226 694 c 2
 205 690 l 1
 209 710 l 1
 341 741 l 1
 282 444 l 2
 280 432 278 418 278 411 c 0
 278 402 284 399 301 398 c 2
 322 396 l 1
 339 396 l 1
 335 377 l 1
 142 377 l 1
EndSplineSet
EndChar
StartChar: ordmasculine
Encoding: 186 186 272
Width: 310
Flags: MW
HStem: 405 26<230 271 230 287> 716 25<274.5 315.5>
VStem: 124 74<487.5 560.5 482 588> 345 74<587 658 557 665>
LayerCount: 2
Fore
SplineSet
305 741 m 0
 381 741 419 699 419 617 c 0
 419 497 339 405 235 405 c 0
 162 405 124 447 124 528 c 0
 124 648 203 741 305 741 c 0
301 716 m 0
 248 716 198 614 198 507 c 0
 198 457 214 431 246 431 c 0
 296 431 345 534 345 640 c 0
 345 690 330 716 301 716 c 0
EndSplineSet
EndChar
StartChar: guillemotright
Encoding: 187 187 236
Width: 500
Flags: W
LayerCount: 2
Fore
SplineSet
248 73 m 1
 420 265 l 1
 325 456 l 1
 353 476 l 1
 517 265 l 1
 268 54 l 1
 248 73 l 1
57 73 m 1
 229 265 l 1
 134 456 l 1
 162 476 l 1
 326 265 l 1
 78 54 l 1
 57 73 l 1
EndSplineSet
EndChar
StartChar: onequarter
Encoding: 188 188 275
Width: 750
Flags: W
HStem: -18 20 0 20 100 43<457 585 417 594 649 686> 721 20<359 359 764 806 806 806>
LayerCount: 2
Fore
SplineSet
81 -18 m 1x90
 764 741 l 1
 806 741 l 1
 123 -18 l 1
 81 -18 l 1x90
520 0 m 1x70
 524 19 l 1
 529 19 l 2
 561 19 568 23 573 43 c 2
 579 67 l 1
 585 100 l 1
 417 100 l 1
 423 132 l 1
 650 366 l 1
 694 366 l 1
 649 143 l 1
 694 143 l 1
 686 100 l 1
 641 100 l 1
 634 67 l 2
 632 55 630 39 630 32 c 0
 630 24 634 22 647 21 c 2
 662 19 l 1
 666 19 l 1
 663 0 l 1
 520 0 l 1x70
457 143 m 1
 594 143 l 1
 630 321 l 1
 457 143 l 1
160 377 m 1
 164 396 l 1
 180 396 l 1
 203 398 l 2
 227 400 232 405 239 444 c 2
 282 657 l 1
 286 681 l 1
 287 691 l 2
 286 696 281 698 273 698 c 0
 269 698 253 696 244 694 c 2
 223 690 l 1
 227 710 l 1
 359 741 l 1
 300 444 l 2
 298 435 296 418 296 411 c 0
 296 402 302 399 318 398 c 2
 340 396 l 1
 356 396 l 1
 352 377 l 1
 160 377 l 1
EndSplineSet
EndChar
StartChar: onehalf
Encoding: 189 189 274
Width: 750
Flags: W
HStem: -18 20 0 51<513 677> 350 20<616.5 633.5> 721 20<359 359 764 806 806 806>
VStem: 670 64<271 312>
LayerCount: 2
Fore
SplineSet
81 -18 m 1x98
 764 741 l 1
 806 741 l 1
 123 -18 l 1
 81 -18 l 1x98
160 377 m 1
 164 396 l 1
 180 396 l 1
 203 398 l 2
 227 400 232 405 239 444 c 2
 282 657 l 1
 286 681 l 1
 287 691 l 2
 286 696 281 698 273 698 c 0
 269 698 253 696 244 694 c 2
 223 690 l 1
 227 710 l 1
 359 741 l 1
 300 444 l 2
 298 435 296 418 296 411 c 0
 296 402 302 399 318 398 c 2
 340 396 l 1
 356 396 l 1
 352 377 l 1
 160 377 l 1
448 0 m 1x68
 453 24 l 1
 474 62 506 97 548 130 c 2
 572 149 l 2
 637 199 670 248 670 294 c 0
 670 330 651 350 616 350 c 0
 597 350 577 343 551 326 c 1
 542 282 l 1
 514 282 l 1
 527 349 l 1
 568 364 599 370 634 370 c 0
 700 370 734 343 734 293 c 0
 734 249 704 207 649 174 c 2
 618 155 l 1
 590 137 l 2
 548 110 523 82 513 51 c 1
 687 51 l 1
 677 0 l 1
 448 0 l 1x68
EndSplineSet
EndChar
StartChar: threequarters
Encoding: 190 190 276
Width: 750
Flags: W
HStem: -18 20 0 20 100 43<457 585 417 594 649 686> 362 19<232.5 274 232.5 292.5> 723 19<313 334>
VStem: 340 63<458 508 450.5 509.5> 368 61<647 689>
LayerCount: 2
Fore
SplineSet
81 -18 m 1x84
 764 741 l 1
 806 741 l 1
 123 -18 l 1
 81 -18 l 1x84
520 0 m 1x7c
 524 19 l 1
 529 19 l 2
 560 19 567 23 573 43 c 2
 579 67 l 1
 585 100 l 1
 417 100 l 1
 423 132 l 1
 650 366 l 1
 694 366 l 1
 649 143 l 1
 694 143 l 1
 686 100 l 1
 641 100 l 1
 634 67 l 2
 632 55 630 39 630 32 c 0
 630 24 634 22 647 21 c 2
 662 19 l 1
 666 19 l 1
 663 0 l 1
 520 0 l 1x7c
457 143 m 1
 594 143 l 1
 630 321 l 1
 457 143 l 1
159 374 m 1
 172 440 l 1
 201 440 l 1
 200 435 l 1
 200 435 200 433 199 430 c 0
 199 427 199 424 198 419 c 0
 197 417 197 416 197 414 c 2
 197 412 l 1
 197 410 l 2
 197 392 216 381 249 381 c 0
 299 381 340 429 340 487 c 0x7c
 340 532 312 554 255 554 c 2
 228 554 l 1
 232 573 l 1
 250 573 l 2
 328 573 368 606 368 671 c 0
 368 707 352 723 316 723 c 0
 283 723 262 712 256 691 c 2
 250 669 l 1
 249 665 l 1
 220 665 l 1
 232 726 l 1
 268 737 297 742 329 742 c 0
 396 742 429 719 429 672 c 0x7a
 429 622 398 588 331 566 c 1
 381 552 403 529 403 487 c 0
 403 414 338 362 247 362 c 0
 214 362 187 366 159 374 c 1
EndSplineSet
EndChar
StartChar: questiondown
Encoding: 191 191 235
Width: 444
Flags: MW
HStem: -18 30<228.5 266.5> 510 20<322 418 418 418> 627 96<360 437 341 456>
VStem: 54 103<77 144.5>
LayerCount: 2
Fore
SplineSet
456 723 m 1
 437 627 l 1
 341 627 l 1
 360 723 l 1
 456 723 l 1
418 530 m 1
 416 521 l 2
 402 454 368 398 313 352 c 2
 289 333 l 2
 204 264 157 185 157 110 c 0
 157 44 193 12 264 12 c 0
 331 12 373 38 385 86 c 2
 398 138 l 1
 401 148 l 1
 449 148 l 1
 422 15 l 1
 352 -8 295 -18 238 -18 c 0
 124 -18 54 32 54 112 c 0
 54 177 98 237 191 299 c 0
 207 310 219 318 227 325 c 2
 248 342 l 2
 277 364 296 403 308 463 c 2
 322 530 l 1
 418 530 l 1
EndSplineSet
EndChar
StartChar: Adieresis
Encoding: 196 196 0
Width: 722
Flags: MW
HStem: 0 20 222 40<216 517 240 517 240 526> 784 84<380 481 396 464 589 657>
LayerCount: 2
Fore
SplineSet
216 222 m 1
 155 126 l 2
 146 111 143 106 140 100 c 2
 122 66 l 2
 117 57 115 50 115 46 c 0
 115 36 129 30 157 30 c 2
 165 30 l 1
 159 0 l 1
 0 0 l 1
 6 30 l 1
 17 31 l 2
 53 33 59 37 83 75 c 2
 116 126 l 1
 491 732 l 1
 525 732 l 1
 657 123 l 1
 671 73 l 2
 679 45 694 32 717 31 c 2
 728 30 l 1
 722 0 l 1
 483 0 l 1
 489 30 l 1
 499 30 l 2
 543 30 553 37 553 68 c 0
 553 87 551 112 547 126 c 2
 526 222 l 1
 216 222 l 1
240 262 m 1
 517 262 l 1
 445 592 l 1
 240 262 l 1
380 784 m 1
 396 868 l 1
 481 868 l 1
 464 784 l 1
 380 784 l 1
573 784 m 1
 589 868 l 1
 674 868 l 1
 657 784 l 1
 573 784 l 1
EndSplineSet
EndChar
StartChar: Aring
Encoding: 197 197 6
Width: 722
Flags: MW
HStem: 0 20 222 40<216 517 240 517 240 526> 723 33<491.5 537.5 491.5 541.5> 912 33<519.5 565.5>
VStem: 415 34<797.5 843 797.5 847> 608 34<825 870.5>
LayerCount: 2
Fore
SplineSet
216 222 m 1
 155 126 l 2
 146 111 143 106 140 100 c 2
 122 66 l 2
 117 57 115 50 115 46 c 0
 115 36 129 30 157 30 c 2
 165 30 l 1
 159 0 l 1
 0 0 l 1
 6 30 l 1
 17 31 l 2
 53 33 59 37 83 75 c 2
 116 126 l 1
 491 732 l 1
 525 732 l 1
 657 123 l 1
 671 73 l 2
 679 45 694 32 717 31 c 2
 728 30 l 1
 722 0 l 1
 483 0 l 1
 489 30 l 1
 499 30 l 2
 543 30 553 37 553 68 c 0
 553 87 551 112 547 126 c 2
 526 222 l 1
 216 222 l 1
240 262 m 1
 517 262 l 1
 445 592 l 1
 240 262 l 1
551 945 m 0
 605 945 642 908 642 856 c 0
 642 786 577 723 506 723 c 0
 453 723 415 760 415 812 c 0
 415 882 479 945 551 945 c 0
545 912 m 0
 494 912 449 868 449 818 c 0
 449 777 471 756 512 756 c 0
 563 756 608 800 608 850 c 0
 608 891 586 912 545 912 c 0
EndSplineSet
EndChar
StartChar: AE
Encoding: 198 198 159
Width: 889
Flags: MW
HStem: 0 20 222 40<274 504 241 512> 356 39<641 745 633 752> 684 39<699 831 699 699>
LayerCount: 2
Fore
SplineSet
0 0 m 1
 6 30 l 1
 14 31 l 2
 35 32 55 46 77 74 c 2
 120 126 l 1
 603 723 l 1
 982 723 l 1
 957 597 l 1
 903 597 l 1
 904 606 l 1
 910 647 l 1
 914 665 l 1
 910 678 883 684 831 684 c 2
 699 684 l 1
 641 395 l 1
 752 395 l 1
 783 396 l 2
 812 397 816 400 822 424 c 1
 823 426 l 2
 824 430 826 439 828 446 c 2
 831 455 l 1
 875 455 l 1
 844 295 l 1
 799 295 l 1
 800 304 l 1
 801 315 l 2
 802 323 803 334 803 337 c 0
 803 347 796 352 779 354 c 2
 745 356 l 1
 633 356 l 1
 587 126 l 2
 583 104 581 89 581 75 c 0
 581 47 593 42 653 42 c 2
 705 42 l 2
 797 42 817 48 824 79 c 2
 835 123 l 1
 837 132 l 1
 892 132 l 1
 865 0 l 1
 369 0 l 1
 375 30 l 1
 384 31 l 1
 418 33 l 2
 456 36 462 41 472 78 c 2
 485 126 l 1
 504 222 l 1
 241 222 l 1
 162 126 l 2
 148 109 140 97 132 87 c 2
 128 82 l 2
 127 80 125 77 122 74 c 0
 117 68 113 62 110 58 c 0
 105 52 102 46 102 42 c 0
 102 35 111 31 130 31 c 0
 132 31 134 31 137 32 c 2
 140 32 l 2
 142 32 147 32 167 31 c 2
 177 30 l 1
 171 0 l 1
 0 0 l 1
274 262 m 1
 512 262 l 1
 590 654 l 1
 274 262 l 1
EndSplineSet
EndChar
StartChar: Ccedilla
Encoding: 199 199 8
Width: 667
Flags: W
HStem: -211 36<322.5 339 312.5 364.5> -18 48<368 436> 0 20 708 33<492 570.5 469.5 573.5>
VStem: 105 108<189.5 321.5 189.5 329.5> 381 69<-141.5 -112>
LayerCount: 2
Fore
SplineSet
640 86 m 1xdc
 631 39 l 1
 551 -1 479 -18 393 -18 c 0
 207 -18 105 83 105 267 c 0
 105 392 147 509 225 602 c 0
 303 696 404 741 535 741 c 0
 606 741 671 730 751 705 c 1
 724 567 l 1
 664 567 l 1
 665 576 l 2
 667 591 669 602 670 609 c 0
 672 616 673 626 673 630 c 0
 673 673 611 708 536 708 c 0
 448 708 371 663 308 575 c 0
 246 488 213 380 213 263 c 0
 213 116 297 30 439 30 c 0
 500 30 559 46 640 86 c 1xdc
265 -201 m 1
 272 -167 l 1
 292 -173 306 -175 319 -175 c 0
 359 -175 381 -157 381 -126 c 0
 381 -98 357 -87 298 -85 c 1
 362 0 l 1
 400 0 l 1xac
 357 -58 l 1
 422 -64 450 -82 450 -119 c 0
 450 -168 396 -211 333 -211 c 0
 312 -211 289 -208 265 -201 c 1
EndSplineSet
EndChar
StartChar: Edieresis
Encoding: 203 203 12
Width: 611
Flags: MW
HStem: 0 42<305 427 427 473> 684 39<351 553 351 351> 784 84<316 417 333 400 525 593>
LayerCount: 2
Fore
SplineSet
587 0 m 1
 21 0 l 1
 27 30 l 1
 36 31 l 1
 70 33 l 2
 112 37 120 49 137 126 c 2
 230 596 l 2
 236 624 239 648 239 664 c 0
 239 681 228 689 201 690 c 2
 168 692 l 1
 160 693 l 1
 166 723 l 1
 704 723 l 1
 679 596 l 1
 625 596 l 1
 626 606 l 1
 632 647 l 1
 635 665 l 1
 631 678 605 684 553 684 c 2
 351 684 l 1
 292 394 l 1
 470 395 l 1
 501 396 l 2
 532 396 534 398 542 433 c 2
 544 439 l 1
 546 446 l 1
 548 454 l 1
 587 454 l 1
 556 295 l 1
 516 295 l 1
 518 304 l 2
 519 310 521 332 521 336 c 0
 521 346 514 351 497 353 c 2
 462 355 l 1
 285 355 l 1
 239 126 l 2
 235 103 233 89 233 75 c 0
 233 47 245 42 305 42 c 2
 427 42 l 2
 519 42 539 48 546 79 c 2
 557 123 l 1
 559 132 l 1
 613 132 l 1
 587 0 l 1
316 784 m 1
 333 868 l 1
 417 868 l 1
 400 784 l 1
 316 784 l 1
508 784 m 1
 525 868 l 1
 610 868 l 1
 593 784 l 1
 508 784 l 1
EndSplineSet
EndChar
StartChar: Ntilde
Encoding: 209 209 29
Width: 722
Flags: W
HStem: -10 20 0 20 703 20<166 328 328 328 620 845 845 845> 783 66<606.5 609.5> 833 65<467.5 470.5>
LayerCount: 2
Fore
SplineSet
574 -10 m 1xa0
 276 596 l 1
 183 127 l 2
 179 107 175 74 175 59 c 0
 175 42 185 35 212 33 c 2
 245 31 l 1
 254 30 l 1
 248 0 l 1
 21 0 l 1x40
 27 30 l 1
 37 31 l 1
 70 33 l 2
 112 37 121 49 137 127 c 2
 231 596 l 2
 236 620 239 648 239 664 c 0
 239 681 228 689 201 690 c 2
 168 692 l 1
 160 693 l 1
 166 723 l 1
 328 723 l 1
 599 162 l 1
 686 596 l 2
 689 615 693 649 693 664 c 0
 693 681 682 689 656 690 c 2
 623 692 l 1
 614 693 l 1
 620 723 l 1
 845 723 l 1
 839 693 l 1
 830 692 l 1
 796 690 l 2
 758 687 753 682 742 645 c 2
 729 596 l 1
 608 -10 l 1
 574 -10 l 1xa0
395 783 m 1x88
 364 783 l 1
 396 863 437 898 498 898 c 0x08
 519 898 538 892 552 879 c 2
 567 867 l 2
 581 855 598 849 615 849 c 0
 647 849 668 864 683 897 c 1
 712 897 l 1
 681 818 640 783 579 783 c 0x10
 558 783 541 789 525 802 c 2
 510 814 l 2
 493 827 479 833 462 833 c 0
 432 833 412 818 395 783 c 1x88
EndSplineSet
EndChar
StartChar: Ograve
Encoding: 210 210 32
Width: 722
Flags: MW
HStem: -18 33<313 399 313 414.5> 708 33<460.5 553>
VStem: 101 105<169 291.5 162 321> 663 105<423.5 556 404.5 562>
LayerCount: 2
Fore
SplineSet
509 741 m 0
 675 741 768 643 768 469 c 0
 768 340 729 224 656 131 c 0
 577 32 476 -18 353 -18 c 0
 194 -18 101 83 101 255 c 0
 101 387 142 506 219 599 c 0
 298 694 394 741 509 741 c 0
500 708 m 0
 421 708 353 660 294 563 c 0
 236 468 206 353 206 230 c 0
 206 94 263 15 363 15 c 0
 435 15 500 53 554 128 c 0
 624 224 663 355 663 492 c 0
 663 632 606 708 500 708 c 0
594 783 m 1
 549 783 l 1
 381 940 l 1
 508 940 l 1
 594 783 l 1
EndSplineSet
EndChar
StartChar: Ocircumflex
Encoding: 212 212 33
Width: 722
Flags: MW
HStem: -18 33<314 399 314 414.5> 709 33<461.5 553>
VStem: 101 108<169 290 160.5 321> 661 108<426 556.5 405 564>
LayerCount: 2
Fore
SplineSet
509 742 m 0
 676 742 769 644 769 469 c 0
 769 341 730 224 657 131 c 0
 578 32 476 -18 353 -18 c 0
 194 -18 101 83 101 255 c 0
 101 387 142 506 219 599 c 0
 298 695 394 742 509 742 c 0
501 709 m 0
 422 709 354 661 296 563 c 0
 239 467 209 352 209 228 c 0
 209 93 265 15 363 15 c 0
 435 15 499 53 552 128 c 0
 622 226 661 357 661 495 c 0
 661 633 605 709 501 709 c 0
347 783 m 1
 496 940 l 1
 604 940 l 1
 690 783 l 1
 648 783 l 1
 540 892 l 1
 390 783 l 1
 347 783 l 1
EndSplineSet
EndChar
StartChar: Otilde
Encoding: 213 213 34
Width: 722
Flags: W
HStem: -18 33<314 399 314 414.5> 709 33<461.5 553> 783 66<598.5 601.5> 833 65<459.5 462.5>
VStem: 101 108<169 290 160.5 321> 661 108<426 556.5 405 564>
LayerCount: 2
Fore
SplineSet
509 742 m 0xdc
 676 742 769 644 769 469 c 0
 769 341 730 224 657 131 c 0
 578 32 476 -18 353 -18 c 0
 194 -18 101 83 101 255 c 0
 101 387 142 506 219 599 c 0
 298 695 394 742 509 742 c 0xdc
501 709 m 0
 422 709 354 661 296 563 c 0
 239 467 209 352 209 228 c 0
 209 93 265 15 363 15 c 0
 435 15 499 53 552 128 c 0
 622 226 661 357 661 495 c 0
 661 633 605 709 501 709 c 0
387 783 m 1
 356 783 l 1
 388 863 429 898 490 898 c 0x1c
 511 898 529 892 544 879 c 2
 559 867 l 2
 573 855 590 849 607 849 c 0
 639 849 659 864 674 897 c 1
 705 897 l 1
 673 818 632 783 571 783 c 0x2c
 550 783 534 789 517 802 c 2
 502 813 l 2
 483 828 471 833 454 833 c 0
 424 833 404 818 387 783 c 1
EndSplineSet
EndChar
StartChar: Odieresis
Encoding: 214 214 30
Width: 722
Flags: MW
HStem: -18 33<314 399 314 414.5> 709 33<461.5 553> 784 84<380 481 397 465 590 658>
VStem: 101 108<169 290 160.5 321> 661 108<426 556.5 405 564>
LayerCount: 2
Fore
SplineSet
509 742 m 0
 676 742 769 644 769 469 c 0
 769 341 730 224 657 131 c 0
 578 32 476 -18 353 -18 c 0
 194 -18 101 83 101 255 c 0
 101 387 142 506 219 599 c 0
 298 695 394 742 509 742 c 0
501 709 m 0
 422 709 354 661 296 563 c 0
 239 467 209 352 209 228 c 0
 209 93 265 15 363 15 c 0
 435 15 499 53 552 128 c 0
 622 226 661 357 661 495 c 0
 661 633 605 709 501 709 c 0
380 784 m 1
 397 868 l 1
 481 868 l 1
 465 784 l 1
 380 784 l 1
573 784 m 1
 590 868 l 1
 674 868 l 1
 658 784 l 1
 573 784 l 1
EndSplineSet
EndChar
StartChar: multiply
Encoding: 215 215 261
Width: 564
Flags: MW
HStem: 510 20<182 182 595 595>
LayerCount: 2
Fore
SplineSet
58 82 m 1
 306 289 l 1
 141 496 l 1
 182 530 l 1
 347 323 l 1
 595 530 l 1
 622 496 l 1
 374 289 l 1
 539 82 l 1
 499 48 l 1
 333 255 l 1
 85 48 l 1
 58 82 l 1
EndSplineSet
EndChar
StartChar: Oslash
Encoding: 216 216 161
Width: 722
Flags: MW
HStem: -18 33<331 406.5 331 416.5> 709 33<460 535.5>
VStem: 100 108<221 290.5 217 321> 659 108<432.5 502.5 403 505>
LayerCount: 2
Fore
SplineSet
36 -18 m 1
 141 88 l 1
 112 140 100 187 100 255 c 0
 100 387 141 506 218 599 c 0
 296 694 393 742 508 742 c 0
 595 742 655 718 707 660 c 1
 788 741 l 1
 831 741 l 1
 726 634 l 1
 755 583 767 536 767 469 c 0
 767 337 726 218 649 124 c 0
 571 29 474 -18 359 -18 c 0
 272 -18 212 6 161 61 c 1
 84 -18 l 1
 36 -18 l 1
653 560 m 1
 224 124 l 1
 251 48 295 15 367 15 c 0
 446 15 514 63 572 161 c 0
 629 256 659 372 659 493 c 0
 659 517 657 535 653 560 c 1
214 162 m 1
 644 596 l 1
 616 674 572 709 499 709 c 0
 421 709 353 661 295 563 c 0
 238 468 208 352 208 229 c 0
 208 205 210 186 214 162 c 1
EndSplineSet
EndChar
StartChar: Ugrave
Encoding: 217 217 44
Width: 722
Flags: MW
HStem: -18 32<339.5 417> 703 20<155 440 440 440 625 856 856 856>
VStem: 143 95<104.5 150.5 101.5 181>
LayerCount: 2
Fore
SplineSet
149 693 m 1
 155 723 l 1
 440 723 l 1
 434 693 l 1
 424 692 l 1
 391 690 l 2
 353 687 348 683 336 645 c 2
 324 596 l 1
 262 287 l 2
 242 187 238 161 238 140 c 0
 238 63 295 14 384 14 c 0
 466 14 541 54 579 117 c 0
 595 143 606 181 623 266 c 2
 690 596 l 2
 694 619 698 649 698 664 c 0
 698 681 687 689 660 690 c 2
 627 692 l 1
 619 693 l 1
 625 723 l 1
 856 723 l 1
 850 693 l 1
 841 692 l 1
 808 690 l 2
 769 687 764 683 753 645 c 2
 741 596 l 1
 680 294 l 2
 659 190 643 141 614 101 c 0
 557 21 474 -18 360 -18 c 0
 215 -18 143 43 143 166 c 0
 143 196 147 232 155 271 c 2
 220 596 l 2
 225 622 228 648 228 664 c 0
 228 681 217 689 190 690 c 2
 158 692 l 1
 149 693 l 1
614 783 m 1
 568 783 l 1
 401 940 l 1
 527 940 l 1
 614 783 l 1
EndSplineSet
EndChar
StartChar: Udieresis
Encoding: 220 220 42
Width: 722
Flags: MW
HStem: -18 32<339.5 417> 703 20<155 440 440 440 625 856 856 856> 784 84<406 507 422 490 615 683>
VStem: 143 95<104.5 150.5 101.5 181>
LayerCount: 2
Fore
SplineSet
149 693 m 1
 155 723 l 1
 440 723 l 1
 434 693 l 1
 424 692 l 1
 391 690 l 2
 353 687 348 683 336 645 c 2
 324 596 l 1
 262 287 l 2
 242 187 238 161 238 140 c 0
 238 63 295 14 384 14 c 0
 466 14 541 54 579 117 c 0
 595 143 606 181 623 266 c 2
 690 596 l 2
 694 619 698 649 698 664 c 0
 698 681 687 689 660 690 c 2
 627 692 l 1
 619 693 l 1
 625 723 l 1
 856 723 l 1
 850 693 l 1
 841 692 l 1
 808 690 l 2
 769 687 764 683 753 645 c 2
 741 596 l 1
 680 294 l 2
 659 190 643 141 614 101 c 0
 557 21 474 -18 360 -18 c 0
 215 -18 143 43 143 166 c 0
 143 196 147 232 155 271 c 2
 220 596 l 2
 225 622 228 648 228 664 c 0
 228 681 217 689 190 690 c 2
 158 692 l 1
 149 693 l 1
406 784 m 1
 422 868 l 1
 507 868 l 1
 490 784 l 1
 406 784 l 1
599 784 m 1
 615 868 l 1
 700 868 l 1
 683 784 l 1
 599 784 l 1
EndSplineSet
EndChar
StartChar: Yacute
Encoding: 221 221 48
Width: 722
Flags: MW
HStem: 0 20 703 20<145 425 425 425 667 867 867 867>
LayerCount: 2
Fore
SplineSet
371 320 m 1
 243 594 l 1
 222 636 l 2
 206 673 193 689 177 691 c 2
 149 692 l 1
 139 693 l 1
 145 723 l 1
 425 723 l 1
 419 693 l 1
 410 693 l 1
 375 692 l 2
 347 691 335 685 335 669 c 0
 335 661 341 642 349 626 c 2
 365 594 l 1
 472 365 l 1
 672 593 l 2
 713 640 735 670 735 679 c 0
 735 688 726 691 699 692 c 2
 670 693 l 1
 661 693 l 1
 667 723 l 1
 867 723 l 1
 861 693 l 1
 851 692 l 1
 829 691 l 2
 807 690 783 675 764 651 c 1
 764 650 l 1
 763 650 761 648 759 645 c 0
 746 630 730 612 714 594 c 2
 473 320 l 1
 434 127 l 2
 429 101 426 75 426 59 c 0
 426 42 436 35 464 33 c 2
 497 31 l 1
 506 30 l 1
 500 0 l 1
 217 0 l 1
 222 30 l 1
 232 31 l 1
 265 33 l 2
 308 37 316 49 332 127 c 2
 371 320 l 1
474 783 m 1
 623 940 l 1
 750 940 l 1
 519 783 l 1
 474 783 l 1
EndSplineSet
EndChar
StartChar: Thorn
Encoding: 222 222 165
Width: 556
Flags: MW
HStem: 0 20 703 20<166 449 449 449>
VStem: 501 107<400.5 471>
LayerCount: 2
Fore
SplineSet
21 0 m 1
 27 30 l 1
 36 31 l 1
 70 33 l 2
 112 37 120 49 137 127 c 2
 230 596 l 2
 236 624 239 648 239 664 c 0
 239 681 228 689 201 690 c 2
 168 692 l 1
 160 693 l 1
 166 723 l 1
 449 723 l 1
 443 693 l 1
 434 692 l 1
 400 690 l 2
 362 687 356 682 346 645 c 2
 333 596 l 1
 329 575 l 1
 380 576 l 1
 391 576 l 2
 545 576 608 534 608 432 c 0
 608 369 584 305 540 255 c 0
 480 187 385 154 247 154 c 2
 245 154 l 1
 239 127 l 2
 234 100 231 75 231 60 c 0
 231 42 241 35 269 33 c 2
 301 31 l 1
 310 30 l 1
 304 0 l 1
 21 0 l 1
251 187 m 1
 259 187 l 2
 399 187 501 291 501 434 c 0
 501 508 453 542 350 542 c 2
 322 542 l 1
 251 187 l 1
EndSplineSet
EndChar
StartChar: germandbls
Encoding: 223 223 195
Width: 500
Flags: W
HStem: -12 30<340 371.5 340 385> 0 20 753 30<363.5 409.5>
VStem: 430 86<120.5 139> 445 93<659 708>
LayerCount: 2
Fore
SplineSet
259 2 m 1xb0
 281 111 l 1
 323 111 l 1
 322 103 l 1
 317 68 l 2
 316 63 316 57 316 53 c 0
 316 31 329 18 351 18 c 0
 392 18 430 70 430 126 c 0x90
 430 152 419 179 391 220 c 2
 348 284 l 2
 316 333 300 367 300 389 c 0
 300 419 320 455 361 497 c 2
 377 513 l 2
 421 559 445 619 445 685 c 0
 445 731 428 753 391 753 c 0
 336 753 311 716 287 594 c 2
 194 126 l 1
 186 78 l 2
 186 76 186 74 185 70 c 0
 184 64 183 59 183 57 c 0
 183 42 196 32 220 31 c 2
 229 30 l 1
 222 0 l 1
 13 0 l 1x68
 19 30 l 1
 28 31 l 2
 72 34 78 39 87 78 c 2
 97 126 l 1
 180 543 l 2
 215 719 274 783 400 783 c 0
 492 783 538 750 538 684 c 0xa8
 538 634 519 604 447 541 c 2
 424 521 l 1
 405 505 l 2
 384 487 373 466 373 446 c 0
 373 432 380 414 392 396 c 2
 415 364 l 1
 453 308 l 2
 500 239 516 202 516 167 c 0
 516 74 431 -12 339 -12 c 0
 321 -12 297 -8 259 2 c 1xb0
EndSplineSet
EndChar
StartChar: atilde
Encoding: 227 227 71
Width: 444
Flags: W
HStem: -12 58<130.5 232.5> 0 20 505 37<311 337> 627 66<430.5 433.5> 676 66<291 294.5>
VStem: 60 107<88.5 162.5 88.5 162.5> 374 93<455 476>
LayerCount: 2
Fore
SplineSet
447 36 m 1
 442 0 l 1x46
 413 -9 397 -12 385 -12 c 0
 343 -12 324 14 323 73 c 1
 270 13 224 -12 166 -12 c 0
 95 -12 60 24 60 95 c 0
 60 230 163 313 329 313 c 2
 349 313 l 1
 362 379 l 2
 370 419 374 448 374 462 c 0
 374 490 355 505 319 505 c 0
 270 505 237 475 228 421 c 2
 227 412 l 1
 160 412 l 1
 177 497 l 1
 234 529 282 542 340 542 c 0
 424 542 467 510 467 448 c 0
 467 433 464 408 459 383 c 2
 412 147 l 2
 404 111 399 74 399 59 c 0
 399 41 407 32 421 32 c 0
 425 32 435 33 443 35 c 2xa6
 447 36 l 1
303 83 m 1x86
 343 283 l 1
 320 283 l 2
 227 283 167 215 167 110 c 0
 167 67 185 46 220 46 c 0
 245 46 268 56 303 83 c 1x86
218 627 m 1
 188 627 l 1
 220 707 261 742 321 742 c 0x08
 343 742 361 736 376 723 c 2
 391 711 l 2
 404 700 422 693 439 693 c 0
 471 693 492 708 506 741 c 1
 536 741 l 1
 504 662 464 627 403 627 c 0x10
 382 627 364 633 349 645 c 2
 334 657 l 2
 318 670 303 676 286 676 c 0x08
 256 676 235 661 218 627 c 1
EndSplineSet
EndChar
StartChar: aring
Encoding: 229 229 72
Width: 444
Flags: W
HStem: -12 58<130.5 232.5> 0 20 505 37<311 337> 626 33<343 389.5 343 393> 815 33<371 417.5>
VStem: 60 34 60 107<88.5 162.5 88.5 162.5> 253 34 374 93<455 476>
LayerCount: 2
Fore
SplineSet
447 36 m 1
 442 0 l 1x4280
 413 -9 397 -12 385 -12 c 0
 343 -12 324 14 323 73 c 1
 270 13 224 -12 166 -12 c 0
 95 -12 60 24 60 95 c 0
 60 230 163 313 329 313 c 2
 349 313 l 1
 362 379 l 2
 370 419 374 448 374 462 c 0
 374 490 355 505 319 505 c 0
 270 505 237 475 228 421 c 2
 227 412 l 1
 160 412 l 1
 177 497 l 1
 234 529 282 542 340 542 c 0
 424 542 467 510 467 448 c 0
 467 433 464 408 459 383 c 2
 412 147 l 2
 404 111 399 74 399 59 c 0
 399 41 407 32 421 32 c 0
 425 32 435 33 443 35 c 2xa280
 447 36 l 1
303 83 m 1x8280
 343 283 l 1
 320 283 l 2
 227 283 167 215 167 110 c 0
 167 67 185 46 220 46 c 0
 245 46 268 56 303 83 c 1x8280
402 848 m 0
 456 848 494 811 494 759 c 0
 494 689 429 626 357 626 c 0
 305 626 267 663 267 715 c 0x1d
 267 785 331 848 402 848 c 0
397 815 m 0
 345 815 301 771 301 721 c 0
 301 680 322 659 364 659 c 0
 415 659 460 703 460 753 c 0
 460 794 438 815 397 815 c 0
EndSplineSet
EndChar
StartChar: ae
Encoding: 230 230 192
Width: 667
Flags: W
HStem: -12 49<494.5 523> 286 30<445 599 445 695 439 599> 505 37<311 337.5> 509 33<563.5 587>
VStem: 60 107<87.5 162 87.5 162.5> 618 93<432 445 390.5 464>
LayerCount: 2
Fore
SplineSet
652 73 m 1xdc
 643 24 l 1
 587 -1 545 -12 501 -12 c 0
 426 -12 376 18 336 88 c 1
 272 11 234 -12 167 -12 c 0
 95 -12 60 23 60 95 c 0
 60 230 162 313 329 313 c 2
 349 313 l 1
 362 379 l 2
 370 420 374 448 374 462 c 0
 374 490 355 505 320 505 c 0
 269 505 241 479 228 421 c 2
 226 412 l 1
 160 412 l 1
 177 497 l 1
 234 528 283 542 339 542 c 0xec
 398 542 433 527 457 492 c 1
 504 527 542 542 585 542 c 0
 662 542 711 487 711 403 c 0
 711 378 705 334 697 295 c 2
 695 286 l 1
 439 286 l 1
 430 237 426 201 426 171 c 0
 426 83 461 37 528 37 c 0
 560 37 596 48 652 73 c 1xdc
303 83 m 1
 342 283 l 1
 320 283 l 2
 227 283 167 215 167 109 c 0
 167 66 184 45 220 45 c 0
 245 45 269 56 303 83 c 1
445 316 m 1
 599 316 l 1
 603 337 l 2
 616 408 618 422 618 442 c 0
 618 486 602 509 572 509 c 0x5c
 516 509 477 450 445 316 c 1
EndSplineSet
EndChar
StartChar: eacute
Encoding: 233 233 79
Width: 444
Flags: MW
HStem: -12 49<261.5 288> 286 30<203 377 203 473 198 377> 509 33<315.5 357.5>
VStem: 78 106<127.5 187.5 127.5 228.5> 396 93<428.5 449.5 391 462>
LayerCount: 2
Fore
SplineSet
431 73 m 1
 421 24 l 1
 358 -1 312 -12 264 -12 c 0
 147 -12 78 60 78 182 c 0
 78 275 106 362 159 433 c 0
 214 506 278 542 353 542 c 0
 443 542 489 495 489 404 c 0
 489 378 483 332 475 295 c 2
 473 286 l 1
 198 286 l 1
 188 233 184 202 184 173 c 0
 184 82 223 37 300 37 c 0xf8
 342 37 382 48 431 73 c 1
203 316 m 1
 377 316 l 1
 381 337 l 2
 392 391 396 418 396 439 c 0
 396 485 376 509 339 509 c 0
 276 509 235 451 203 316 c 1
275 626 m 1
 423 783 l 1
 550 783 l 1
 320 626 l 1
 275 626 l 1
EndSplineSet
EndChar
StartChar: edieresis
Encoding: 235 235 78
Width: 444
Flags: MW
HStem: -12 49<261.5 288> 286 30<203 377 203 473 198 377> 509 33<315.5 357.5> 627 84<229 330 246 313 438 506>
VStem: 78 106<127.5 187.5 127.5 228.5> 396 93<428.5 449.5 391 462>
LayerCount: 2
Fore
SplineSet
431 73 m 1
 421 24 l 1
 358 -1 312 -12 264 -12 c 0
 147 -12 78 60 78 182 c 0
 78 275 106 362 159 433 c 0
 214 506 278 542 353 542 c 0
 443 542 489 495 489 404 c 0
 489 378 483 332 475 295 c 2
 473 286 l 1
 198 286 l 1
 188 233 184 202 184 173 c 0
 184 82 223 37 300 37 c 0xec
 342 37 382 48 431 73 c 1
203 316 m 1
 377 316 l 1
 381 337 l 2
 392 391 396 418 396 439 c 0
 396 485 376 509 339 509 c 0
 276 509 235 451 203 316 c 1
229 627 m 1
 246 711 l 1
 330 711 l 1
 313 627 l 1x10
 229 627 l 1
421 627 m 1
 438 711 l 1
 523 711 l 1
 506 627 l 1
 421 627 l 1
EndSplineSet
EndChar
StartChar: icircumflex
Encoding: 238 238 89
Width: 278
Flags: MW
HStem: 0 20 510 20<129 297 297 297>
LayerCount: 2
Fore
SplineSet
268 30 m 1
 262 0 l 1
 23 0 l 1
 29 30 l 1
 39 31 l 2
 76 33 93 37 97 43 c 0
 102 50 105 59 109 78 c 2
 120 126 l 1
 175 404 l 1
 184 451 l 2
 187 466 188 469 188 472 c 0
 188 487 167 498 132 499 c 2
 123 500 l 1
 129 530 l 1
 297 530 l 1
 216 126 l 1
 207 78 l 2
 204 65 203 61 203 58 c 0
 203 43 224 33 259 31 c 2xc0
 268 30 l 1
96 626 m 1
 244 783 l 1
 353 783 l 1
 439 626 l 1
 397 626 l 1
 289 735 l 1
 138 626 l 1
 96 626 l 1
EndSplineSet
EndChar
StartChar: eth
Encoding: 240 240 201
Width: 500
Flags: MW
HStem: -12 33<231 290> 497 33<307.5 361 278.5 378>
VStem: 77 103<120.5 243.5 109.5 280> 429 113<336 409>
LayerCount: 2
Fore
SplineSet
506 749 m 1
 397 685 l 1
 501 598 542 514 542 390 c 0
 542 282 512 182 458 106 c 0
 401 27 332 -12 248 -12 c 0
 135 -12 77 55 77 186 c 0
 77 374 203 530 354 530 c 0
 368 530 382 529 400 526 c 1
 384 561 360 599 326 643 c 1
 164 546 l 1
 152 572 l 1
 306 662 l 1
 263 707 216 731 158 736 c 1
 165 771 l 1
 247 771 317 749 378 705 c 1
 494 774 l 1
 506 749 l 1
352 497 m 0
 263 497 180 333 180 154 c 0
 180 65 205 21 257 21 c 0
 347 21 429 185 429 365 c 0
 429 453 404 497 352 497 c 0
EndSplineSet
EndChar
StartChar: ntilde
Encoding: 241 241 94
Width: 500
Flags: W
HStem: 0 20 479 63<366 463.5> 510 20<124 279 279 279> 627 66<456.5 459.5> 676 66<317 320.5>
VStem: 425 99<449.5 453.5>
LayerCount: 2
Fore
SplineSet
279 530 m 1xa4
 262 443 l 1
 326 513 375 542 434 542 c 0
 493 542 524 513 524 459 c 0
 524 440 520 412 513 373 c 2
 463 126 l 1
 455 78 l 2
 452 64 451 60 451 58 c 0
 451 42 467 32 494 31 c 2
 503 30 l 1
 497 0 l 1
 283 0 l 1
 289 30 l 1
 298 31 l 2
 341 34 348 39 356 78 c 2
 367 126 l 1
 413 358 l 1
 419 396 l 2
 423 419 425 432 425 441 c 0
 425 466 412 479 386 479 c 0xc4
 346 479 306 458 255 410 c 1
 199 126 l 1
 190 78 l 2
 187 65 186 61 186 57 c 0
 186 42 203 32 229 31 c 2
 239 30 l 1
 232 0 l 1
 18 0 l 1
 24 30 l 1
 33 31 l 2
 77 34 83 39 92 78 c 2
 102 126 l 1
 158 404 l 1
 166 451 l 2
 167 453 167 455 168 459 c 0
 169 465 170 470 170 472 c 0
 170 488 154 498 127 499 c 2
 118 500 l 1
 124 530 l 1
 279 530 l 1xa4
245 627 m 1x2c
 214 627 l 1
 246 707 287 742 347 742 c 0x0c
 369 742 386 736 402 723 c 2
 417 711 l 2
 431 699 448 693 465 693 c 0
 497 693 518 708 532 741 c 1
 562 741 l 1
 531 662 490 627 429 627 c 0x14
 408 627 390 633 375 645 c 2
 360 657 l 2
 344 670 329 676 312 676 c 0
 282 676 261 661 245 627 c 1x2c
EndSplineSet
EndChar
StartChar: oacute
Encoding: 243 243 96
Width: 500
Flags: MW
HStem: -12 33<233 304 233 327> 509 33<309.5 381>
VStem: 77 102<119.5 246.5 109.5 285> 432 102<286 410 243 421.5>
LayerCount: 2
Fore
SplineSet
361 542 m 0
 476 542 534 476 534 344 c 0
 534 142 409 -12 245 -12 c 0
 133 -12 77 54 77 185 c 0xf0
 77 385 202 542 361 542 c 0
355 509 m 0
 264 509 179 339 179 154 c 0
 179 65 206 21 260 21 c 0
 348 21 432 195 432 377 c 0
 432 466 407 509 355 509 c 0
296 626 m 1
 444 783 l 1
 571 783 l 1
 341 626 l 1
 296 626 l 1
EndSplineSet
EndChar
StartChar: otilde
Encoding: 245 245 99
Width: 500
Flags: W
HStem: -12 33<233 304 233 327> 509 33<309.5 381> 627 66<457.5 460.5> 676 66<318 321.5>
VStem: 77 102<119.5 246.5 109.5 285> 432 102<286 410 243 421.5>
LayerCount: 2
Fore
SplineSet
361 542 m 0
 476 542 534 476 534 344 c 0
 534 142 409 -12 245 -12 c 0
 133 -12 77 54 77 185 c 0xcc
 77 385 202 542 361 542 c 0
355 509 m 0
 264 509 179 339 179 154 c 0
 179 65 206 21 260 21 c 0
 348 21 432 195 432 377 c 0
 432 466 407 509 355 509 c 0
245 627 m 1
 215 627 l 1
 247 707 288 742 348 742 c 0x10
 370 742 388 736 403 723 c 2
 418 711 l 2
 431 700 449 693 466 693 c 0
 498 693 519 708 533 741 c 1
 563 741 l 1
 531 662 491 627 430 627 c 0x20
 409 627 391 633 376 645 c 2
 361 657 l 2
 345 670 330 676 313 676 c 0x10
 283 676 262 661 245 627 c 1
EndSplineSet
EndChar
StartChar: odieresis
Encoding: 246 246 95
Width: 500
Flags: MW
HStem: -12 33<233 304 233 327> 509 33<309.5 381> 627 84<239 340 256 323 448 516>
VStem: 77 102<119.5 246.5 109.5 285> 432 102<286 410 243 421.5>
LayerCount: 2
Fore
SplineSet
361 542 m 0
 476 542 534 476 534 344 c 0
 534 142 409 -12 245 -12 c 0
 133 -12 77 54 77 185 c 0xd8
 77 385 202 542 361 542 c 0
355 509 m 0
 264 509 179 339 179 154 c 0
 179 65 206 21 260 21 c 0
 348 21 432 195 432 377 c 0
 432 466 407 509 355 509 c 0
239 627 m 1
 256 711 l 1
 340 711 l 1
 323 627 l 1x20
 239 627 l 1
431 627 m 1
 448 711 l 1
 533 711 l 1
 516 627 l 1
 431 627 l 1
EndSplineSet
EndChar
StartChar: divide
Encoding: 247 247 262
Width: 564
Flags: MW
HStem: 48 96<243 359 262 340> 265 48<94 585 103 576> 433 97<320 436 340 417>
LayerCount: 2
Fore
SplineSet
243 48 m 1
 262 144 l 1
 359 144 l 1
 340 48 l 1
 243 48 l 1
94 265 m 1
 103 313 l 1
 585 313 l 1
 576 265 l 1
 94 265 l 1
320 433 m 1
 340 530 l 1
 436 530 l 1
 417 433 l 1
 320 433 l 1
EndSplineSet
EndChar
StartChar: oslash
Encoding: 248 248 194
Width: 500
Flags: MW
HStem: -12 33<232 279 232 326.5> 509 33<327.5 374.5>
LayerCount: 2
Fore
SplineSet
28 -12 m 1
 100 67 l 1
 82 105 75 139 75 187 c 0
 75 385 201 542 360 542 c 0
 415 542 454 527 487 492 c 1
 532 542 l 1
 579 542 l 1
 507 463 l 1
 524 425 531 392 531 344 c 0
 531 144 406 -12 247 -12 c 0
 191 -12 153 3 120 38 c 1
 75 -12 l 1
 28 -12 l 1
177 152 m 1
 426 426 l 1
 417 484 395 509 354 509 c 0
 301 509 254 460 216 366 c 0
 190 301 179 239 177 152 c 1
429 377 m 1
 180 104 l 1
 189 46 211 21 253 21 c 0
 305 21 352 70 390 164 c 0
 416 229 428 291 429 377 c 1
EndSplineSet
EndChar
StartChar: udieresis
Encoding: 252 252 106
Width: 500
Flags: W
HStem: -12 63<146.5 244.5> 0 20 510 20<112 268 268 268 377 532 532 532> 627 84<233 334 250 317 442 510>
VStem: 86 99<76.5 80.5>
LayerCount: 2
Fore
SplineSet
371 500 m 1xa8
 377 530 l 1
 532 530 l 1
 452 126 l 1
 443 78 l 2
 440 66 439 60 439 58 c 0
 439 42 455 32 482 31 c 2
 491 30 l 1
 485 0 l 1
 330 0 l 1x78
 348 87 l 1
 285 17 234 -12 176 -12 c 0
 117 -12 86 17 86 71 c 0
 86 90 90 125 97 157 c 2
 147 404 l 1
 155 451 l 2
 155 452 156 455 157 461 c 0
 158 465 159 470 159 472 c 0
 159 488 143 498 115 499 c 2
 107 500 l 1
 112 530 l 1
 268 530 l 1
 196 172 l 1
 190 134 l 2
 187 115 185 98 185 89 c 0
 185 64 198 51 225 51 c 0
 264 51 303 72 354 120 c 1
 411 404 l 1
 419 451 l 2
 420 453 420 455 421 459 c 0
 422 464 423 470 423 472 c 0
 423 488 407 498 380 499 c 2
 371 500 l 1xa8
233 627 m 1
 250 711 l 1
 334 711 l 1
 317 627 l 1
 233 627 l 1
425 627 m 1
 442 711 l 1
 527 711 l 1
 510 627 l 1
 425 627 l 1
EndSplineSet
EndChar
StartChar: thorn
Encoding: 254 254 202
Width: 500
Flags: W
HStem: -12 39<229 279.5 215.5 323.5> 0 20 480 62<378.5 382>
VStem: 426 107<271 402.5>
LayerCount: 2
Fore
SplineSet
-39 -193 m 1x50
 -33 -163 l 1
 -24 -162 l 2
 20 -159 26 -154 35 -114 c 2
 45 -66 l 1
 196 693 l 2
 200 706 201 709 201 712 c 0
 201 728 184 739 157 740 c 2
 148 741 l 1
 154 771 l 1
 309 771 l 1
 244 443 l 1
 303 513 350 542 407 542 c 0
 491 542 533 487 533 377 c 0
 533 157 406 -12 241 -12 c 0xb0
 217 -12 192 -9 155 0 c 1
 142 -66 l 1
 133 -114 l 2
 130 -127 129 -132 129 -136 c 0
 129 -151 146 -161 172 -162 c 2
 182 -163 l 1
 175 -193 l 1
 -39 -193 l 1x50
237 408 m 1
 163 38 l 1
 188 30 207 27 224 27 c 0
 335 27 426 178 426 364 c 0
 426 441 404 480 360 480 c 0
 328 480 292 459 237 408 c 1
EndSplineSet
EndChar
StartChar: ydieresis
Encoding: 255 255 116
Width: 500
Flags: MW
HStem: 0 20 510 20<105 319 319 319 465 605 605 605> 627 84<275 376 292 359 484 552>
LayerCount: 2
Fore
SplineSet
100 500 m 1
 105 530 l 1
 319 530 l 1
 313 500 l 1
 304 500 l 1
 289 499 l 2
 258 498 246 491 246 473 c 0
 246 471 251 446 260 399 c 2
 314 133 l 1
 467 399 l 1
 486 431 l 1
 505 465 l 2
 509 471 511 478 511 483 c 0
 511 493 500 499 482 499 c 2
 469 500 l 1
 459 500 l 1
 465 530 l 1
 605 530 l 1
 600 500 l 1
 591 499 l 2
 571 498 552 482 535 454 c 2
 502 399 l 1
 162 -193 l 1
 40 -193 l 1
 237 0 l 1
 156 400 l 2
 138 482 132 496 108 499 c 2
 100 500 l 1
275 627 m 1
 292 711 l 1
 376 711 l 1
 359 627 l 1
 275 627 l 1
468 627 m 1
 484 711 l 1
 569 711 l 1
 552 627 l 1
 468 627 l 1
EndSplineSet
EndChar
StartChar: Amacron
Encoding: 281 256 52
Width: 722
Flags: MW
HStem: 0 20 222 40<216 517 240 517 240 526> 783 60<362 687 374 675>
LayerCount: 2
Fore
SplineSet
216 222 m 1
 155 126 l 2
 146 111 143 106 140 100 c 2
 122 66 l 2
 117 57 115 50 115 46 c 0
 115 36 129 30 157 30 c 2
 165 30 l 1
 159 0 l 1
 0 0 l 1
 6 30 l 1
 17 31 l 2
 53 33 59 37 83 75 c 2
 116 126 l 1
 491 732 l 1
 525 732 l 1
 657 123 l 1
 671 73 l 2
 679 45 694 32 717 31 c 2
 728 30 l 1
 722 0 l 1
 483 0 l 1
 489 30 l 1
 499 30 l 2
 543 30 553 37 553 68 c 0
 553 87 551 112 547 126 c 2
 526 222 l 1
 216 222 l 1
240 262 m 1
 517 262 l 1
 445 592 l 1
 240 262 l 1
362 783 m 1
 374 843 l 1
 687 843 l 1
 675 783 l 1
 362 783 l 1
EndSplineSet
EndChar
StartChar: amacron
Encoding: 318 257 118
Width: 444
Flags: W
HStem: -12 58<130.5 232.5> 0 20 505 37<311 337> 627 60<194 519 206 507>
VStem: 60 107<88.5 162.5 88.5 162.5> 374 93<455 476>
LayerCount: 2
Fore
SplineSet
447 36 m 1
 442 0 l 1x4c
 413 -9 397 -12 385 -12 c 0
 343 -12 324 14 323 73 c 1
 270 13 224 -12 166 -12 c 0
 95 -12 60 24 60 95 c 0
 60 230 163 313 329 313 c 2
 349 313 l 1
 362 379 l 2
 370 419 374 448 374 462 c 0
 374 490 355 505 319 505 c 0
 270 505 237 475 228 421 c 2
 227 412 l 1
 160 412 l 1
 177 497 l 1
 234 529 282 542 340 542 c 0
 424 542 467 510 467 448 c 0
 467 433 464 408 459 383 c 2
 412 147 l 2
 404 111 399 74 399 59 c 0
 399 41 407 32 421 32 c 0
 425 32 435 33 443 35 c 2xac
 447 36 l 1
303 83 m 1x8c
 343 283 l 1
 320 283 l 2
 227 283 167 215 167 110 c 0
 167 67 185 46 220 46 c 0
 245 46 268 56 303 83 c 1x8c
194 627 m 1
 206 687 l 1
 519 687 l 1
 507 627 l 1x10
 194 627 l 1
EndSplineSet
EndChar
StartChar: Dcaron
Encoding: 260 270 11
Width: 722
Flags: W
HStem: 0 20 703 20<165 372 372 407 407 407> 706 20<482.5 484>
VStem: 658 110<440 526 413.5 552>
LayerCount: 2
Fore
SplineSet
20 0 m 1xb0
 26 30 l 1
 35 31 l 1
 69 33 l 2
 111 37 119 49 136 127 c 2
 229 596 l 2
 235 624 238 648 238 664 c 0
 238 681 227 689 200 690 c 2
 167 692 l 1
 159 693 l 1
 165 723 l 1
 372 723 l 1
 407 723 l 1xd0
 442 725 l 1
 478 725 l 1
 478 725 481 726 484 726 c 0
 523 731 591 718 638 698 c 0
 725 660 768 584 768 468 c 0
 768 359 734 256 668 166 c 0
 586 55 476 0 335 0 c 2
 20 0 l 1xb0
351 690 m 1
 238 127 l 1
 232 88 l 1
 229 72 l 1
 235 45 259 33 311 33 c 0
 441 33 542 97 598 217 c 0
 635 293 658 398 658 482 c 0
 658 622 572 690 397 690 c 2
 351 690 l 1
699 940 m 1
 550 783 l 1
 442 783 l 1
 355 940 l 1
 398 940 l 1
 505 831 l 1
 657 940 l 1
 699 940 l 1
EndSplineSet
EndChar
StartChar: Dcroat
Encoding: 333 272 163
Width: 722
Flags: W
HStem: 0 20 349 33<97 180 90 187 289 451> 703 20<165 372 372 407 407 407> 706 20<482.5 484>
VStem: 658 110<439.5 526 413.5 552>
LayerCount: 2
Fore
SplineSet
20 0 m 1x98
 26 30 l 1
 35 31 l 1
 69 33 l 2
 111 37 119 49 136 126 c 2
 180 349 l 1
 90 349 l 1
 97 382 l 1
 187 382 l 1
 229 596 l 2
 235 624 238 648 238 664 c 0
 238 681 227 689 200 690 c 2
 167 692 l 1
 159 693 l 1
 165 723 l 1
 372 723 l 1
 407 723 l 1xe8
 442 725 l 1
 478 725 l 1
 478 725 481 726 484 726 c 0
 523 731 591 718 638 698 c 0
 725 659 768 584 768 468 c 0
 768 359 734 255 668 166 c 0
 586 55 476 0 335 0 c 2
 20 0 l 1x98
283 349 m 1
 238 126 l 1
 232 88 l 1
 229 72 l 1
 235 45 259 33 311 33 c 0
 441 33 542 97 598 216 c 0
 635 293 658 397 658 482 c 0
 658 622 572 690 397 690 c 2
 351 690 l 1
 289 382 l 1
 458 382 l 1
 451 349 l 1
 283 349 l 1
EndSplineSet
EndChar
StartChar: dcroat
Encoding: 338 273 199
Width: 500
Flags: W
HStem: -12 63<224 228> 0 20 504 38<327 378 283 391> 609 30<328 467 323 473 570 622>
VStem: 73 107<128.5 260 128.5 263>
LayerCount: 2
Fore
SplineSet
345 0 m 1x78
 363 87 l 1
 304 17 257 -12 199 -12 c 0x88
 115 -12 73 43 73 153 c 0
 73 373 200 542 366 542 c 0
 390 542 418 538 451 530 c 1
 467 609 l 1
 323 609 l 1
 328 639 l 1
 473 639 l 1
 474 645 l 1
 483 693 l 2
 483 694 484 697 485 701 c 0
 486 706 487 711 487 714 c 0
 487 729 471 739 444 740 c 2
 434 741 l 1
 441 771 l 1
 596 771 l 1
 570 639 l 1
 629 639 l 1
 622 609 l 1
 563 609 l 1
 467 126 l 1
 458 78 l 1
 456 71 l 2
 455 66 454 59 454 58 c 0
 454 42 470 33 498 31 c 2
 507 30 l 1
 501 0 l 1
 345 0 l 1x78
370 121 m 1xa8
 444 492 l 1
 419 500 399 504 383 504 c 0
 271 504 180 353 180 167 c 0
 180 90 202 51 246 51 c 0
 278 51 315 72 370 121 c 1xa8
EndSplineSet
EndChar
StartChar: Eogonek
Encoding: 263 280 18
Width: 611
Flags: MW
HStem: -181 40<460.5 461> 0 42<305 427 427 473 454 473> 684 39<351 553 351 351>
VStem: 354 70<-114.5 -95>
LayerCount: 2
Fore
SplineSet
587 0 m 1
 21 0 l 1
 27 30 l 1
 36 31 l 1
 70 33 l 2
 112 37 120 49 137 126 c 2
 230 596 l 2
 236 624 239 648 239 664 c 0
 239 681 228 689 201 690 c 2
 168 692 l 1
 160 693 l 1
 166 723 l 1
 704 723 l 1
 679 596 l 1
 625 596 l 1
 626 606 l 1
 632 647 l 1
 635 665 l 1
 631 678 605 684 553 684 c 2
 351 684 l 1
 292 394 l 1
 470 395 l 1
 501 396 l 2
 532 396 534 398 542 433 c 0
 544 437 545 441 546 446 c 2
 548 454 l 1
 587 454 l 1
 556 295 l 1
 516 295 l 1
 518 304 l 2
 519 310 521 332 521 336 c 0
 521 346 514 351 497 353 c 2
 462 355 l 1
 285 355 l 1
 239 126 l 2
 235 103 233 89 233 75 c 0
 233 47 245 42 305 42 c 2
 427 42 l 2
 519 42 539 48 546 79 c 2
 557 123 l 1
 559 132 l 1
 613 132 l 1
 587 0 l 1
530 -133 m 1
 523 -167 l 1
 497 -177 474 -181 448 -181 c 0
 386 -181 354 -160 354 -118 c 0
 354 -72 385 -36 454 0 c 1
 506 0 l 1
 449 -32 424 -63 424 -101 c 0
 424 -128 442 -141 479 -141 c 0
 496 -141 511 -139 530 -133 c 1
EndSplineSet
EndChar
StartChar: eogonek
Encoding: 301 281 84
Width: 444
Flags: MW
HStem: -181 40<299.5 300> -12 49<261.5 288> 0 20 286 30<203 377 203 473 198 377> 509 33<315.5 357.5>
VStem: 78 70 78 106<127.5 187.5 127.5 228.5> 396 93<428.5 449.5 391 462>
LayerCount: 2
Fore
SplineSet
431 73 m 1
 421 24 l 1
 358 -1 312 -12 264 -12 c 0
 147 -12 78 60 78 182 c 0
 78 275 106 362 159 433 c 0
 214 506 278 542 353 542 c 0
 443 542 489 495 489 404 c 0
 489 378 483 332 475 295 c 2
 473 286 l 1
 198 286 l 1
 188 233 184 202 184 173 c 0
 184 82 223 37 300 37 c 0x5b
 342 37 382 48 431 73 c 1
203 316 m 1
 377 316 l 1
 381 337 l 2
 392 391 396 418 396 439 c 0
 396 485 376 509 339 509 c 0
 276 509 235 451 203 316 c 1
369 -133 m 1
 362 -167 l 1
 336 -177 313 -181 287 -181 c 0
 225 -181 193 -160 193 -118 c 0
 193 -72 224 -35 293 0 c 1
 345 0 l 1
 288 -32 263 -63 263 -101 c 0
 263 -128 281 -141 318 -141 c 0xa4
 335 -141 351 -139 369 -133 c 1
EndSplineSet
EndChar
StartChar: Gbreve
Encoding: 264 286 19
Width: 722
Flags: MW
HStem: -18 41<364.5 422.5> 709 33<485 586> 783 69<537.5 604>
VStem: 107 107<177 280 177 323>
LayerCount: 2
Fore
SplineSet
667 181 m 1
 634 18 l 1
 530 -7 454 -18 391 -18 c 0
 210 -18 107 85 107 267 c 0
 107 379 142 486 208 577 c 0
 289 689 399 742 550 742 c 0
 627 742 695 730 770 704 c 1
 743 573 l 1
 689 573 l 1
 690 582 l 2
 698 628 698 628 698 638 c 0
 698 676 627 709 545 709 c 0
 425 709 330 638 272 506 c 0
 238 426 214 319 214 241 c 0
 214 113 302 23 427 23 c 0
 457 23 491 28 536 39 c 1
 565 181 l 2
 568 200 572 234 572 249 c 0
 572 266 563 272 535 275 c 2
 503 278 l 1
 493 278 l 1
 500 308 l 1
 776 308 l 1
 771 278 l 1
 761 278 l 1
 734 275 l 2
 694 271 690 267 679 230 c 2
 667 181 l 1
429 940 m 1
 461 940 l 1
 467 879 501 852 574 852 c 0
 647 852 692 879 723 940 c 1
 754 940 l 1
 720 841 648 783 560 783 c 0
 484 783 428 839 428 913 c 0
 428 920 428 927 429 940 c 1
EndSplineSet
EndChar
StartChar: gbreve
Encoding: 302 287 85
Width: 500
Flags: W
HStem: -205 33<174.5 242.5 174.5 255.5> 0 20 167 33<262.5 304 254.5 325> 509 33<304 350.5 277 353.5> 626 69<332.5 399>
VStem: 8 99<-116.5 -81.5> 124 94<281 344.5 256.5 375> 354 99<-65 -24> 390 94<364.5 415 337 452.5>
LayerCount: 2
Fore
SplineSet
263 84 m 2
 293 84 l 2
 401 84 453 53 453 -11 c 0xf1
 453 -119 332 -205 179 -205 c 0
 76 -205 8 -167 8 -108 c 0
 8 -55 46 -16 132 20 c 1
 103 36 90 53 90 76 c 0
 90 109 123 144 184 179 c 2
 199 187 l 1
 145 217 124 252 124 310 c 0
 124 440 217 542 337 542 c 0
 364 542 387 536 419 522 c 1
 593 536 l 1
 557 477 l 1
 445 498 l 1
 473 462 484 434 484 396 c 0
 484 278 380 167 270 167 c 0
 255 167 243 169 230 176 c 1
 196 152 181 132 181 112 c 0xf680
 181 94 208 84 263 84 c 2
335 509 m 0xf280
 273 509 218 404 218 285 c 0
 218 228 236 200 273 200 c 0
 335 200 390 305 390 424 c 0
 390 481 372 509 335 509 c 0xf280
269 12 m 2xf5
 156 12 l 1
 123 -17 107 -50 107 -92 c 0
 107 -141 145 -172 204 -172 c 0
 281 -172 354 -109 354 -42 c 0
 354 -6 326 12 269 12 c 2xf5
224 783 m 1
 256 783 l 1
 262 722 296 695 369 695 c 0
 442 695 487 722 518 783 c 1
 549 783 l 1
 514 684 443 626 355 626 c 0
 279 626 223 682 223 757 c 0x08
 223 761 223 773 224 783 c 1
EndSplineSet
EndChar
StartChar: Gcommaaccent
Encoding: 291 290 63
Width: 722
Flags: MW
HStem: -211 36<311 338 310.5 356> -18 41<364.5 422.5> 709 33<485 586>
VStem: 107 107<177 280 177 323> 378 66<-143 -115>
LayerCount: 2
Fore
SplineSet
667 181 m 1
 634 18 l 1
 530 -7 454 -18 391 -18 c 0
 210 -18 107 85 107 267 c 0
 107 379 142 486 208 577 c 0
 289 689 399 742 550 742 c 0
 627 742 695 730 770 704 c 1
 743 573 l 1
 689 573 l 1
 690 582 l 2
 698 628 698 628 698 638 c 0
 698 676 627 709 545 709 c 0
 425 709 330 638 272 506 c 0
 238 426 214 319 214 241 c 0
 214 113 302 23 427 23 c 0
 457 23 491 28 536 39 c 1
 565 181 l 2
 568 200 572 234 572 249 c 0
 572 266 563 272 535 275 c 2
 503 278 l 1
 493 278 l 1
 500 308 l 1
 776 308 l 1
 771 278 l 1
 761 278 l 1
 734 275 l 2
 694 271 690 267 679 230 c 2
 667 181 l 1
262 -206 m 1
 269 -170 l 1
 283 -173 302 -175 319 -175 c 0
 357 -175 378 -158 378 -128 c 0
 378 -102 358 -90 310 -85 c 1
 316 -54 l 1
 405 -56 444 -77 444 -124 c 0
 444 -175 392 -211 320 -211 c 0
 302 -211 283 -209 262 -206 c 1
EndSplineSet
EndChar
StartChar: gcommaaccent
Encoding: 330 291 130
Width: 500
Flags: W
HStem: -205 33<174.5 242.5 174.5 255.5> 0 20 167 33<262.5 304 254.5 325> 509 33<304 350.5 277 353.5>
VStem: 8 99<-116.5 -81.5> 124 94<281 344.5 256.5 375> 354 99<-65 -24> 390 94<364.5 415 337 452.5>
LayerCount: 2
Fore
SplineSet
263 84 m 2xfd
 293 84 l 2
 401 84 453 53 453 -11 c 0xf2
 453 -119 332 -205 179 -205 c 0
 76 -205 8 -167 8 -108 c 0
 8 -55 46 -16 132 20 c 1
 103 36 90 53 90 76 c 0
 90 109 123 144 184 179 c 2
 199 187 l 1
 145 217 124 252 124 310 c 0
 124 440 217 542 337 542 c 0
 364 542 387 536 419 522 c 1
 593 536 l 1
 557 477 l 1
 445 498 l 1
 473 462 484 434 484 396 c 0
 484 278 380 167 270 167 c 0
 255 167 243 169 230 176 c 1
 196 152 181 132 181 112 c 0
 181 94 208 84 263 84 c 2xfd
335 509 m 0xf5
 273 509 218 404 218 285 c 0
 218 228 236 200 273 200 c 0
 335 200 390 305 390 424 c 0
 390 481 372 509 335 509 c 0xf5
269 12 m 2xfa
 156 12 l 1
 123 -17 107 -50 107 -92 c 0
 107 -141 145 -172 204 -172 c 0
 281 -172 354 -109 354 -42 c 0
 354 -6 326 12 269 12 c 2xfa
385 722 m 1
 424 722 l 1
 404 626 l 1
 308 626 l 1
 324 710 l 2
 342 798 383 844 448 848 c 1
 444 824 l 1
 417 821 399 796 390 748 c 2
 385 722 l 1
EndSplineSet
EndChar
StartChar: Imacron
Encoding: 284 298 56
Width: 333
Flags: MW
HStem: 0 20 703 20<170 453 453 453> 783 60<167 492 179 480>
LayerCount: 2
Fore
SplineSet
314 30 m 1
 308 0 l 1
 25 0 l 1
 31 30 l 1
 40 31 l 1
 74 33 l 2
 116 37 124 49 141 127 c 2
 234 596 l 2
 240 624 243 648 243 664 c 0
 243 681 232 689 205 690 c 2
 172 692 l 1
 164 693 l 1
 170 723 l 1
 453 723 l 1
 447 693 l 1
 438 692 l 1
 404 690 l 2
 366 687 360 682 350 645 c 2
 337 596 l 1
 243 127 l 2
 238 101 235 75 235 60 c 0
 235 42 245 35 273 33 c 2
 305 31 l 1
 314 30 l 1
167 783 m 1
 179 843 l 1
 492 843 l 1
 480 783 l 1
 167 783 l 1
EndSplineSet
EndChar
StartChar: Iogonek
Encoding: 285 302 57
Width: 333
Flags: MW
HStem: -181 40<144 215.5> 0 20 703 20<170 453 453 453>
VStem: 82 70<-114.5 -95>
LayerCount: 2
Fore
SplineSet
314 30 m 1
 308 0 l 1
 25 0 l 1
 31 30 l 1
 40 31 l 1
 74 33 l 2
 116 37 124 49 141 127 c 2
 234 596 l 2
 240 624 243 648 243 664 c 0
 243 681 232 689 205 690 c 2
 172 692 l 1
 164 693 l 1
 170 723 l 1
 453 723 l 1
 447 693 l 1
 438 692 l 1
 404 690 l 2
 366 687 360 682 350 645 c 2
 337 596 l 1
 243 127 l 2
 238 101 235 75 235 60 c 0
 235 42 245 35 273 33 c 2
 305 31 l 1
 314 30 l 1
257 -133 m 1
 251 -167 l 1
 224 -177 202 -181 175 -181 c 0
 113 -181 82 -160 82 -118 c 0
 82 -72 113 -35 181 0 c 1
 233 0 l 1
 177 -32 152 -63 152 -101 c 0
 152 -128 170 -141 207 -141 c 0
 224 -141 239 -139 257 -133 c 1
EndSplineSet
EndChar
StartChar: iogonek
Encoding: 331 303 131
Width: 278
Flags: MW
HStem: -181 40<141.5 142> 0 20 510 20<129 297 297 297> 627 96<220 336 239 316>
VStem: 35 70<-114.5 -95>
LayerCount: 2
Fore
SplineSet
220 627 m 1
 239 723 l 1
 336 723 l 1
 316 627 l 1
 220 627 l 1
268 30 m 1
 262 0 l 1
 23 0 l 1
 29 30 l 1
 39 31 l 2
 76 33 93 37 97 43 c 0
 102 50 105 59 109 78 c 2
 120 126 l 1
 175 404 l 1
 184 451 l 2
 187 466 188 469 188 472 c 0
 188 487 167 498 132 499 c 2
 123 500 l 1
 129 530 l 1
 297 530 l 1
 216 126 l 1
 207 78 l 2
 204 65 203 61 203 58 c 0
 203 43 224 33 259 31 c 2
 268 30 l 1
211 -133 m 1
 204 -167 l 1
 178 -177 155 -181 129 -181 c 0
 67 -181 35 -160 35 -118 c 0
 35 -72 66 -35 135 0 c 1
 187 0 l 1
 130 -32 105 -63 105 -101 c 0
 105 -128 123 -141 160 -141 c 0
 177 -141 193 -139 211 -133 c 1
EndSplineSet
EndChar
StartChar: Idotaccent
Encoding: 265 304 24
Width: 333
Flags: MW
HStem: 0 20 703 20<170 453 453 453> 783 96<275 391 294 371>
LayerCount: 2
Fore
SplineSet
314 30 m 1
 308 0 l 1
 25 0 l 1
 31 30 l 1
 40 31 l 1
 74 33 l 2
 116 37 124 49 141 127 c 2
 234 596 l 2
 240 624 243 648 243 664 c 0
 243 681 232 689 205 690 c 2
 172 692 l 1
 164 693 l 1
 170 723 l 1
 453 723 l 1
 447 693 l 1
 438 692 l 1
 404 690 l 2
 366 687 360 682 350 645 c 2
 337 596 l 1
 243 127 l 2
 238 101 235 75 235 60 c 0
 235 42 245 35 273 33 c 2
 305 31 l 1
 314 30 l 1
275 783 m 1
 294 879 l 1
 391 879 l 1
 371 783 l 1
 275 783 l 1
EndSplineSet
EndChar
StartChar: Kcommaaccent
Encoding: 286 310 58
Width: 722
Flags: MW
HStem: -211 36<282.5 309 281.5 327.5> 0 20 703 20<172 455 455 455 575 798 798 798>
VStem: 349 66<-143 -115>
LayerCount: 2
Fore
SplineSet
293 365 m 1
 245 127 l 1
 238 78 l 1
 235 62 l 1
 236 44 257 33 295 31 c 2
 304 30 l 1
 298 0 l 1
 27 0 l 1
 33 30 l 1
 42 31 l 1
 76 33 l 2
 118 37 126 49 143 127 c 2
 236 596 l 2
 242 624 245 648 245 664 c 0
 245 681 234 689 207 690 c 2
 174 692 l 1
 166 693 l 1
 172 723 l 1
 455 723 l 1
 449 693 l 1
 440 692 l 1
 406 690 l 2
 368 687 362 682 352 645 c 2
 339 596 l 1
 294 368 l 1
 558 596 l 2
 582 618 593 628 609 646 c 0
 623 662 635 673 641 678 c 0
 646 681 648 684 648 685 c 0
 648 690 641 692 622 692 c 2
 578 693 l 1
 569 693 l 1
 575 723 l 1
 798 723 l 1
 792 693 l 1
 784 692 l 1
 754 692 l 2
 720 690 711 685 605 596 c 2
 383 408 l 1
 580 126 l 1
 620 73 l 2
 649 35 651 35 710 31 c 2
 720 30 l 1
 714 0 l 1
 419 0 l 1
 425 30 l 1
 434 30 l 2
 475 30 496 35 496 45 c 0
 496 57 479 89 453 128 c 2
 293 365 l 1
233 -206 m 1
 240 -170 l 1
 254 -173 273 -175 290 -175 c 0
 328 -175 349 -158 349 -128 c 0
 349 -102 330 -90 281 -85 c 1
 287 -54 l 1
 376 -56 415 -77 415 -124 c 0
 415 -175 363 -211 292 -211 c 0
 273 -211 254 -209 233 -206 c 1
EndSplineSet
EndChar
StartChar: kcommaaccent
Encoding: 321 311 121
Width: 500
Flags: MW
HStem: -211 36<226 252.5 225 271> 0 20 510 20<403 568 568 568>
VStem: 293 66<-143 -115>
LayerCount: 2
Fore
SplineSet
236 30 m 1
 229 0 l 1
 15 0 l 1
 21 30 l 1
 30 31 l 2
 74 34 80 39 89 78 c 2
 99 126 l 1
 203 644 l 1
 212 693 l 1
 214 700 l 2
 215 705 216 711 216 714 c 0
 216 729 200 739 172 740 c 2
 163 741 l 1
 169 771 l 1
 325 771 l 1
 227 285 l 1
 250 285 l 1
 367 403 l 1
 414 451 l 1
 439 478 l 2
 445 484 449 490 449 492 c 0
 449 498 444 499 422 499 c 2
 420 499 l 1
 418 500 l 1
 415 500 l 1
 412 500 l 1
 408 500 l 1
 397 500 l 1
 403 530 l 1
 568 530 l 1
 562 500 l 1
 553 499 l 2
 502 495 500 494 460 453 c 2
 416 408 l 1
 326 312 l 1
 420 123 l 2
 461 44 469 34 497 31 c 2
 506 30 l 1
 500 0 l 1
 375 0 l 1
 245 261 l 1
 223 261 l 1
 196 126 l 1
 187 78 l 2
 184 65 183 61 183 57 c 0
 183 42 200 32 226 31 c 2
 236 30 l 1
176 -206 m 1
 183 -170 l 1
 198 -173 217 -175 233 -175 c 0
 272 -175 293 -158 293 -128 c 0
 293 -102 273 -90 224 -85 c 1
 231 -54 l 1
 320 -56 359 -77 359 -124 c 0
 359 -175 307 -211 235 -211 c 0
 217 -211 198 -209 176 -206 c 1
EndSplineSet
EndChar
StartChar: Lacute
Encoding: 266 313 25
Width: 611
Flags: MW
HStem: 0 42<312 428 428 472.5> 703 20<172 455 455 455>
LayerCount: 2
Fore
SplineSet
587 0 m 1
 27 0 l 1
 33 30 l 1
 42 31 l 1
 76 33 l 2
 118 37 126 49 143 127 c 2
 236 596 l 2
 242 624 245 648 245 664 c 0
 245 681 234 689 207 690 c 2
 174 692 l 1
 166 693 l 1
 172 723 l 1
 455 723 l 1
 449 693 l 1
 440 692 l 1
 406 690 l 2
 368 687 362 682 352 645 c 2
 339 596 l 1
 245 127 l 2
 238 92 236 77 236 66 c 0
 236 45 245 42 312 42 c 2
 428 42 l 2
 517 42 543 51 551 85 c 2
 562 135 l 1
 565 145 l 1
 616 145 l 1
 587 0 l 1
307 783 m 1
 456 940 l 1
 583 940 l 1
 352 783 l 1
 307 783 l 1
EndSplineSet
EndChar
StartChar: lcommaaccent
Encoding: 322 316 122
Width: 278
Flags: MW
HStem: -211 36<79 105.5 78 124> 0 20
VStem: 146 66<-143 -115>
LayerCount: 2
Fore
SplineSet
268 30 m 1
 262 0 l 1
 23 0 l 1
 29 30 l 1
 39 31 l 2
 76 33 93 37 97 43 c 0
 102 50 105 59 109 78 c 2
 120 126 l 1
 223 645 l 1
 232 693 l 2
 235 706 236 710 236 713 c 0
 236 729 216 738 180 740 c 2
 171 741 l 1
 177 771 l 1
 345 771 l 1
 216 126 l 1
 207 78 l 2
 204 65 203 61 203 58 c 0
 203 43 224 33 259 31 c 2
 268 30 l 1
29 -206 m 1
 36 -170 l 1
 51 -173 70 -175 86 -175 c 0
 125 -175 146 -158 146 -128 c 0
 146 -102 126 -90 77 -85 c 1
 84 -54 l 1
 173 -56 212 -77 212 -124 c 0
 212 -175 160 -211 88 -211 c 0
 70 -211 51 -209 29 -206 c 1
EndSplineSet
EndChar
StartChar: Lcaron
Encoding: 267 317 26
Width: 611
Flags: MW
HStem: 0 42<312 428 428 472.5> 703 20<172 455 455 455 539 635 635 635>
LayerCount: 2
Fore
SplineSet
587 0 m 1
 27 0 l 1
 33 30 l 1
 42 31 l 1
 76 33 l 2
 118 37 126 49 143 127 c 2
 236 596 l 2
 242 624 245 648 245 664 c 0
 245 681 234 689 207 690 c 2
 174 692 l 1
 166 693 l 1
 172 723 l 1
 455 723 l 1
 449 693 l 1
 440 692 l 1
 406 690 l 2
 368 687 362 682 352 645 c 2
 339 596 l 1
 245 127 l 2
 238 92 236 77 236 66 c 0
 236 45 245 42 312 42 c 2
 428 42 l 2
 517 42 543 51 551 85 c 2
 562 135 l 1
 565 145 l 1
 616 145 l 1
 587 0 l 1
558 627 m 1
 520 627 l 1
 539 723 l 1
 635 723 l 1
 619 639 l 2
 601 551 560 506 495 501 c 1
 500 526 l 1
 526 528 544 553 553 601 c 2
 558 627 l 1
EndSplineSet
EndChar
StartChar: lcaron
Encoding: 304 318 91
Width: 406
Flags: MW
HStem: 0 20
LayerCount: 2
Fore
SplineSet
268 30 m 1
 262 0 l 1
 23 0 l 1
 29 30 l 1
 39 31 l 2
 76 33 93 37 97 43 c 0
 102 50 105 59 109 78 c 2
 120 126 l 1
 223 645 l 1
 232 693 l 2
 235 706 236 710 236 713 c 0
 236 729 216 738 180 740 c 2
 171 741 l 1
 177 771 l 1
 345 771 l 1
 216 126 l 1
 207 78 l 2
 204 65 203 61 203 58 c 0
 203 43 224 33 259 31 c 2
 268 30 l 1
461 675 m 1
 422 675 l 1
 441 771 l 1
 538 771 l 1
 521 687 l 2
 503 599 463 554 397 549 c 1
 402 574 l 1
 428 576 446 601 456 649 c 2
 461 675 l 1
EndSplineSet
EndChar
StartChar: Lslash
Encoding: 334 321 164
Width: 611
Flags: MW
HStem: 0 42<312 428 428 472.5> 703 20<172 455 455 455>
LayerCount: 2
Fore
SplineSet
27 0 m 1
 33 30 l 1
 42 31 l 1
 76 33 l 2
 118 37 126 49 143 127 c 2
 191 365 l 1
 90 313 l 1
 98 355 l 1
 199 407 l 1
 236 596 l 2
 242 624 245 648 245 664 c 0
 245 681 234 689 207 690 c 2
 174 692 l 1
 166 693 l 1
 172 723 l 1
 455 723 l 1
 449 693 l 1
 440 692 l 1
 406 690 l 2
 368 687 362 682 352 645 c 2
 339 596 l 1
 313 466 l 1
 461 542 l 1
 452 501 l 1
 304 425 l 1
 245 127 l 2
 238 91 236 77 236 66 c 0
 236 45 245 42 312 42 c 2
 428 42 l 2
 517 42 543 51 551 85 c 2
 562 135 l 1
 565 145 l 1
 616 145 l 1
 587 0 l 1
 27 0 l 1
EndSplineSet
EndChar
StartChar: Nacute
Encoding: 268 323 27
Width: 722
Flags: W
HStem: -10 20 0 20 703 20<166 328 328 328 620 845 845 845>
LayerCount: 2
Fore
SplineSet
574 -10 m 1xa0
 276 596 l 1
 183 127 l 2
 179 107 175 74 175 59 c 0
 175 42 185 35 212 33 c 2
 245 31 l 1
 254 30 l 1
 248 0 l 1
 21 0 l 1x40
 27 30 l 1
 37 31 l 1
 70 33 l 2
 112 37 121 49 137 127 c 2
 231 596 l 2
 236 620 239 648 239 664 c 0
 239 681 228 689 201 690 c 2
 168 692 l 1
 160 693 l 1
 166 723 l 1
 328 723 l 1
 599 162 l 1
 686 596 l 2
 689 615 693 649 693 664 c 0
 693 681 682 689 656 690 c 2
 623 692 l 1
 614 693 l 1
 620 723 l 1
 845 723 l 1
 839 693 l 1
 830 692 l 1
 796 690 l 2
 758 687 753 682 742 645 c 2
 729 596 l 1
 608 -10 l 1
 574 -10 l 1xa0
472 783 m 1
 621 940 l 1
 748 940 l 1
 518 783 l 1
 472 783 l 1
EndSplineSet
EndChar
StartChar: Ncommaaccent
Encoding: 288 325 60
Width: 722
Flags: MW
HStem: -211 36<292.5 318 291 337.5> 0 20 703 20<166 328 328 328 620 845 845 845>
VStem: 358 67<-143 -115.5>
LayerCount: 2
Fore
SplineSet
574 -10 m 1
 276 596 l 1
 183 127 l 2
 179 107 175 74 175 59 c 0
 175 42 185 35 212 33 c 2
 245 31 l 1
 254 30 l 1
 248 0 l 1
 21 0 l 1
 27 30 l 1
 37 31 l 1
 70 33 l 2
 112 37 121 49 137 127 c 2
 231 596 l 2
 236 620 239 648 239 663 c 0
 239 681 228 689 201 690 c 2
 168 692 l 1
 160 693 l 1
 166 723 l 1
 328 723 l 1
 599 162 l 1
 686 596 l 2
 689 615 693 649 693 664 c 0
 693 681 682 689 656 690 c 2
 623 692 l 1
 614 693 l 1
 620 723 l 1
 845 723 l 1
 839 693 l 1
 830 692 l 1
 796 690 l 2
 758 687 753 682 742 645 c 2
 729 596 l 1
 608 -10 l 1
 574 -10 l 1
243 -206 m 1
 250 -170 l 1
 264 -173 283 -175 299 -175 c 0
 337 -175 358 -158 358 -128 c 0
 358 -103 339 -90 291 -85 c 1
 297 -54 l 1
 386 -56 425 -77 425 -124 c 0
 425 -175 373 -211 302 -211 c 0
 283 -211 265 -209 243 -206 c 1
EndSplineSet
EndChar
StartChar: ncommaaccent
Encoding: 323 326 123
Width: 500
Flags: W
HStem: -211 36<205 231 204 250> 0 20 479 63<365.5 463.5> 510 20<124 280 280 280>
VStem: 271 67<-143 -115.5> 425 99<449.5 453.5>
LayerCount: 2
Fore
SplineSet
280 530 m 1x5c
 262 443 l 1
 326 513 376 542 434 542 c 0
 493 542 524 513 524 459 c 0
 524 440 520 412 513 373 c 2
 463 126 l 1
 455 78 l 2
 452 64 451 60 451 58 c 0
 451 42 467 32 494 31 c 2
 503 30 l 1
 497 0 l 1
 283 0 l 1
 289 30 l 1
 298 31 l 2
 342 34 348 39 356 78 c 2
 367 126 l 1
 414 358 l 1
 420 396 l 2
 423 415 425 432 425 441 c 0
 425 466 412 479 385 479 c 0x6c
 346 479 307 458 256 410 c 1
 199 126 l 1
 190 78 l 2
 190 77 190 75 188 71 c 0
 187 65 186 60 186 57 c 0
 186 42 203 32 229 31 c 2
 239 30 l 1
 233 0 l 1
 18 0 l 1
 24 30 l 1
 34 31 l 2
 77 34 83 39 92 78 c 2
 102 126 l 1
 158 404 l 1
 166 451 l 2
 170 465 171 469 171 472 c 0
 171 488 155 498 127 499 c 2
 118 500 l 1
 124 530 l 1
 280 530 l 1x5c
155 -206 m 1x9c
 163 -170 l 1
 176 -173 196 -175 212 -175 c 0
 250 -175 271 -158 271 -128 c 0
 271 -103 252 -90 204 -85 c 1
 210 -54 l 1
 299 -56 338 -77 338 -124 c 0
 338 -175 286 -211 214 -211 c 0
 196 -211 177 -209 155 -206 c 1x9c
EndSplineSet
EndChar
StartChar: omacron
Encoding: 324 333 124
Width: 500
Flags: MW
HStem: -12 33<233 304 233 327> 509 33<309.5 381> 627 60<221 546 233 534>
VStem: 77 102<119.5 246.5 109.5 285> 432 102<286 410 243 421.5>
LayerCount: 2
Fore
SplineSet
361 542 m 0
 476 542 534 476 534 344 c 0
 534 142 409 -12 245 -12 c 0
 133 -12 77 54 77 185 c 0xd8
 77 385 202 542 361 542 c 0
355 509 m 0
 264 509 179 339 179 154 c 0
 179 65 206 21 260 21 c 0
 348 21 432 195 432 377 c 0
 432 466 407 509 355 509 c 0
221 627 m 1
 233 687 l 1
 546 687 l 1
 534 627 l 1x20
 221 627 l 1
EndSplineSet
EndChar
StartChar: ohungarumlaut
Encoding: 307 337 100
Width: 500
Flags: MW
HStem: -12 33<233 304 233 327> 509 33<309.5 381>
VStem: 77 102<119.5 246.5 109.5 285> 432 102<286 410 243 421.5>
LayerCount: 2
Fore
SplineSet
361 542 m 0
 476 542 534 476 534 344 c 0
 534 142 409 -12 245 -12 c 0
 133 -12 77 54 77 185 c 0xf0
 77 385 202 542 361 542 c 0
355 509 m 0
 264 509 179 339 179 154 c 0
 179 65 206 21 260 21 c 0
 348 21 432 195 432 377 c 0
 432 466 407 509 355 509 c 0
251 626 m 1
 387 783 l 1
 469 783 l 1
 281 626 l 1
 251 626 l 1
401 626 m 1
 537 783 l 1
 620 783 l 1
 432 626 l 1
 401 626 l 1
EndSplineSet
EndChar
StartChar: OE
Encoding: 140 338 160
Width: 889
Flags: W
HStem: -18 33<315 343> 0 20 684 39<723 832 723 723> 708 33<445.5 509 430 514.5>
VStem: 101 105<193 287.5 160 317.5>
LayerCount: 2
Fore
SplineSet
614 688 m 1x98
 621 723 l 1
 983 723 l 1
 958 596 l 1
 904 596 l 1
 905 606 l 2
 908 628 910 641 911 644 c 0
 911 647 911 647 912 649 c 0
 914 654 915 659 915 661 c 0
 915 676 887 684 832 684 c 2
 723 684 l 1
 665 394 l 1
 755 395 l 1
 786 396 l 2
 816 396 819 398 826 427 c 2
 827 430 l 1
 829 437 l 1
 831 446 l 1
 833 454 l 1
 879 454 l 1
 847 295 l 1
 802 295 l 1
 803 304 l 2
 805 321 806 331 806 336 c 0
 806 346 799 351 783 353 c 2
 747 355 l 1
 658 355 l 1
 612 126 l 2
 608 109 606 88 606 74 c 0
 606 47 618 42 678 42 c 2
 726 42 l 2
 797 42 819 50 826 79 c 2
 834 114 l 1
 836 123 l 1
 891 123 l 1
 866 0 l 1
 476 0 l 1x68
 483 36 l 1
 454 14 437 4 419 -3 c 0
 400 -11 356 -18 330 -18 c 0
 300 -18 242 -4 213 10 c 0
 142 45 101 133 101 253 c 0
 101 382 140 500 214 596 c 0
 288 691 379 741 481 741 c 0
 537 741 576 726 614 688 c 1x98
536 297 m 2x98
 561 425 l 2
 576 497 583 549 583 584 c 0
 583 666 548 708 481 708 c 0
 410 708 346 658 290 559 c 0
 235 461 206 347 206 228 c 0
 206 92 256 15 344 15 c 0
 442 15 495 92 536 297 c 2x98
EndSplineSet
EndChar
StartChar: oe
Encoding: 156 339 193
Width: 722
Flags: W
HStem: -12 31<224.5 272> -12 48<554 578.5> 285 31<507 655 507 751 500 655> 511 31<322.5 369> 512 29<605 640.5>
VStem: 77 95<126 184.5 104.5 235> 672 91<426 436 376 462.5>
LayerCount: 2
Fore
SplineSet
708 71 m 1x6e
 698 22 l 1
 641 -2 600 -12 557 -12 c 0x56
 484 -12 438 19 406 92 c 1
 339 10 304 -12 240 -12 c 0
 138 -12 77 63 77 189 c 0
 77 281 105 364 159 435 c 0
 214 506 278 542 351 542 c 0x96
 417 542 456 515 478 452 c 1
 531 514 577 541 633 541 c 0
 713 541 763 483 763 389 c 0
 763 363 758 317 753 294 c 2
 751 285 l 1
 500 285 l 1
 491 238 487 204 487 171 c 0
 487 82 521 36 587 36 c 0
 621 36 657 46 708 71 c 1x6e
347 511 m 0
 298 511 257 474 226 400 c 0
 194 325 172 222 172 147 c 0
 172 62 198 19 251 19 c 0xb6
 309 19 348 71 375 183 c 0
 395 261 414 376 414 412 c 0
 414 477 391 511 347 511 c 0
507 316 m 1
 655 316 l 1
 659 337 l 2
 667 379 672 414 672 438 c 0
 672 487 656 512 625 512 c 0x2e
 574 512 539 453 507 316 c 1
EndSplineSet
EndChar
StartChar: Racute
Encoding: 271 340 36
Width: 667
Flags: MW
HStem: 0 20 703 20<160 333 333 333>
VStem: 547 106<529 611 529 623.5>
LayerCount: 2
Fore
SplineSet
271 318 m 1
 233 127 l 1
 226 78 l 1
 223 62 l 1
 224 44 245 33 283 31 c 2
 292 30 l 1
 286 0 l 1
 15 0 l 1
 21 30 l 1
 30 31 l 1
 64 33 l 2
 106 37 114 49 131 127 c 2
 224 596 l 2
 230 624 233 648 233 664 c 0
 233 681 222 688 195 690 c 2
 162 692 l 1
 154 693 l 1
 160 723 l 1
 333 723 l 1
 381 724 l 1
 422 725 l 1
 462 726 l 1
 470 727 l 2
 507 730 558 719 592 700 c 0
 632 678 653 638 653 584 c 0
 653 474 579 381 458 340 c 1
 558 128 l 1
 591 64 l 2
 605 37 608 35 637 32 c 2
 657 31 l 1
 667 30 l 1
 661 0 l 1
 489 0 l 1
 355 318 l 1
 271 318 l 1
278 351 m 1
 314 351 l 2
 459 351 547 439 547 584 c 0
 547 663 513 690 415 690 c 2
 346 690 l 1
 278 351 l 1
383 783 m 1
 531 940 l 1
 658 940 l 1
 428 783 l 1
 383 783 l 1
EndSplineSet
EndChar
StartChar: Rcommaaccent
Encoding: 290 342 62
Width: 667
Flags: MW
HStem: -211 36<288.5 315 287.5 333.5> 0 20 703 20<160 333 333 333>
VStem: 355 66<-143 -115> 547 106<529 611 529 623.5>
LayerCount: 2
Fore
SplineSet
271 318 m 1
 233 127 l 1
 226 78 l 1
 223 62 l 1
 224 44 245 33 283 31 c 2
 292 30 l 1
 286 0 l 1
 15 0 l 1
 21 30 l 1
 30 31 l 1
 64 33 l 2
 106 37 114 49 131 127 c 2
 224 596 l 2
 230 624 233 648 233 664 c 0
 233 681 222 688 195 690 c 2
 162 692 l 1
 154 693 l 1
 160 723 l 1
 333 723 l 1
 381 724 l 1
 422 725 l 1
 462 726 l 1
 470 727 l 2
 506 730 557 719 592 700 c 0
 632 678 653 638 653 584 c 0
 653 474 579 381 458 340 c 1
 558 128 l 1
 591 64 l 2
 605 37 608 35 637 32 c 2
 657 31 l 1
 667 30 l 1
 661 0 l 1
 489 0 l 1
 355 318 l 1
 271 318 l 1
278 351 m 1
 314 351 l 2
 459 351 547 439 547 584 c 0
 547 663 513 690 415 690 c 2
 346 690 l 1
 278 351 l 1
239 -206 m 1
 246 -170 l 1
 260 -173 279 -175 296 -175 c 0
 334 -175 355 -158 355 -128 c 0
 355 -102 336 -90 287 -85 c 1
 293 -54 l 1
 382 -56 421 -77 421 -124 c 0
 421 -175 369 -211 298 -211 c 0
 279 -211 261 -209 239 -206 c 1
EndSplineSet
EndChar
StartChar: rcommaaccent
Encoding: 325 343 125
Width: 333
Flags: W
HStem: -211 36<82.5 109 81.5 127.5> 0 20 510 20<121 277 277 277> 522 20<380.5 411.5>
VStem: 149 66<-143 -115>
LayerCount: 2
Fore
SplineSet
236 30 m 1x18
 229 0 l 1
 15 0 l 1
 21 30 l 1
 30 31 l 2
 74 34 80 39 89 78 c 2
 99 126 l 1
 155 404 l 1
 163 451 l 2
 164 453 164 455 165 459 c 0
 166 465 167 470 167 472 c 0
 167 488 151 498 124 499 c 2
 115 500 l 1
 121 530 l 1
 277 530 l 1xe8
 259 443 l 1
 310 512 355 542 406 542 c 0
 417 542 425 540 434 536 c 1
 406 391 l 1
 360 391 l 1
 361 400 l 2
 362 408 362 410 364 421 c 0
 365 425 366 433 366 437 c 0
 366 451 359 458 345 458 c 0
 317 458 289 440 250 397 c 1
 196 126 l 1
 187 78 l 2
 184 65 183 61 183 57 c 0
 183 42 200 32 226 31 c 2
 236 30 l 1x18
33 -206 m 1
 40 -170 l 1
 54 -173 73 -175 90 -175 c 0
 128 -175 149 -158 149 -128 c 0
 149 -102 130 -90 81 -85 c 1
 87 -54 l 1
 176 -56 215 -77 215 -124 c 0
 215 -175 163 -211 92 -211 c 0
 73 -211 54 -209 33 -206 c 1
EndSplineSet
EndChar
StartChar: rcaron
Encoding: 328 345 128
Width: 333
Flags: W
HStem: 0 20 510 20<121 277 277 277> 522 20<380.5 411.5>
LayerCount: 2
Fore
SplineSet
236 30 m 1x20
 229 0 l 1
 15 0 l 1
 21 30 l 1
 30 31 l 2
 74 34 80 39 89 78 c 2
 99 126 l 1
 155 404 l 1
 163 451 l 2
 164 453 164 455 165 459 c 0
 166 465 167 470 167 472 c 0
 167 488 151 498 124 499 c 2
 115 500 l 1
 121 530 l 1
 277 530 l 1xc0
 259 443 l 1
 310 512 355 542 406 542 c 0
 417 542 425 540 434 536 c 1
 406 391 l 1
 360 391 l 1
 361 400 l 1
 361 403 l 2
 362 404 362 405 362 408 c 2
 363 413 l 2
 363 415 364 417 364 417 c 1
 364 421 l 2
 365 424 366 433 366 438 c 0
 366 451 359 458 345 458 c 0
 317 458 288 440 250 397 c 1
 196 126 l 1
 187 78 l 2
 184 65 183 61 183 57 c 0
 183 42 200 32 226 31 c 2
 236 30 l 1x20
494 783 m 1
 346 626 l 1
 237 626 l 1
 151 783 l 1
 193 783 l 1
 301 674 l 1
 452 783 l 1
 494 783 l 1
EndSplineSet
EndChar
StartChar: Scedilla
Encoding: 274 350 40
Width: 556
Flags: W
HStem: -211 36<213 230.5 204 255.5> -18 36<231.5 302> 0 20 708 33<384 460.5 360.5 466.5>
VStem: 169 105<528 579.5> 272 69<-141.5 -112> 444 109<196.5 221.5>
LayerCount: 2
Fore
SplineSet
61 15 m 1xda
 89 154 l 1
 140 154 l 1
 139 145 l 2
 138 144 138 139 137 132 c 0
 136 120 134 109 133 105 c 0
 131 100 130 92 130 89 c 0
 130 50 193 18 270 18 c 0
 374 18 444 90 444 197 c 0
 444 246 428 267 356 311 c 2
 299 345 l 2
 209 400 169 453 169 518 c 0
 169 641 287 741 434 741 c 0
 487 741 542 731 612 710 c 1
 586 582 l 1
 532 582 l 1
 533 590 l 2
 534 592 534 596 535 603 c 0
 536 615 538 623 539 629 c 0
 541 635 543 649 543 654 c 0
 543 689 503 708 430 708 c 0
 338 708 274 643 274 548 c 0
 274 508 298 476 354 443 c 2
 412 408 l 2
 520 343 553 301 553 230 c 0
 553 163 524 104 469 56 c 0
 410 5 346 -18 258 -18 c 0
 182 -18 119 -7 61 15 c 1xda
156 -201 m 1
 163 -167 l 1
 182 -173 197 -175 211 -175 c 0
 250 -175 272 -157 272 -126 c 0
 272 -98 248 -87 189 -85 c 1
 253 0 l 1
 291 0 l 1
 248 -58 l 1
 313 -64 341 -82 341 -119 c 0xa4
 341 -168 287 -211 224 -211 c 0
 202 -211 179 -208 156 -201 c 1
EndSplineSet
EndChar
StartChar: scedilla
Encoding: 329 351 129
Width: 389
Flags: MW
HStem: -211 36<133 150 123.5 175> -12 33<167.5 220 164 250.5> 0 20 509 33<286.5 329>
VStem: 126 97<389.5 418> 168 69 288 103<123 153>
LayerCount: 2
Fore
SplineSet
52 27 m 1
 76 150 l 1
 125 150 l 1
 124 141 l 1
 118 106 l 2
 117 99 116 92 116 86 c 0
 116 43 140 21 188 21 c 0
 252 21 288 63 288 137 c 0
 288 169 272 194 236 223 c 2
 211 242 l 2
 154 285 126 326 126 367 c 0
 126 469 203 542 310 542 c 0
 352 542 386 533 423 512 c 1
 400 397 l 1
 352 397 l 1
 354 406 l 2
 357 422 360 447 360 462 c 0
 360 494 345 509 313 509 c 0
 260 509 223 465 223 401 c 0
 223 378 234 356 253 342 c 2
 290 315 l 1
 313 296 l 2
 379 244 391 226 391 179 c 0
 391 67 309 -12 192 -12 c 0x5a
 143 -12 102 0 52 27 c 1
76 -201 m 1
 82 -167 l 1
 102 -173 117 -175 130 -175 c 0
 170 -175 192 -157 192 -126 c 0
 192 -98 168 -87 109 -85 c 1
 173 0 l 1
 211 0 l 1
 168 -58 l 1
 233 -64 261 -82 261 -119 c 0
 261 -168 206 -211 144 -211 c 0xa4
 122 -211 100 -208 76 -201 c 1
EndSplineSet
EndChar
StartChar: Scaron
Encoding: 138 352 39
Width: 556
Flags: MW
HStem: -18 36<231.5 302> 708 33<384 460.5 360.5 466.5>
VStem: 169 105<528 579.5> 444 109<196.5 221.5>
LayerCount: 2
Fore
SplineSet
61 15 m 1
 89 154 l 1
 140 154 l 1
 139 145 l 2
 138 144 138 139 137 132 c 0
 136 120 134 109 133 105 c 0
 131 100 130 92 130 89 c 0
 130 50 193 18 270 18 c 0
 374 18 444 90 444 197 c 0
 444 246 428 267 356 311 c 2
 299 345 l 2
 209 400 169 453 169 518 c 0
 169 641 287 741 434 741 c 0
 487 741 542 731 612 710 c 1
 586 582 l 1
 532 582 l 1
 533 590 l 2
 534 592 534 596 535 603 c 0
 536 615 538 623 539 629 c 0
 541 635 543 649 543 654 c 0
 543 689 503 708 430 708 c 0
 338 708 274 643 274 548 c 0
 274 508 298 476 354 443 c 2
 412 408 l 2
 520 343 553 301 553 230 c 0
 553 163 524 104 469 56 c 0
 410 5 346 -18 258 -18 c 0
 182 -18 119 -7 61 15 c 1
640 940 m 1
 492 783 l 1
 383 783 l 1
 297 940 l 1
 339 940 l 1
 447 831 l 1
 598 940 l 1
 640 940 l 1
EndSplineSet
EndChar
StartChar: scaron
Encoding: 154 353 103
Width: 389
Flags: MW
HStem: -12 33<167.5 220 164 250.5> 509 33<286.5 329>
VStem: 126 97<389.5 418> 288 103<123 153>
LayerCount: 2
Fore
SplineSet
52 27 m 1
 76 150 l 1
 125 150 l 1
 124 141 l 1
 118 106 l 2
 117 99 116 92 116 86 c 0
 116 43 140 21 188 21 c 0
 252 21 288 63 288 137 c 0
 288 169 272 194 236 223 c 2
 211 242 l 2
 154 285 126 326 126 367 c 0
 126 469 203 542 310 542 c 0
 352 542 386 533 423 512 c 1
 400 397 l 1
 352 397 l 1
 354 406 l 2
 357 422 360 447 360 462 c 0
 360 494 345 509 313 509 c 0
 260 509 223 465 223 401 c 0
 223 378 234 356 253 342 c 2
 290 315 l 1
 313 296 l 2
 379 244 391 226 391 179 c 0
 391 67 309 -12 192 -12 c 0xf0
 143 -12 102 0 52 27 c 1
532 783 m 1
 383 626 l 1
 275 626 l 1
 189 783 l 1
 231 783 l 1
 339 674 l 1
 490 783 l 1
 532 783 l 1
EndSplineSet
EndChar
StartChar: Tcommaaccent
Encoding: 282 354 53
Width: 611
Flags: MW
HStem: -211 36<253 270 243.5 295.5> 0 20 684 39<295 391 295 295 493 493 493 590>
VStem: 312 69<-141.5 -112>
LayerCount: 2
Fore
SplineSet
391 684 m 1
 295 684 l 1
 244 682 l 2
 208 681 203 676 195 637 c 0
 192 621 190 612 188 607 c 2
 187 601 l 1
 184 591 l 1
 133 591 l 1
 160 723 l 1
 740 723 l 1
 714 591 l 1
 663 591 l 1
 664 601 l 2
 668 628 671 641 673 646 c 0
 675 651 676 654 676 656 c 0
 676 674 645 684 590 684 c 2
 493 684 l 1
 382 127 l 2
 378 104 374 74 374 59 c 0
 374 42 384 35 411 33 c 2
 444 31 l 1
 465 30 l 1
 459 0 l 1
 152 0 l 1
 158 30 l 1
 179 31 l 2
 259 33 259 33 279 127 c 2
 391 684 l 1
196 -201 m 1
 203 -167 l 1
 223 -173 237 -175 250 -175 c 0
 290 -175 312 -157 312 -126 c 0
 312 -98 288 -87 229 -85 c 1
 293 0 l 1
 331 0 l 1
 288 -58 l 1
 353 -64 381 -82 381 -119 c 0
 381 -168 327 -211 264 -211 c 0
 242 -211 219 -208 196 -201 c 1
EndSplineSet
EndChar
StartChar: tcommaaccent
Encoding: 317 355 117
Width: 278
Flags: W
HStem: -211 36<107.5 124 97.5 150> -12 20 0 20 488 42<118 164 110 173 269 370>
VStem: 87 93<53 70.5 53 84.5> 166 69<-141.5 -112>
LayerCount: 2
Fore
SplineSet
268 42 m 1xd8
 260 3 l 1
 230 -8 210 -12 187 -12 c 0
 121 -12 87 18 87 76 c 0
 87 93 92 127 99 166 c 2
 164 488 l 1
 110 488 l 1
 118 530 l 1
 173 530 l 1
 192 626 l 1
 293 650 l 1
 269 530 l 1
 378 530 l 1
 370 488 l 1
 260 488 l 1
 193 153 l 1
 185 110 l 2
 182 92 180 76 180 65 c 0
 180 41 194 27 218 27 c 0
 232 27 247 31 268 42 c 1xd8
50 -201 m 1
 57 -167 l 1
 77 -173 91 -175 104 -175 c 0
 144 -175 166 -157 166 -126 c 0
 166 -98 142 -87 83 -85 c 1
 147 0 l 1
 185 0 l 1
 142 -58 l 1
 207 -64 235 -82 235 -119 c 0xa4
 235 -168 181 -211 119 -211 c 0
 96 -211 73 -208 50 -201 c 1
EndSplineSet
EndChar
StartChar: Tcaron
Encoding: 275 356 41
Width: 611
Flags: MW
HStem: 0 20 684 39<295 391 295 295 493 493 493 590>
LayerCount: 2
Fore
SplineSet
391 684 m 1
 295 684 l 1
 244 682 l 2
 208 681 203 676 195 637 c 0
 192 621 190 612 188 607 c 2
 187 601 l 1
 184 591 l 1
 133 591 l 1
 160 723 l 1
 740 723 l 1
 714 591 l 1
 663 591 l 1
 664 601 l 2
 668 628 671 641 673 646 c 0
 675 651 676 654 676 656 c 0
 676 674 645 684 590 684 c 2
 493 684 l 1
 382 127 l 2
 378 104 374 74 374 59 c 0
 374 42 384 35 411 33 c 2
 444 31 l 1
 465 30 l 1
 459 0 l 1
 152 0 l 1
 158 30 l 1
 179 31 l 2
 259 33 259 33 279 127 c 2
 391 684 l 1
665 940 m 1
 516 783 l 1
 408 783 l 1
 322 940 l 1
 364 940 l 1
 472 831 l 1
 623 940 l 1
 665 940 l 1
EndSplineSet
EndChar
StartChar: tcaron
Encoding: 311 357 105
Width: 325
Flags: MW
HStem: -12 20 488 42<118 164 109 172 269 370>
VStem: 87 93<53.5 71 53.5 84.5>
LayerCount: 2
Fore
SplineSet
268 42 m 1
 260 3 l 1
 230 -8 210 -12 187 -12 c 0
 121 -12 87 18 87 76 c 0
 87 93 92 128 99 166 c 2
 164 488 l 1
 109 488 l 1
 118 530 l 1
 172 530 l 1
 191 626 l 1
 293 650 l 1
 269 530 l 1
 378 530 l 1
 370 488 l 1
 260 488 l 1
 193 153 l 1
 185 110 l 2
 182 93 180 76 180 66 c 0
 180 41 193 27 218 27 c 0
 232 27 247 31 268 42 c 1
419 727 m 1
 380 727 l 1
 400 824 l 1
 496 824 l 1
 479 740 l 2
 461 652 420 606 355 602 c 1
 360 626 l 1
 386 629 404 654 414 702 c 2
 419 727 l 1
EndSplineSet
EndChar
StartChar: Umacron
Encoding: 292 362 64
Width: 722
Flags: MW
HStem: -18 33<340.5 417> 703 20<155 440 440 440 625 856 856 856> 783 60<387 712 399 700>
VStem: 143 96<104.5 151 102.5 181>
LayerCount: 2
Fore
SplineSet
149 693 m 1
 155 723 l 1
 440 723 l 1
 434 693 l 1
 424 692 l 1
 391 690 l 2
 353 687 348 683 336 645 c 2
 324 596 l 1
 262 287 l 2
 247 212 239 161 239 141 c 0
 239 64 296 15 385 15 c 0
 466 15 542 55 580 117 c 0
 595 143 607 183 623 266 c 2
 690 596 l 2
 694 619 698 649 698 664 c 0
 698 681 687 689 660 690 c 2
 627 692 l 1
 619 693 l 1
 625 723 l 1
 856 723 l 1
 850 693 l 1
 841 692 l 1
 808 690 l 2
 769 687 764 683 753 645 c 2
 741 596 l 1
 680 294 l 2
 659 190 643 141 614 101 c 0
 557 21 474 -18 360 -18 c 0
 215 -18 143 43 143 166 c 0
 143 196 147 232 155 271 c 2
 220 596 l 2
 225 622 228 648 228 664 c 0
 228 681 217 689 190 690 c 2
 158 692 l 1
 149 693 l 1
387 783 m 1
 399 843 l 1
 712 843 l 1
 700 783 l 1
 387 783 l 1
EndSplineSet
EndChar
StartChar: Uring
Encoding: 276 366 46
Width: 722
Flags: MW
HStem: -18 33<340.5 417> 703 20<155 440 440 440 625 856 856 856> 771 33<521.5 567.5 521.5 572> 960 33<550 596>
VStem: 143 96<104.5 151 102.5 181> 446 34<845.5 891 845.5 895> 638 34<873 918.5>
LayerCount: 2
Fore
SplineSet
149 693 m 1
 155 723 l 1
 440 723 l 1
 434 693 l 1
 424 692 l 1
 391 690 l 2
 353 687 348 683 336 645 c 2
 324 596 l 1
 262 287 l 2
 247 212 239 161 239 141 c 0
 239 64 296 15 385 15 c 0
 466 15 542 55 580 117 c 0
 595 143 607 183 623 266 c 2
 690 596 l 2
 694 619 698 649 698 664 c 0
 698 681 687 689 660 690 c 2
 627 692 l 1
 619 693 l 1
 625 723 l 1
 856 723 l 1
 850 693 l 1
 841 692 l 1
 808 690 l 2
 769 687 764 683 753 645 c 2
 741 596 l 1
 680 294 l 2
 659 190 643 141 614 101 c 0
 557 21 474 -18 360 -18 c 0
 215 -18 143 43 143 166 c 0
 143 196 147 232 155 271 c 2
 220 596 l 2
 225 622 228 648 228 664 c 0
 228 681 217 689 190 690 c 2
 158 692 l 1
 149 693 l 1
581 993 m 0
 634 993 672 956 672 904 c 0
 672 834 608 771 536 771 c 0
 484 771 446 808 446 860 c 0
 446 930 510 993 581 993 c 0
576 960 m 0
 524 960 480 916 480 866 c 0
 480 825 501 804 542 804 c 0
 593 804 638 848 638 898 c 0
 638 939 616 960 576 960 c 0
EndSplineSet
EndChar
StartChar: uhungarumlaut
Encoding: 313 369 111
Width: 500
Flags: W
HStem: -12 63<146.5 244.5> 0 20 510 20<112 268 268 268 377 532 532 532>
VStem: 86 99<76.5 80.5>
LayerCount: 2
Fore
SplineSet
371 500 m 1xb0
 377 530 l 1
 532 530 l 1
 452 126 l 1
 443 78 l 2
 440 66 439 60 439 58 c 0
 439 42 455 32 482 31 c 2
 491 30 l 1
 485 0 l 1
 330 0 l 1x70
 348 87 l 1
 285 17 234 -12 176 -12 c 0
 117 -12 86 17 86 71 c 0
 86 90 90 125 97 157 c 2
 147 404 l 1
 155 451 l 2
 155 452 156 455 157 461 c 0
 158 465 159 470 159 472 c 0
 159 488 143 498 115 499 c 2
 107 500 l 1
 112 530 l 1
 268 530 l 1
 196 172 l 1
 190 134 l 2
 187 115 185 98 185 89 c 0
 185 64 198 51 225 51 c 0
 264 51 303 72 354 120 c 1
 411 404 l 1
 419 451 l 2
 420 453 420 455 421 459 c 0
 422 464 423 470 423 472 c 0
 423 488 407 498 380 499 c 2
 371 500 l 1xb0
245 626 m 1
 381 783 l 1
 463 783 l 1
 275 626 l 1
 245 626 l 1
396 626 m 1
 531 783 l 1
 614 783 l 1
 426 626 l 1
 396 626 l 1
EndSplineSet
EndChar
StartChar: Uogonek
Encoding: 293 370 65
Width: 722
Flags: W
HStem: -181 40<366 437.5> -18 33<340.5 417> 0 20 703 20<155 440 440 440 625 856 856 856>
VStem: 143 96<104.5 151 102.5 181> 304 70<-114.5 -95>
LayerCount: 2
Fore
SplineSet
149 693 m 1xdc
 155 723 l 1
 440 723 l 1
 434 693 l 1
 424 692 l 1
 391 690 l 2
 353 687 348 683 336 645 c 2
 324 596 l 1
 262 287 l 2
 247 212 239 161 239 141 c 0
 239 64 296 15 385 15 c 0
 466 15 542 55 580 117 c 0
 595 143 607 183 623 266 c 2
 690 596 l 2
 694 619 698 649 698 664 c 0
 698 681 687 689 660 690 c 2
 627 692 l 1
 619 693 l 1
 625 723 l 1
 856 723 l 1
 850 693 l 1
 841 692 l 1
 808 690 l 2
 769 687 764 683 753 645 c 2
 741 596 l 1
 680 294 l 2
 659 190 643 141 614 101 c 0
 557 21 474 -18 360 -18 c 0
 215 -18 143 43 143 166 c 0
 143 196 147 232 155 271 c 2
 220 596 l 2
 225 622 228 648 228 664 c 0
 228 681 217 689 190 690 c 2
 158 692 l 1
 149 693 l 1xdc
479 -133 m 1
 473 -167 l 1
 446 -177 424 -181 397 -181 c 0
 335 -181 304 -160 304 -118 c 0
 304 -72 335 -35 403 0 c 1
 455 0 l 1xac
 399 -32 374 -63 374 -101 c 0
 374 -128 392 -141 429 -141 c 0
 446 -141 461 -139 479 -133 c 1
EndSplineSet
EndChar
StartChar: uogonek
Encoding: 327 371 127
Width: 500
Flags: W
HStem: -181 40<321 392.5> -12 63<146.5 244> 0 20 510 20<112 268 268 268 377 532 532 532>
VStem: 86 99<76.5 80.5> 259 70<-114.5 -95>
LayerCount: 2
Fore
SplineSet
371 500 m 1x5c
 377 530 l 1
 532 530 l 1
 452 126 l 1
 443 78 l 2
 440 66 439 60 439 58 c 0
 439 42 455 32 482 31 c 2
 491 30 l 1
 485 0 l 1
 330 0 l 1xbc
 348 87 l 1
 285 17 234 -12 176 -12 c 0
 117 -12 86 17 86 71 c 0
 86 90 90 125 97 157 c 2
 147 404 l 1
 155 451 l 2
 155 452 156 455 157 461 c 0
 158 465 159 470 159 472 c 0
 159 488 143 498 115 499 c 2
 107 500 l 1
 112 530 l 1
 268 530 l 1
 196 172 l 1
 190 134 l 2
 187 115 185 98 185 89 c 0
 185 64 198 51 224 51 c 0
 264 51 303 72 354 120 c 1
 411 404 l 1
 419 451 l 2
 420 453 420 455 421 459 c 0
 422 464 423 470 423 472 c 0
 423 488 407 498 380 499 c 2
 371 500 l 1x5c
435 -133 m 1
 428 -167 l 1
 402 -177 379 -181 352 -181 c 0
 290 -181 259 -160 259 -118 c 0
 259 -72 290 -35 358 0 c 1
 411 0 l 1
 354 -32 329 -63 329 -101 c 0
 329 -128 347 -141 384 -141 c 0
 401 -141 416 -139 435 -133 c 1
EndSplineSet
EndChar
StartChar: Zacute
Encoding: 278 377 49
Width: 611
Flags: MW
HStem: 0 45<171 390 171 551> 684 39<350 570 350 350>
LayerCount: 2
Fore
SplineSet
45 0 m 1
 53 39 l 1
 570 684 l 1
 350 684 l 1
 296 682 l 2
 258 681 254 678 246 636 c 1
 242 623 l 1
 240 612 l 1
 237 599 l 1
 235 591 l 1
 232 578 l 1
 177 578 l 1
 207 723 l 1
 692 723 l 1
 686 690 l 1
 171 45 l 1
 390 45 l 1
 471 48 l 2
 492 48 505 58 510 80 c 2
 522 129 l 1
 524 138 l 1
 579 138 l 1
 551 0 l 1
 45 0 l 1
406 783 m 1
 555 940 l 1
 681 940 l 1
 451 783 l 1
 406 783 l 1
EndSplineSet
EndChar
StartChar: zacute
Encoding: 314 378 113
Width: 444
Flags: MW
HStem: 0 36<151 269 269 311.5> 497 33<246 292 246 246 292 387>
LayerCount: 2
Fore
SplineSet
30 0 m 1
 36 30 l 1
 387 497 l 1
 292 497 l 1
 246 497 l 2
 201 496 195 492 186 451 c 2
 181 426 l 1
 180 424 l 1
 178 414 l 1
 127 414 l 1
 150 530 l 1
 506 530 l 1
 500 500 l 1
 151 36 l 1
 269 36 l 2
 354 36 369 41 376 74 c 2
 383 110 l 1
 386 122 l 1
 437 122 l 1
 413 0 l 1xc0
 30 0 l 1
284 626 m 1
 432 783 l 1
 559 783 l 1
 329 626 l 1
 284 626 l 1
EndSplineSet
EndChar
StartChar: Zdotaccent
Encoding: 280 379 51
Width: 611
Flags: MW
HStem: 0 45<171 390 171 551> 684 39<350 570 350 350> 783 96<407 522 426 503>
LayerCount: 2
Fore
SplineSet
45 0 m 1
 53 39 l 1
 570 684 l 1
 350 684 l 1
 296 682 l 2
 258 681 254 678 246 636 c 1
 242 623 l 1
 240 612 l 1
 237 599 l 1
 235 591 l 1
 232 578 l 1
 177 578 l 1
 207 723 l 1
 692 723 l 1
 686 690 l 1
 171 45 l 1
 390 45 l 1
 471 48 l 2
 492 48 505 58 510 80 c 2
 522 129 l 1
 524 138 l 1
 579 138 l 1
 551 0 l 1
 45 0 l 1
407 783 m 1
 426 879 l 1
 522 879 l 1
 503 783 l 1
 407 783 l 1
EndSplineSet
EndChar
StartChar: zcaron
Encoding: 315 382 114
Width: 444
Flags: MW
HStem: 0 36<151 269 269 311.5> 497 33<246 292 246 246 292 387>
LayerCount: 2
Fore
SplineSet
30 0 m 1
 36 30 l 1
 387 497 l 1
 292 497 l 1
 246 497 l 2
 201 496 195 492 186 451 c 2
 181 426 l 1
 180 424 l 1
 178 414 l 1
 127 414 l 1
 150 530 l 1
 506 530 l 1
 500 500 l 1
 151 36 l 1
 269 36 l 2
 354 36 369 41 376 74 c 2
 383 110 l 1
 386 122 l 1
 437 122 l 1
 413 0 l 1xc0
 30 0 l 1
551 783 m 1
 402 626 l 1
 294 626 l 1
 208 783 l 1
 250 783 l 1
 358 674 l 1
 509 783 l 1
 551 783 l 1
EndSplineSet
EndChar
StartChar: florin
Encoding: 131 402 216
Width: 500
Flags: MW
HStem: 362 30<86 179 80 191 287 404> 705 30<462.5 511>
LayerCount: 2
Fore
SplineSet
-23 -145 m 1
 179 362 l 1
 80 362 l 1
 86 392 l 1
 191 392 l 1
 214 451 l 2
 283 627 401 735 524 735 c 0
 550 735 577 730 607 721 c 1
 585 609 l 1
 537 609 l 1
 541 639 544 662 544 669 c 0
 544 692 527 705 495 705 c 0
 429 705 392 657 321 478 c 2
 287 392 l 1
 410 392 l 1
 404 362 l 1
 275 362 l 1
 73 -145 l 1
 -23 -145 l 1
EndSplineSet
EndChar
StartChar: scommaaccent
Encoding: 310 537 104
Width: 389
Flags: MW
HStem: -211 36<129.5 156 128.5 174.5> -12 33<167.5 220 164 250.5> 509 33<286.5 329>
VStem: 126 97<389.5 418> 168 66 288 103<123 153>
LayerCount: 2
Fore
SplineSet
52 27 m 1
 76 150 l 1
 125 150 l 1
 124 141 l 1
 118 106 l 2
 117 99 116 92 116 86 c 0
 116 43 140 21 188 21 c 0
 252 21 288 63 288 137 c 0
 288 169 272 194 236 223 c 2
 211 242 l 2
 154 285 126 326 126 367 c 0
 126 469 203 542 310 542 c 0
 352 542 386 533 423 512 c 1
 400 397 l 1
 352 397 l 1
 354 406 l 2
 357 422 360 447 360 462 c 0
 360 494 345 509 313 509 c 0
 260 509 223 465 223 401 c 0
 223 378 234 356 253 342 c 2
 290 315 l 1
 313 296 l 2
 379 244 391 226 391 179 c 0
 391 67 309 -12 192 -12 c 0x74
 143 -12 102 0 52 27 c 1
80 -206 m 1
 87 -170 l 1
 101 -173 120 -175 137 -175 c 0
 175 -175 196 -158 196 -128 c 0
 196 -102 176 -90 128 -85 c 1
 134 -54 l 1
 223 -56 262 -77 262 -124 c 0
 262 -175 210 -211 139 -211 c 0x88
 120 -211 101 -209 80 -206 c 1
EndSplineSet
EndChar
StartChar: circumflex
Encoding: 136 710 286
Width: 333
Flags: W
LayerCount: 2
Fore
SplineSet
120 626 m 1
 268 783 l 1
 377 783 l 1
 463 626 l 1
 421 626 l 1
 313 735 l 1
 162 626 l 1
 120 626 l 1
EndSplineSet
EndChar
StartChar: caron
Encoding: 345 711 287
Width: 333
Flags: W
LayerCount: 2
Fore
SplineSet
494 783 m 1
 345 626 l 1
 237 626 l 1
 151 783 l 1
 193 783 l 1
 301 674 l 1
 452 783 l 1
 494 783 l 1
EndSplineSet
EndChar
StartChar: breve
Encoding: 346 728 288
Width: 333
Flags: MW
HStem: 626 69<268.5 335>
LayerCount: 2
Fore
SplineSet
160 783 m 1
 192 783 l 1
 198 722 232 695 305 695 c 0
 378 695 423 722 454 783 c 1
 485 783 l 1
 450 684 379 626 291 626 c 0
 215 626 159 682 159 757 c 0x80
 159 761 159 773 160 783 c 1
EndSplineSet
EndChar
StartChar: dotaccent
Encoding: 343 729 282
Width: 333
Flags: MW
HStem: 627 96<244 359 263 340>
LayerCount: 2
Fore
SplineSet
244 627 m 1
 263 723 l 1
 359 723 l 1
 340 627 l 1x80
 244 627 l 1
EndSplineSet
EndChar
StartChar: ring
Encoding: 344 730 283
Width: 333
Flags: MW
HStem: 626 33<279 325.5 279 329> 815 33<307 353.5>
VStem: 203 34<700.5 746 700.5 750> 396 34<728 773.5>
LayerCount: 2
Fore
SplineSet
338 848 m 0
 392 848 430 811 430 759 c 0
 430 689 365 626 293 626 c 0
 241 626 203 663 203 715 c 0xf0
 203 785 267 848 338 848 c 0
333 815 m 0
 281 815 237 771 237 721 c 0
 237 680 258 659 300 659 c 0
 351 659 396 703 396 753 c 0
 396 794 374 815 333 815 c 0
EndSplineSet
EndChar
StartChar: ogonek
Encoding: 348 731 292
Width: 333
Flags: MW
HStem: -181 40<161.5 162> 0 20
VStem: 55 70<-114.5 -95>
LayerCount: 2
Fore
SplineSet
231 -133 m 1
 224 -167 l 1
 198 -177 175 -181 149 -181 c 0
 87 -181 55 -160 55 -118 c 0
 55 -72 86 -35 155 0 c 1
 207 0 l 1
 150 -32 125 -63 125 -101 c 0
 125 -128 143 -141 180 -141 c 0xe0
 197 -141 213 -139 231 -133 c 1
EndSplineSet
EndChar
StartChar: tilde
Encoding: 152 732 289
Width: 333
Flags: W
HStem: 627 66<371.5 374.5> 676 66<232 235.5>
LayerCount: 2
Fore
SplineSet
159 627 m 1
 129 627 l 1
 161 707 202 742 262 742 c 0x40
 284 742 302 736 317 723 c 2
 332 711 l 2
 345 700 363 693 380 693 c 0
 412 693 433 708 447 741 c 1
 477 741 l 1
 445 662 405 627 344 627 c 0x80
 323 627 305 633 290 645 c 2
 275 657 l 2
 259 670 244 676 227 676 c 0x40
 197 676 176 661 159 627 c 1
EndSplineSet
EndChar
StartChar: hungarumlaut
Encoding: 347 733 290
Width: 333
Flags: W
LayerCount: 2
Fore
SplineSet
123 626 m 1
 259 783 l 1
 341 783 l 1
 153 626 l 1
 123 626 l 1
273 626 m 1
 409 783 l 1
 492 783 l 1
 304 626 l 1
 273 626 l 1
EndSplineSet
EndChar
StartChar: endash
Encoding: 150 8211 243
Width: 500
Flags: MW
HStem: 265 60<95 523 107 511>
LayerCount: 2
Fore
SplineSet
95 265 m 1
 107 325 l 1
 523 325 l 1
 511 265 l 1
 95 265 l 1
EndSplineSet
EndChar
StartChar: emdash
Encoding: 151 8212 244
Width: 1000
Flags: MW
HStem: 265 48<101 1014 110 1004>
LayerCount: 2
Fore
SplineSet
101 265 m 1
 110 313 l 1
 1014 313 l 1
 1004 265 l 1
 101 265 l 1
EndSplineSet
EndChar
StartChar: quoteleft
Encoding: 145 8216 228
Width: 333
Flags: W
LayerCount: 2
Fore
SplineSet
296 614 m 1
 344 614 l 1
 320 494 l 1
 199 494 l 1
 220 598 l 2
 235 672 243 690 266 715 c 0
 299 750 335 768 375 771 c 1
 369 741 l 1
 336 738 314 706 302 646 c 2
 296 614 l 1
EndSplineSet
EndChar
StartChar: quoteright
Encoding: 146 8217 268
Width: 333
Flags: W
LayerCount: 2
Fore
SplineSet
291 650 m 1
 242 650 l 1
 267 771 l 1
 387 771 l 1
 366 666 l 2
 351 593 344 575 320 550 c 0
 285 514 251 497 211 494 c 1
 217 524 l 1
 250 527 272 559 284 619 c 2
 291 650 l 1
EndSplineSet
EndChar
StartChar: quotesinglbase
Encoding: 130 8218 267
Width: 333
Flags: MW
HStem: 0 20
LayerCount: 2
Fore
SplineSet
161 0 m 1
 112 0 l 1
 136 121 l 1
 257 121 l 1
 236 16 l 2
 221 -56 214 -75 190 -100 c 0
 157 -135 121 -153 81 -156 c 1
 87 -126 l 1
 120 -123 142 -92 154 -31 c 2
 161 0 l 1
EndSplineSet
EndChar
StartChar: quotedblleft
Encoding: 147 8220 230
Width: 444
Flags: W
LayerCount: 2
Fore
SplineSet
255 614 m 1
 303 614 l 1
 279 494 l 1
 158 494 l 1
 179 598 l 2
 194 672 202 690 225 715 c 0
 258 750 294 768 334 771 c 1
 328 741 l 1
 295 738 273 706 261 646 c 2
 255 614 l 1
448 614 m 1
 495 614 l 1
 471 494 l 1
 351 494 l 1
 372 598 l 2
 387 672 394 690 418 714 c 0
 450 750 486 768 527 771 c 1
 521 741 l 1
 488 738 465 706 453 646 c 2
 448 614 l 1
EndSplineSet
EndChar
StartChar: quotedblright
Encoding: 148 8221 229
Width: 444
Flags: W
LayerCount: 2
Fore
SplineSet
442 650 m 1
 394 650 l 1
 419 771 l 1
 539 771 l 1
 518 666 l 2
 503 593 496 575 472 550 c 0
 437 514 403 497 363 494 c 1
 369 524 l 1
 402 527 424 559 436 619 c 2
 442 650 l 1
250 650 m 1
 201 650 l 1
 226 771 l 1
 346 771 l 1
 325 666 l 2
 310 593 303 575 279 550 c 0
 244 514 210 497 170 494 c 1
 176 524 l 1
 209 527 231 559 243 619 c 2
 250 650 l 1
EndSplineSet
EndChar
StartChar: quotedblbase
Encoding: 132 8222 231
Width: 444
Flags: MW
HStem: 0 20
LayerCount: 2
Fore
SplineSet
312 0 m 1
 264 0 l 1
 288 121 l 1
 409 121 l 1
 388 16 l 2
 372 -57 365 -75 342 -100 c 0
 309 -135 273 -153 233 -156 c 1
 239 -126 l 1
 272 -123 294 -92 306 -31 c 2
 312 0 l 1
120 0 m 1
 71 0 l 1
 95 121 l 1
 216 121 l 1
 195 16 l 2
 180 -56 173 -75 149 -100 c 0
 116 -135 80 -153 40 -156 c 1
 46 -126 l 1
 79 -123 101 -92 113 -31 c 2
 120 0 l 1
EndSplineSet
EndChar
StartChar: dagger
Encoding: 134 8224 251
Width: 500
Flags: MW
HStem: 703 20<347 443 443 443>
LayerCount: 2
Fore
SplineSet
173 -145 m 1
 310 419 l 1
 119 397 l 1
 133 470 l 1
 316 449 l 1
 347 723 l 1
 443 723 l 1
 364 449 l 1
 555 470 l 1
 540 397 l 1
 358 419 l 1
 269 -145 l 1
 173 -145 l 1
EndSplineSet
EndChar
StartChar: daggerdbl
Encoding: 135 8225 252
Width: 500
Flags: MW
HStem: 703 20<347 443 443 443>
LayerCount: 2
Fore
SplineSet
173 -145 m 1
 252 129 l 1
 61 108 l 1
 76 181 l 1
 258 159 l 1
 310 419 l 1
 119 397 l 1
 133 470 l 1
 316 449 l 1
 347 723 l 1
 443 723 l 1
 364 449 l 1
 555 470 l 1
 540 397 l 1
 358 419 l 1
 307 159 l 1
 498 181 l 1
 483 108 l 1
 300 129 l 1
 269 -145 l 1
 173 -145 l 1
EndSplineSet
EndChar
StartChar: bullet
Encoding: 149 8226 299
Width: 350
Flags: MW
HStem: 522 20<243.5 319>
LayerCount: 2
Fore
SplineSet
287 542 m 0
 351 542 397 496 397 432 c 0
 397 348 318 271 231 271 c 0
 167 271 121 317 121 381 c 0
 121 465 200 542 287 542 c 0
EndSplineSet
EndChar
StartChar: ellipsis
Encoding: 133 8230 225
Width: 1000
Flags: MW
HStem: 0 96<119 235 138 215 472 549 805 882>
LayerCount: 2
Fore
SplineSet
119 0 m 1
 138 96 l 1
 235 96 l 1
 215 0 l 1
 119 0 l 1
452 0 m 1
 472 96 l 1
 568 96 l 1
 549 0 l 1
 452 0 l 1
786 0 m 1
 805 96 l 1
 901 96 l 1
 882 0 l 1
 786 0 l 1
EndSplineSet
EndChar
StartChar: perthousand
Encoding: 137 8240 279
Width: 1000
Flags: W
HStem: -18 20 0 30<459 512 459 526 815 868> 331 30<507.5 560.5 863 915.5> 362 30<227 280.5 227 294> 693 30<275.5 329> 721 20<715 757 757 757>
VStem: 120 67<455.5 532.5 446.5 559> 352 67<93.5 170.5 84.5 197> 370 67<551 632.5 525.5 637.5> 602 67<189 270 163 275.5> 708 67<93.5 170.5 84.5 197.5> 957 67<189 270 163 275.5>
LayerCount: 2
Fore
SplineSet
315 723 m 0x7a80
 395 723 437 677 437 588 c 0
 437 463 348 362 240 362 c 0
 165 362 120 413 120 498 c 0
 120 620 209 723 315 723 c 0x7a80
308 693 m 0
 243 693 187 591 187 474 c 0
 187 419 207 392 247 392 c 0
 314 392 370 492 370 610 c 0
 370 665 350 693 308 693 c 0
547 361 m 0
 627 361 669 315 669 225 c 0
 669 101 580 0 472 0 c 0
 397 0 352 51 352 136 c 0x7970
 352 258 441 361 547 361 c 0
540 331 m 0
 475 331 419 229 419 112 c 0
 419 57 439 30 479 30 c 0
 545 30 602 130 602 248 c 0
 602 303 581 331 540 331 c 0
902 361 m 0
 983 361 1024 315 1024 225 c 0
 1024 101 936 0 827 0 c 0
 753 0 708 51 708 136 c 0
 708 259 797 361 902 361 c 0
895 331 m 0
 831 331 775 229 775 112 c 0
 775 57 795 30 835 30 c 0
 901 30 957 130 957 248 c 0
 957 303 936 331 895 331 c 0
32 -18 m 1x8570
 715 741 l 1
 757 741 l 1
 74 -18 l 1
 32 -18 l 1x8570
EndSplineSet
EndChar
StartChar: guilsinglleft
Encoding: 139 8249 239
Width: 333
Flags: W
LayerCount: 2
Fore
SplineSet
364 457 m 1
 192 265 l 1
 287 74 l 1
 259 54 l 1
 95 265 l 1
 344 476 l 1
 364 457 l 1
EndSplineSet
EndChar
StartChar: guilsinglright
Encoding: 155 8250 238
Width: 333
Flags: W
LayerCount: 2
Fore
SplineSet
75 73 m 1
 247 265 l 1
 152 456 l 1
 180 476 l 1
 344 265 l 1
 96 54 l 1
 75 73 l 1
EndSplineSet
EndChar
StartChar: fraction
Encoding: 342 8260 277
Width: 167
Flags: MW
HStem: -18 20 721 20<476 518 518 518>
LayerCount: 2
Fore
SplineSet
-207 -18 m 1
 476 741 l 1
 518 741 l 1
 -165 -18 l 1
 -207 -18 l 1
EndSplineSet
EndChar
StartChar: Euro
Encoding: 128 8364 217
Width: 500
Flags: MW
HStem: -18 48<314.5 351> 283 30<57 123 76 120 219 407> 416 30<102 144 83 153 248 488> 708 33<444.5 499.5>
LayerCount: 2
Fore
SplineSet
57 283 m 1
 76 313 l 1
 123 313 l 1
 127 345 134 379 144 416 c 1
 83 416 l 1
 102 446 l 1
 153 446 l 1
 189 546 216 595 261 646 c 0
 319 709 391 741 476 741 c 0
 528 741 569 730 614 705 c 1
 588 578 l 1
 540 578 l 1
 542 592 543 598 544 603 c 0
 547 617 550 638 550 648 c 0
 550 687 524 708 475 708 c 0
 414 708 364 678 321 615 c 0
 291 572 274 531 248 446 c 1
 507 446 l 1
 488 416 l 1
 240 416 l 1
 230 380 223 343 219 313 c 1
 425 313 l 1
 407 283 l 1
 215 283 l 1
 215 275 l 1
 214 263 l 1
 213 224 l 2
 213 110 272 30 357 30 c 0
 397 30 436 42 481 67 c 1
 472 22 l 1
 425 -5 378 -18 324 -18 c 0
 202 -18 117 80 117 222 c 0
 117 236 118 255 119 275 c 2
 120 283 l 1
 57 283 l 1
EndSplineSet
EndChar
StartChar: trademark
Encoding: 153 8482 264
Width: 980
Flags: MW
HStem: 693 30<249 340 249 249 406 406 406 496 213 574 581 641 990 990 990 1050>
LayerCount: 2
Fore
SplineSet
340 693 m 1
 249 693 l 1
 236 626 l 1
 194 626 l 1
 213 723 l 1
 545 723 l 1
 525 626 l 1
 483 626 l 1
 496 693 l 1
 406 693 l 1
 344 385 l 1
 404 385 l 1
 399 355 l 1
 212 355 l 1
 218 385 l 1
 278 385 l 1
 340 693 l 1
741 388 m 1
 689 690 l 1
 622 355 l 1
 513 355 l 1
 519 385 l 1
 579 385 l 1
 641 693 l 1
 574 693 l 1
 581 723 l 1
 755 723 l 1
 792 507 l 1
 910 723 l 1
 1056 723 l 1
 1050 693 l 1
 990 693 l 1
 929 385 l 1
 989 385 l 1
 983 355 l 1
 857 355 l 1
 923 690 l 1
 759 388 l 1
 741 388 l 1
EndSplineSet
EndChar
StartChar: minus
Encoding: 341 8722 260
Width: 795
Flags: MW
HStem: 265 48<162 750 171 740>
LayerCount: 2
Fore
SplineSet
162 265 m 1
 171 313 l 1
 750 313 l 1
 740 265 l 1
 162 265 l 1
EndSplineSet
EndChar
StartChar: fi
Encoding: 336 64257 197
Width: 556
Flags: W
HStem: 0 20 488 42<124 184 116 192> 490 40<289 470> 627 96<509 613 528 593> 752 31<364 396.5>
LayerCount: 2
Fore
SplineSet
509 627 m 1xb0
 528 723 l 1
 613 723 l 1
 593 627 l 1
 509 627 l 1xb0
27 0 m 1
 33 30 l 1
 42 31 l 2
 86 34 92 39 101 78 c 2
 111 127 l 1
 184 488 l 1
 116 488 l 1
 124 530 l 1
 192 530 l 1
 197 555 l 2
 233 724 282 783 387 783 c 0
 426 783 456 772 485 747 c 1
 464 638 l 1
 409 638 l 1
 412 657 412 659 415 676 c 0
 418 689 420 709 420 718 c 0
 420 740 408 752 385 752 c 0
 343 752 328 726 305 614 c 2
 289 530 l 1
 574 530 l 1xc8
 494 127 l 1
 485 78 l 2
 482 65 481 61 481 58 c 0
 481 43 502 32 536 31 c 2
 546 30 l 1
 539 0 l 1
 301 0 l 1
 307 30 l 1
 338 31 l 2
 364 31 380 46 387 78 c 2
 397 127 l 1
 470 490 l 1
 281 490 l 1
 208 127 l 1
 199 78 l 2
 196 65 195 60 195 57 c 0
 195 40 212 32 251 31 c 2
 272 30 l 1
 266 0 l 1
 27 0 l 1
EndSplineSet
EndChar
StartChar: fl
Encoding: 337 64258 198
Width: 556
Flags: W
HStem: 0 20 488 42<124 184 116 192> 490 40<289 365> 752 31<365 394.5 333.5 407>
LayerCount: 2
Fore
SplineSet
27 0 m 1xa0
 33 30 l 1
 42 31 l 2
 86 34 92 39 101 78 c 2
 111 127 l 1
 184 488 l 1
 116 488 l 1
 124 530 l 1
 192 530 l 1
 197 555 l 2
 232 722 282 783 385 783 c 0
 404 783 422 780 463 771 c 1
 623 771 l 1
 494 127 l 1
 485 78 l 2
 482 65 481 61 481 58 c 0
 481 43 502 32 536 31 c 2
 546 30 l 1
 539 0 l 1
 301 0 l 1
 307 30 l 1
 338 31 l 2
 364 31 380 46 387 78 c 2
 397 127 l 1
 512 702 l 1
 466 736 427 752 387 752 c 0
 343 752 328 726 305 614 c 2
 289 530 l 1
 373 530 l 1xd0
 365 490 l 1
 281 490 l 1
 208 127 l 1
 199 78 l 2
 196 65 195 60 195 57 c 0
 195 40 212 32 251 31 c 2
 272 30 l 1
 266 0 l 1
 27 0 l 1xa0
EndSplineSet
EndChar
StartChar: commaaccent
Encoding: 350 -1 294
Width: 333
Flags: MW
HStem: -211 36<90.5 117 89.5 135.5>
VStem: 157 66<-143 -115>
LayerCount: 2
Fore
SplineSet
41 -206 m 1
 48 -170 l 1
 62 -173 81 -175 98 -175 c 0
 136 -175 157 -158 157 -128 c 0
 157 -102 137 -90 89 -85 c 1
 95 -54 l 1
 184 -56 223 -77 223 -124 c 0
 223 -175 171 -211 100 -211 c 0xc0
 81 -211 62 -209 41 -206 c 1
EndSplineSet
EndChar
